<svg xmlns="http://www.w3.org/2000/svg" width="169" height="169" viewBox="0 0 169 169"><defs><style>.a{fill:#e0f3ff;}.b{fill:#c1e1f5;}.b,.c,.d,.e,.f,.g,.h,.i{fill-rule:evenodd;}.c{fill:#964836;}.d{fill:#611808;}.e{fill:#f5e7e4;}.f{fill:#e6cfca;}.g{fill:#ad5e4c;}.h{fill:#78230f;}.i{fill:#fff;}</style></defs><rect class="a" width="169" height="169"/><path class="b" d="M102.759,149.059,52.634,99.2c-.321-.321.237-.963.777-1.487a8.737,8.737,0,0,1,2.113-1.453c.591-.372.676-.642.862-1.436a29.372,29.372,0,0,0,.237-7.453,14.973,14.973,0,0,1-1-4.867L24.293,51.343c-.169-.321-.507-.676-.811-1.234-1.284-2.366-.507-3.87,1.842-4.36.946-.794,2.079-1.69,2.958-2.434,2.146-1.944,1.386-3.177,2.788-4.428A3.853,3.853,0,0,1,32.3,38.2c-4.715-3.566.372-5.459,2.535-9.244l3.819,7.233c5.07.558.473-3.684-.541-7.284l16.9,17.475h.389c5.374-1,6.76,0,12.388,1.132a110.677,110.677,0,0,0,19.959-.237,13.672,13.672,0,0,1,3.194-.321c4.732.406,8.45.473,11.255.727l8.771,2.653,42.25,42.487v56.243Z" transform="translate(15.777 19.941)"/><path class="c" d="M40,53.59a20.28,20.28,0,0,0,2.265,4.259c.727.98,1.4,2.112,2.248,2.366s1.487.085,1.893.456c.727.676.9,1.977,1.352,4.107a14.956,14.956,0,0,0,.98,4.867A29.338,29.338,0,0,1,48.45,77.1c-.169.794-.27,1.065-.862,1.436a9.143,9.143,0,0,0-2.1,1.453c-.642.625-1.284,1.4-.524,1.69.524.625.372.541,1.2.608,2.789.237,4.056-.2,4.952-2.839,1.1.372,1.4,0,1.234-1.538-.338-2.822-.456-5.307-.591-8.281a18.151,18.151,0,0,0,.828-5.509,13.52,13.52,0,0,1,.608-4.394,2.721,2.721,0,0,1,1.1-1.251l-1.69-1.268-11.83-3.532Z" transform="translate(27.6 36.977)"/><path class="d" d="M44.5,69.111a6.523,6.523,0,0,0-.879.727c-.642.625-1.284,1.4-.524,1.69.524.625.372.541,1.2.608,2.552.22,3.836-.135,4.715-2.231a3.147,3.147,0,0,0-1.893.254c-2.366.49-2.772.355-2.619-1.014Zm4.867.186c.862.27,1.2,0,1.149-1a5.983,5.983,0,0,1-1.1.49s-.034.237-.051.507Z" transform="translate(29.501 47.127)"/><path class="c" d="M63.47,54.853h.27a22.713,22.713,0,0,0,3.38,4.969c1.47,1.538,3.583,2.924,5.07,4.512,2.265,2.366,2.856,7.487,2.941,10.6a10.41,10.41,0,0,1-.338,3.38c-.2.71-.913.845-1.521,1.352s-1.91,2.231-1.69,2.907c0,.169.1.169.422.169,0,.71,2.214.642,3.583.338,2.112-.456,2.18-2.011,2.265-3.9,1.453.879,1.437,0,1.2-1.572s-.642-3.38-.777-4.326a27.039,27.039,0,0,1-.186-6.321,14.94,14.94,0,0,0,0-2.6,4.867,4.867,0,0,0-.862-1.842c-.422-.642-.591-1.132-.862-1.606a19.013,19.013,0,0,1-1.859-5.814c.152-.524.3-1.065.473-1.69H64.231Z" transform="translate(43.794 36.846)"/><path class="d" d="M69.746,69.56c-.558.608-1.69,2.129-1.453,2.7,0,.169.1.169.423.169,0,.71,2.214.642,3.583.338a2.518,2.518,0,0,0,2.163-2.535c-.389-.338-1.149,0-2.062.254C70.034,71.132,69.645,71.013,69.746,69.56Zm5.07-.575c.9.473,1.132.135,1.115-.625a7.065,7.065,0,0,1-1.166.625Z" transform="translate(47.1 47.168)"/><path class="e" d="M31.829,28.93c-2.383,4.157-8.3,6.033-.828,10.377.794.3,2.619-1,2.366-1.69C27.689,34.693,30.359,33.814,31.829,28.93Z" transform="translate(18.871 19.962)"/><path class="f" d="M62,58a11.138,11.138,0,0,0,1.876,1.977c-.22,1.842-.389,2.738-.186,2.89.659.507.98-1.318,1.91-2.062,1.487.71.98.693,2.687.777.253,2.129.406,2.805.608,2.805.642,0,.608-1.369,1.369-2.67a4.36,4.36,0,0,0,2.721-1.234Z" transform="translate(42.78 40.02)"/><path class="e" d="M57.09,53.539l3.38,8.078,2.248-.237,1.318-.2c2.451,2.332,2.163,3.11,5.56,4.614.3,1.825.389,2.721.625,2.822.811.287.592-1.555,1.3-2.535a4.107,4.107,0,0,0,2.873,0c.862,1.977,1.2,2.586,1.4,2.518.625-.186.2-1.487.575-2.957a4.614,4.614,0,0,0,2.332-1.977L80.6,51.41Z" transform="translate(39.392 35.473)"/><path class="c" d="M57.09,53.539l3.38,8.078c6.067-.507,7.909-4.394,11.593-3.515,2.1,3.38,5.7,5.763,6.642,5.509L80.6,51.41Z" transform="translate(39.392 35.473)"/><path class="g" d="M41.213,62.058c1.251,2.822,2.434,6.76,4.259,9.194.727.963,1.4,2.113,2.248,2.349s1.487.1,1.893.473c.727.676.9,1.96,1.352,4.107a14.973,14.973,0,0,0,1,4.867,29.372,29.372,0,0,1-.237,7.453c-.186.794-.27,1.065-.862,1.436a8.737,8.737,0,0,0-2.112,1.453c-.642.625-1.268,1.386-.507,1.69.507.642.355.558,1.183.625,2.789.237,4.073-.2,4.952-2.856,1.1.389,1.42,0,1.234-1.521-.338-2.839-.456-5.307-.575-8.281a18.759,18.759,0,0,0,.811-5.509,13.52,13.52,0,0,1,.625-4.394,3.38,3.38,0,0,1,3.633-1.791c4.056.1,8.67,2.383,13.334,2.586,5.9.254,8.061-1.943,9.92-3.9s3.38-3.617,7.96-2.484a22.714,22.714,0,0,0,3.38,4.969c1.47,1.538,3.583,2.924,5.07,4.512,2.282,2.366,2.856,7.487,2.941,10.6a10.41,10.41,0,0,1-.338,3.38c-.2.71-.913.845-1.521,1.352s-1.91,2.231-1.69,2.907c0,.169.1.169.423.169,0,.71,2.214.642,3.583.338,2.112-.456,2.18-2.011,2.265-3.9,1.453.879,1.437,0,1.2-1.572s-.642-3.38-.777-4.326a27.04,27.04,0,0,1-.186-6.321,14.94,14.94,0,0,0,0-2.6,4.867,4.867,0,0,0-.862-1.842c-.423-.642-.591-1.132-.862-1.605a19.012,19.012,0,0,1-1.91-5.83c1-3.633,2.552-8.078,3.211-11.61,1.166-6.236.237-8.822-1.217-10.512-2.366-2.789-7.706-2.129-17.745-2.991a13.672,13.672,0,0,0-3.194.321,110.678,110.678,0,0,1-19.959.237c-5.847-1.1-7.081-2.18-12.844-1.048-6.557-1.69-10.495-4.512-18-7L29.62,47.389c4.816-.524,6.253,7.977,8.7,11.408C39.287,59.962,40.774,61.061,41.213,62.058Z" transform="translate(20.438 24.267)"/><path class="h" d="M42.168,69.763a5.441,5.441,0,0,0-.879.727c-.642.625-1.268,1.386-.507,1.69.507.642.355.558,1.183.625,2.552.22,3.836-.135,4.732-2.231a3.289,3.289,0,0,0-1.91.237c-2.366.49-2.772.372-2.619-1Zm4.867.186c.862.27,1.2,0,1.166-1a6.169,6.169,0,0,1-1.115.49v.507Zm46.137-.389c-.558.608-1.69,2.129-1.453,2.7,0,.169.1.169.423.169,0,.71,2.214.642,3.583.338a2.518,2.518,0,0,0,2.163-2.535c-.389-.338-1.149,0-2.062.254C93.46,71.132,93.071,71.013,93.173,69.56Zm5.07-.575c.9.473,1.149.135,1.115-.625a7.065,7.065,0,0,1-1.166.625Z" transform="translate(27.899 47.168)"/><path class="c" d="M29.482,47.933c-2.67.237-4.9,1.149-5.746-.406-1.3-2.366-.524-3.87,1.825-4.36.946-.794,2.079-1.69,2.974-2.451,2.146-1.927,1.386-3.16,2.788-4.411.879-.794,1.47-.727,2.332-1.284,4.174-2.738,8.45-1.031,6.76,5.543-.372,1.4-.456,5.239-.862,6.2-.761,1.808-1.977,2.417-4.225,1.977C33.386,48.372,31.037,48.44,29.482,47.933Z" transform="translate(15.945 23.3)"/><path class="g" d="M28.957,48.884c-2.67.22-4.631.338-5.476-1.217-1.284-2.366-.507-3.87,1.842-4.36.946-.794,2.079-1.69,2.958-2.434,2.146-1.944,1.386-3.177,2.788-4.428.9-.794,1.572-.608,2.332-1.284,1.69-1.436,2.332-2.7,3.025-2.721.439,0,1.352.423,2.721,1.69.659.642,2.417,1.69,2.434,2.146a25.1,25.1,0,0,1-1.42,6.76,38.564,38.564,0,0,1-.913,3.87c-.761,1.808-1.876,2.265-4.157,2.366a21.835,21.835,0,0,1-6.135-.389Z" transform="translate(15.777 22.384)"/><path class="h" d="M26.185,44.545a2.89,2.89,0,0,1-2.7-1.335c-.963-1.775-.76-3.059.372-3.8a3.38,3.38,0,0,1,1.437-.507,2.991,2.991,0,0,1,2.5,3.008,2.434,2.434,0,0,1-1.605,2.636Z" transform="translate(15.778 26.841)"/><path class="g" d="M26.366,41.15c-1,.473-1.859,1.065-2.7,0-.406-.507.253-.71.592-.71C24.879,40.44,25.2,41.133,26.366,41.15Z" transform="translate(16.239 27.904)"/><path class="e" d="M32.528,28.9c2.383,4.157,8.281,6.033.828,10.377-.794.3-2.619-1-2.366-1.69C36.567,34.663,33.913,33.784,32.528,28.9Z" transform="translate(21.366 19.941)"/><path class="c" d="M70.932,64.416c-1.5-1.082-1.825-1.808-3.667-2.011-4.428-7.588-2.873-6.321-4.343-15.294-.372-2.282-.659-4.293-2.5-5.07,2.434.1,3.177,2.281,3.532,4.85,1.436,10.14,1.69,9.447,4.411,13.334A32.532,32.532,0,0,1,70.932,64.416Z" transform="translate(41.69 29.008)"/><path class="g" d="M70.818,39.9c5.273.524,7.791,1.149,9.329,3.819,2.772,4.8.98,14.28.98,24.2,1.065,3.786,3.194,7.368,1.031,10.748,0,2.586-.1,2.636-1.69,4.664.558-4.039-.406-3.262-1.115-6.963-.558-2.907.49-4.546.507-8.687a154.886,154.886,0,0,0-.169-16.123,12.388,12.388,0,0,0-1.47-5.746c-1.69-2.281-4.5-1.69-9.65-3.38Z" transform="translate(47.313 27.531)"/><path class="c" d="M33.762,34.72l4.563,3.228,2.129,1.876c-.71,2.434-6.371,2.434-7.825-2.653A3.988,3.988,0,0,1,33.762,34.72Z" transform="translate(22.515 23.957)"/><path class="e" d="M34.076,34.48c4.749.085,7.706,3.093,6.9,4.884s-6.1,2.552-8.281-2.5A4.394,4.394,0,0,1,34.076,34.48Z" transform="translate(22.556 23.791)"/><path class="h" d="M33.986,34.48c3.617,0,7.909,1.791,7,4.935.169-3.786-5.188-3.279-8.163-3.38A5.256,5.256,0,0,1,33.986,34.48Z" transform="translate(22.646 23.791)"/><path class="g" d="M35.579,40.45c-.22-.946.727-2.265.237-3.228s-1.893-1.453-2.738-1.69a4.681,4.681,0,0,0-2.163,0,9.464,9.464,0,0,0-1.977,2.89c-.084.389-1.69,1.69-1.69,1.859l-.575,1.048c-.1.169,0,1.69,1.149,1.5A19.72,19.72,0,0,0,30.9,41.717c.355-.084,1.943-.676,2.214-.321s1.166,1.572,1.572,2.079.3,1.149.879.93,1.589-1.014,1.605-1.842S35.8,41.481,35.579,40.45Z" transform="translate(18.383 24.429)"/><path class="i" d="M29.013,37.76c-.152.727.287.118.49.1A13.33,13.33,0,0,0,30.838,38a1.69,1.69,0,0,0,.93-.608c.152-.27.118-.372-.135-.423a2.6,2.6,0,0,0-2.62.794Z" transform="translate(19.997 25.446)"/><path class="h" d="M29.588,37.1a.693.693,0,0,0,0,.321.811.811,0,0,0,1,.473c.473-.1.811-.473.727-.828a.321.321,0,0,0,0-.135C31.075,36.708,29.655,37.1,29.588,37.1Z" transform="translate(20.403 25.434)"/><path class="h" d="M31.963,37c-.794,1.115-1.318.727-2.248.659a.406.406,0,0,0-.389.152c-.3.27-.338,0-.135-.338-.186.2-.253.439-.152.524s.169,0,.355-.118a.321.321,0,0,1,.321-.135c.963,0,1.352.456,2.129-.524Z" transform="translate(20.005 25.53)"/><path class="h" d="M29,37.876a4.766,4.766,0,0,1,2.907-.676,1.69,1.69,0,0,0,1.115-.49,1.115,1.115,0,0,1-1.048.254A2.569,2.569,0,0,0,29,37.876Z" transform="translate(20.01 25.33)"/><path class="e" d="M37.68,55.909c1.065.963,2.721-.862,3.87-.49s1.572,1.69,2.18,2.484.389,2.248,1.386,2.67,2.214-.608,3.38-.693a7.183,7.183,0,0,1,3.481.2,5.611,5.611,0,0,1,3.059,2.569c.507,1.2-1.217,2.653-.49,3.769s3.38,1.234,3.971,1.487.591-2.67.287-3.177-.946-2.789-.591-3.262l2.163-2.941A1.893,1.893,0,0,0,60.8,56.5a24.674,24.674,0,0,0-2.383-3.667,26.652,26.652,0,0,1-3.769-.592c-.794-.3-5.847-1.791-5.746-2.974a52.964,52.964,0,0,1,2.67-6.845L53.6,40.395a17,17,0,0,0-8.213,0,48.808,48.808,0,0,1-7.605-2.755,22.7,22.7,0,0,1,1.048,3.8,11.83,11.83,0,0,1-.456,3.566,52.58,52.58,0,0,0-1.487,6.236C36.767,53.1,36.6,54.946,37.68,55.909Z" transform="translate(25.391 25.972)"/><path class="c" d="M65.831,59.921a3.041,3.041,0,0,1,.541-.1c.558,0,1.1-.1,1.69-.118-2.805-4.073-2.6-2.366-4.09-12.861-.355-2.569-1.1-4.749-3.532-4.85,1.842.862,2.129,2.873,2.5,5.07C64.192,54.969,63.178,55,65.831,59.921Z" transform="translate(41.704 28.973)"/><path class="i" d="M30.1,37.34h.27a.433.433,0,0,1-.253.135,1.291,1.291,0,0,1-.27,0C29.834,37.475,29.885,37.357,30.1,37.34Z" transform="translate(20.595 25.765)"/></svg>