<svg xmlns="http://www.w3.org/2000/svg" width="105.179" height="105.123" viewBox="0 0 105.179 105.123"><defs><style>.a{fill:#a9e0fe;}.b{fill:#8ec8e8;}.b,.c,.d{fill-rule:evenodd;}.c{fill:#e0f3ff;}.d{fill:#f0f9ff;}</style></defs><g transform="translate(-0.057 -0.114)"><rect class="a" width="105" height="105" transform="translate(0.057 0.114)"/><path class="b" d="M46.157,45.079a2.441,2.441,0,0,0-2.947-.463c-1.358.779-1.052,2.81,0,3.82l1.915,1.947a.505.505,0,0,1-.168.274c-.389.253-1.884,0-4.209-1.294l-9.124-9.019c-.347-.358-.842-.979-2.526-.305a1.473,1.473,0,0,0-.547,2.1l5.683,6.083A1.915,1.915,0,0,0,32.761,49.9a1.052,1.052,0,0,0,.379.758,14.733,14.733,0,0,0,2.01,1.778,8.556,8.556,0,0,1-3.157-.663,24.972,24.972,0,0,0-3.978-1.326c-3-.337-2.526,1.894-1.6,2.81L76.7,103.275H103.89V67C91.041,54.172,78.444,41.659,76.265,39.4a2.61,2.61,0,0,0-2.389-.495c-3.062.505-3.967,1.821-5.988,3.789l-4.294-4.3c-1.631-1.736-4.767-1.052-5.262,2.1-.221,1.347-.4,6.009-.947,6.819-.831,1.242-2.62-2.1-5.588-.81a3.01,3.01,0,0,0-1.579,2.052,1.484,1.484,0,0,1-.2.41Z" transform="translate(1.346 1.961)"/><path class="c" d="M48.208,48.816c-.621-.684-1.41-3.02-2.1-3.736a2.368,2.368,0,0,0-2.947-.463c-1.358.789-1.052,2.684-.147,3.736s2.694,1.736,1.947,2.3c-.558.368-3.494-.305-8-3.841a13.186,13.186,0,0,1-3.978-4.609c-.842-1.515-1.978-3.494-4.1-2.178a1.547,1.547,0,0,0-.295,2.189c1.2,1.379,2.82.105,3.736.6.442.242.431,2.894,1.231,5.03.873,2.326,3.157,3.262,2.368,4.325-.284.358-1.052.663-3.873-.326a24.972,24.972,0,0,0-3.978-1.326c-3.62-.41-2.263,2.989-.958,3.157,2.641.284,2.578-1.21,4.82-.368,5.914,2.231,8.419,7.156,10.1,8.324,5.262,3.61,18.49,1.884,21.668.768a50.513,50.513,0,0,0,7.566-4.031c1.21-.726,2.1-1.684,1.9-3.157-.2-1.158-1.7-1.494-2.494-.053-.589,1.052-.905,2.1-1.358,2.168-1.715.358-2.568-5.346-.852-7.156,1.358-1.421,4.209-.905,4.651-1.052,3-.916,1.579-5.167-1.189-3.852-1.673.8-3.094,2.747-3.441,2.347s.716-2.336.895-2.81-.189-1.989,0-2.3c1.242-2.1,3.231-.189,5.262.253a1.831,1.831,0,0,0,2.189-1.568c0-2.168-1.41-2.547-2.957-2.284-3.157.526-4.02,1.9-6.177,3.967-.537.516-1.252.526-1.663,1.126-.726,1.052-.389,4.009-1.4,4.778a2.736,2.736,0,0,1-3.81-.579,3.157,3.157,0,0,1,.284-3.368c.873-1.052,3.452-.431,3.452-3.641,0-4.662-5.535-5.041-6.314-.705-.221,1.347-.4,6.009-.947,6.819-.831,1.242-2.62-2.1-5.588-.81a3.01,3.01,0,0,0-1.494,2.063C49.934,49.352,49.166,49.879,48.208,48.816Z" transform="translate(1.348 1.961)"/><path class="d" d="M54.667,54.585c.484-.463,1.052-2.1,1.6-2.547a2.031,2.031,0,0,1,2.284-.316,1.547,1.547,0,0,1,.126,2.6c-.81.789-2.1,1.189-1.452,1.547.431.253,2.715-.21,6.219-2.62a9.408,9.408,0,0,0,3.094-3.157c.652-1.052,1.536-2.378,3.157-1.484a.979.979,0,0,1,.263,1.5c-.937.937-2.2.074-2.915.41-.337.168-.337,1.968-.947,3.431s-2.484,2.22-1.852,2.947c.221.242.789.453,3.01-.221a22.174,22.174,0,0,1,3.094-.905c2.82-.274,1.768,2.042.747,2.1-2.1.2-2-.821-3.746-.242-4.6,1.515-3.273,3.557-4.651,4.209-3.094,1.61-15.659,1.947-17.438.895-2.968-1.778-5.567-6.409-6.377-7.156-1.052-.979-3.231-.621-3.61-.726-2.336-.674-1.189-3.578.916-2.641,1.3.547,2.41,1.873,2.684,1.6,0,0,.926-5.567-4.746-3.315A1.358,1.358,0,0,1,32.41,49.45c0-1.473,1.052-1.736,2.3-1.557a8.072,8.072,0,0,1,5.872,4.01c.916,1.494,2.1,5.5,4.767,5.072,2.357-.4,3.61-5.4,6.546-3.915a2.357,2.357,0,0,1,1.231,1.368C53.331,54.954,53.941,55.312,54.667,54.585Z" transform="translate(1.697 2.505)"/></g></svg>