<svg xmlns="http://www.w3.org/2000/svg" width="105" height="109.02" viewBox="0 0 105 109.02"><defs><style>.a{fill:#611808;opacity:0.57;}.b{fill:#360c02;opacity:0.51;}.b,.c,.d,.e,.f,.h{fill-rule:evenodd;}.c{fill:#f5e7e4;}.d{fill:#8ec8e8;}.e{fill:#fff;}.f,.g{fill:#e6cfca;}.h{fill:#fff7f5;}</style></defs><g transform="translate(0.14 -0.232)"><rect class="a" width="105" height="109" transform="translate(-0.14 0.232)"/><path class="b" d="M86.291,34.532,104.1,53.782v52.507H53.568L14.3,65.33A.412.412,0,0,1,14.161,65V63.167c0-.284.335-.295.5-.524h-.283a9.981,9.981,0,0,1-.052-4.1,7.564,7.564,0,0,1,2.42-4.96c4.3-3.387,9.43-7.451,11.767-9.319,4.925-4.01,9.723-5.659,15.633-6.555C45.28,34.543,47.522,32,51.4,32.139c9.378,0,19.73-.131,29.1-.109C83.629,32,85.243,32.795,86.291,34.532Z" transform="translate(0.676 2.963)"/><path class="c" d="M88.731,50.169l.43,12.422H75.738a6.423,6.423,0,0,0-12.123,0H34.152a6.423,6.423,0,0,0-12.133,0H14.4a9.981,9.981,0,0,1-.052-4.1,7.564,7.564,0,0,1,2.42-4.96c4.3-3.387,9.43-7.451,11.767-9.319,5.564-4.534,10.97-6.042,18-6.872L80.5,32c4.872-.12,6.161,2,6.884,6.195A113,113,0,0,1,88.731,50.169Z" transform="translate(0.677 2.96)"/><path class="d" d="M27.72,56.65a6.189,6.189,0,1,1-5.93,6.184,6.309,6.309,0,0,1,1.734-4.376,5.8,5.8,0,0,1,4.2-1.808Zm0,3.059a3.127,3.127,0,1,0,3,3.125,3.063,3.063,0,0,0-3-3.125Zm0,.765a2.362,2.362,0,1,0,2.263,2.36,2.313,2.313,0,0,0-2.263-2.36Z" transform="translate(1.041 5.241)"/><path class="c" d="M87.4,50.169l.43,12.422H74.406a6.423,6.423,0,0,0-12.123,0H42.375l.419-12.455c.115-3.1-1.132-6.97-.618-10,.723-4.2,3-8.161,7.869-8.03,9.378,0,19.73-.131,29.1-.109,4.872-.12,6.161,2,6.884,6.195A113,113,0,0,1,87.4,50.169Z" transform="translate(2.009 2.96)"/><path class="d" d="M67.41,56.65a6.189,6.189,0,1,1-5.93,6.184,6.061,6.061,0,0,1,5.93-6.184Zm0,3.059a3.127,3.127,0,1,0,3,3.125,3.193,3.193,0,0,0-.881-2.213,2.935,2.935,0,0,0-2.126-.911Zm0,.765a2.362,2.362,0,1,0,2.274,2.36,2.412,2.412,0,0,0-.667-1.673A2.217,2.217,0,0,0,67.41,60.474Z" transform="translate(2.938 5.241)"/><path class="e" d="M39.83,41.474a.985.985,0,0,1,.964,1.005v7.145a.985.985,0,0,1-.964,1.005H29.352c-1.488,0-1.31-1.409-.629-2.578a25.947,25.947,0,0,1,4.788-5.79C34.7,41.146,38.269,41.474,39.83,41.474Z" transform="translate(1.348 3.833)"/><path class="e" d="M27.258,50.393c-2-.2-4.914-.339-5.658-.776,1.561-1.235,3.248-2.5,5-3.911a52.432,52.432,0,0,1,4.568-3.54,4.468,4.468,0,0,1,2.85-.9,17.5,17.5,0,0,0-5.239,4.894,6.721,6.721,0,0,0-1.519,4.228Z" transform="translate(1.032 3.818)"/><path class="f" d="M14.664,60.05H22a7.1,7.1,0,0,0-.44,2.469c0,.142,0,.273,0,.415H14.643a.525.525,0,0,1-.5-.524V60.574a.525.525,0,0,1,.5-.524Zm19.489,0H63.606a6.869,6.869,0,0,0-.451,2.469c0,.142,0,.273,0,.415H34.593v-.415a6.87,6.87,0,0,0-.451-2.469Zm41.6,0H88.763a.525.525,0,0,1,.5.524V62.41a.525.525,0,0,1-.5.524H76.19v-.415A6.871,6.871,0,0,0,75.75,60.05Z" transform="translate(0.676 5.556)"/><path class="f" d="M82.386,39.29c2.2.175,3.961,0,4.757,2.032a23.519,23.519,0,0,1,.587,5.823c-.346-3.562-.723-5.233-1.614-6.053s-2.211-.787-3.856-.918l-32.481-.131c-4.118,0-9.179-.076-13.255.142-4.411.229-6.13,1.508-8.644,3.387,3.479-2.83,4.778-3.616,8.885-3.955,4.3-.361,8.78-.262,13.1-.273Z" transform="translate(1.332 3.635)"/><path class="d" d="M42.28,43.69H86.916c.44,3.671.629,9.647.7,13.285H42.3Z" transform="translate(2.02 4.042)"/><rect class="g" width="0.796" height="23.019" transform="translate(43.797 43.155)"/><path class="h" d="M51.19,54.41H53.4l.534-4.829.744,4.851h2.588l.712-4.818.576,4.829h2.221l-.922-8.871H56.712l-.775,4.96-.712-4.982H52.081l-.9,8.849Zm10.478.142h2.253V45.725H61.668v8.86Zm3.143-1.846a1.846,1.846,0,0,0,.519,1.422,1.687,1.687,0,0,0,1.377.5h3.447V52.6h-2.4c-.335,0-.723,0-.723-.634V45.769H64.78v6.938ZM70.9,54.683h2.1V51.319h.451l1.823,3.463h2.588L75.52,50.335l2.337-4.37H75.269l-1.739,3.354h-.461V45.856h-2.1Z" transform="translate(2.446 4.214)"/></g></svg>