<svg width="101" height="100" viewBox="0 0 101 100" fill="none" xmlns="http://www.w3.org/2000/svg">
<path d="M100 0H0V100H100V0Z" fill="#9A7168"/>
<path fill-rule="evenodd" clip-rule="evenodd" d="M32.4603 71.53C31.9634 70.7411 31.7516 69.8059 31.8603 68.88L31.7803 51.73C31.8008 49.7932 32.2159 47.8809 33.0003 46.11C33.9108 43.9669 34.5069 41.7035 34.7703 39.39C34.8303 38.81 34.8603 38.19 34.8803 37.5C34.4603 37.5 34.4503 36.72 34.8803 36.72V36.58L34.7803 36.64V35.64C34.7803 35.64 34.8603 35.55 34.9803 35.51V35.29C35.0303 35.04 36.7303 35.36 38.3703 35.29H41.0203L44.3003 39.57C46.1203 38.77 46.0203 33.21 46.1003 32.43C46.1803 31.65 46.2103 30.96 46.2303 30.13C45.7203 30.13 45.7103 29.18 46.2303 29.18V29L46.1103 29.07V27.8C46.1103 27.74 46.2103 27.69 46.3503 27.64V27.37C46.4203 27.07 48.0403 26.83 50.0303 26.83C52.0203 26.83 53.6403 27.07 53.7103 27.37L60.1103 34.69L60.9503 34.85C61.301 34.7347 61.6795 34.7347 62.0303 34.85L65.0303 35.3L100.03 70.52V100H60.7703C46.6103 85.79 32.6903 71.76 32.4603 71.53Z" fill="#663D33"/>
<path fill-rule="evenodd" clip-rule="evenodd" d="M64.9403 35.71L65.1003 35.87C65.1003 36.17 65.1003 36.45 65.1003 36.72C65.2037 36.72 65.3029 36.7611 65.376 36.8342C65.4492 36.9073 65.4903 37.0065 65.4903 37.11C65.4903 37.2134 65.4492 37.3126 65.376 37.3857C65.3029 37.4589 65.2037 37.5 65.1003 37.5C65.1003 38.19 65.1503 38.81 65.2103 39.39C65.48 41.7045 66.0829 43.9679 67.0003 46.11C67.7915 47.8795 68.2135 49.7918 68.2403 51.73L68.1603 68.88C68.236 69.7579 68.059 70.6393 67.6503 71.42C66.8703 72.55 64.3703 73 61.8903 73C59.4103 73 57.1103 72.55 56.3703 71.46C55.9615 70.6793 55.7846 69.798 55.8603 68.92L55.7803 51.77C55.7953 49.8197 56.2106 47.8933 57.0003 46.11C57.9108 43.9669 58.5069 41.7035 58.7703 39.39C58.8303 38.81 58.8603 38.19 58.8803 37.5C58.4603 37.5 58.4503 36.72 58.8803 36.72C58.8803 36.72 58.8803 35.95 58.8803 35.87L59.0403 35.71C61.3803 35.64 62.6203 35.64 64.9403 35.71Z" fill="#A9E0FE"/>
<path fill-rule="evenodd" clip-rule="evenodd" d="M65.3803 40.67C65.7325 42.5341 66.2754 44.357 67.0003 46.11C67.7915 47.8795 68.2135 49.7919 68.2403 51.73L68.1603 68.88C68.236 69.758 68.059 70.6393 67.6503 71.42C66.8703 72.55 64.3703 73 61.8903 73C59.4103 73 57.1103 72.55 56.3703 71.46C55.9615 70.6793 55.7846 69.798 55.8603 68.92L55.7803 51.77C55.7953 49.8198 56.2106 47.8933 57.0003 46.11C57.7184 44.3562 58.2545 42.5333 58.6003 40.67C59.7215 40.4647 60.8607 40.3743 62.0003 40.4C63.1332 40.3756 64.2656 40.4661 65.3803 40.67V40.67Z" fill="#F0F9FF"/>
<path fill-rule="evenodd" clip-rule="evenodd" d="M62 34.79C63.64 34.79 65 34.99 65 35.24V36.33C64.042 35.976 63.0173 35.8394 62 35.93C60.9827 35.8394 59.958 35.976 59 36.33V36.33V35.26C59 35 60.36 34.79 62 34.79Z" fill="#78230F"/>
<path fill-rule="evenodd" clip-rule="evenodd" d="M61.9996 35.2C63.7396 35.2 65.1696 35.38 65.2196 35.61V36.61C64.1781 36.2906 63.0848 36.1752 61.9996 36.27C60.9224 36.1887 59.8396 36.3143 58.8096 36.6399V36.6399V35.6399C58.8296 35.3799 60.2496 35.2 61.9996 35.2Z" fill="#C8553A"/>
<path fill-rule="evenodd" clip-rule="evenodd" d="M58.0898 51.8L58.7198 46.17L59.3398 40.55C59.6598 40.55 59.9398 40.48 60.2598 40.46L59.1798 46.17L58.0898 51.8Z" fill="white"/>
<path fill-rule="evenodd" clip-rule="evenodd" d="M64.94 35.71L65.1 35.87C65.1 36.17 65.1 36.45 65.1 36.72C65.2034 36.72 65.3026 36.7611 65.3758 36.8342C65.4489 36.9074 65.49 37.0066 65.49 37.11C65.49 37.2134 65.4489 37.3126 65.3758 37.3858C65.3026 37.4589 65.2034 37.5 65.1 37.5C65.1 38.19 65.15 38.81 65.21 39.39C65.4797 41.7045 66.0826 43.9679 67 46.11C67.7913 47.8795 68.2132 49.7918 68.24 51.73L68.16 68.88C68.2357 69.758 68.0588 70.6393 67.65 71.42C66.88 72.53 64.44 73 62 73L65.72 52.36L62 40.43V36.23L62.76 35.93C63.65 35.93 63.78 35.67 64.94 35.71Z" fill="#8EC8E8"/>
<path fill-rule="evenodd" clip-rule="evenodd" d="M65.38 40.67C65.7322 42.534 66.2751 44.357 67 46.11C67.7913 47.8795 68.2132 49.7918 68.24 51.73L68.16 68.88C68.2357 69.758 68.0588 70.6393 67.65 71.42C66.88 72.53 64.44 73 62 73V40.4C63.1329 40.3756 64.2653 40.466 65.38 40.67V40.67Z" fill="#E0F3FF"/>
<path fill-rule="evenodd" clip-rule="evenodd" d="M62 34.79C63.64 34.79 65 34.99 65 35.24V36.33C64.042 35.976 63.0173 35.8394 62 35.93V34.79Z" fill="#611808"/>
<path fill-rule="evenodd" clip-rule="evenodd" d="M62 35.2C63.74 35.2 65.17 35.38 65.22 35.61V36.61C64.1785 36.2906 63.0852 36.1752 62 36.27V35.2Z" fill="#C8553A"/>
<path fill-rule="evenodd" clip-rule="evenodd" d="M40.9403 35.71L41.1003 35.87C41.1003 36.17 41.1003 36.45 41.1003 36.72C41.2037 36.72 41.3029 36.7611 41.376 36.8342C41.4492 36.9073 41.4903 37.0065 41.4903 37.11C41.4903 37.2134 41.4492 37.3126 41.376 37.3857C41.3029 37.4589 41.2037 37.5 41.1003 37.5C41.1003 38.19 41.1003 38.81 41.2103 39.39C41.48 41.7045 42.0829 43.9679 43.0003 46.11C43.7915 47.8795 44.2135 49.7918 44.2403 51.73L44.1603 68.88C44.236 69.7579 44.059 70.6393 43.6503 71.42C42.8703 72.55 40.3703 73 37.8903 73C35.4103 73 33.1103 72.55 32.3703 71.46C31.9615 70.6793 31.7845 69.798 31.8603 68.92L31.7803 51.77C31.7953 49.8197 32.2106 47.8933 33.0003 46.11C33.9108 43.9669 34.5069 41.7035 34.7703 39.39C34.8303 38.81 34.8603 38.19 34.8803 37.5C34.4603 37.5 34.4503 36.72 34.8803 36.72C34.8803 36.72 34.8803 35.95 34.8803 35.87L35.0403 35.71C37.3803 35.64 38.6203 35.64 40.9403 35.71Z" fill="#A9E0FE"/>
<path fill-rule="evenodd" clip-rule="evenodd" d="M41.3803 40.67C41.7325 42.5341 42.2754 44.357 43.0003 46.11C43.7915 47.8795 44.2135 49.7919 44.2403 51.73L44.1603 68.88C44.236 69.758 44.059 70.6393 43.6503 71.42C42.8703 72.55 40.3703 73 37.8903 73C35.4103 73 33.1103 72.55 32.3703 71.46C31.9615 70.6793 31.7845 69.798 31.8603 68.92L31.7803 51.77C31.7953 49.8198 32.2106 47.8933 33.0003 46.11C33.7184 44.3562 34.2545 42.5333 34.6003 40.67C35.7215 40.4647 36.8607 40.3743 38.0003 40.4C39.1332 40.3756 40.2656 40.4661 41.3803 40.67V40.67Z" fill="#F0F9FF"/>
<path fill-rule="evenodd" clip-rule="evenodd" d="M38 34.79C39.64 34.79 41 34.99 41 35.24V36.33C40.042 35.976 39.0173 35.8394 38 35.93C36.9827 35.8394 35.958 35.976 35 36.33V36.33V35.26C35 35 36.36 34.79 38 34.79Z" fill="#78230F"/>
<path fill-rule="evenodd" clip-rule="evenodd" d="M37.9996 35.2C39.7496 35.2 41.1696 35.38 41.2196 35.61V36.61C40.1781 36.2906 39.0848 36.1752 37.9996 36.27C36.9224 36.1887 35.8396 36.3143 34.8096 36.6399V36.6399V35.6399C34.8296 35.3799 36.2596 35.2 37.9996 35.2Z" fill="#C8553A"/>
<path fill-rule="evenodd" clip-rule="evenodd" d="M34.0898 51.8L34.7198 46.17L35.3498 40.55C35.6515 40.5046 35.9552 40.4745 36.2598 40.46L35.1798 46.17L34.0898 51.8Z" fill="white"/>
<path fill-rule="evenodd" clip-rule="evenodd" d="M40.94 35.71L41.1 35.87C41.1 36.17 41.1 36.45 41.1 36.72C41.2034 36.72 41.3026 36.7611 41.3758 36.8342C41.4489 36.9074 41.49 37.0066 41.49 37.11C41.49 37.2134 41.4489 37.3126 41.3758 37.3858C41.3026 37.4589 41.2034 37.5 41.1 37.5C41.1 38.19 41.1 38.81 41.21 39.39C41.4797 41.7045 42.0826 43.9679 43 46.11C43.7913 47.8795 44.2132 49.7918 44.24 51.73L44.16 68.88C44.2357 69.758 44.0588 70.6393 43.65 71.42C42.88 72.53 40.44 73 38 73L41.72 52.36L38 40.43V36.23L38.76 35.93C39.65 35.93 39.78 35.67 40.94 35.71Z" fill="#8EC8E8"/>
<path fill-rule="evenodd" clip-rule="evenodd" d="M41.38 40.67C41.7322 42.534 42.2751 44.357 43 46.11C43.7913 47.8795 44.2132 49.7918 44.24 51.73L44.16 68.88C44.2357 69.758 44.0588 70.6393 43.65 71.42C42.88 72.53 40.44 73 38 73V40.4C39.1329 40.3756 40.2653 40.466 41.38 40.67V40.67Z" fill="#E0F3FF"/>
<path fill-rule="evenodd" clip-rule="evenodd" d="M38 34.79C39.64 34.79 41 34.99 41 35.24V36.33C40.042 35.976 39.0173 35.8394 38 35.93V34.79Z" fill="#611808"/>
<path fill-rule="evenodd" clip-rule="evenodd" d="M38 35.2C39.75 35.2 41.17 35.38 41.22 35.61V36.61C40.1785 36.2906 39.0852 36.1752 38 36.27V35.2Z" fill="#964836"/>
<path fill-rule="evenodd" clip-rule="evenodd" d="M53.5699 27.9L53.7699 28.1C53.7699 28.46 53.7699 28.8 53.7699 29.1C53.8841 29.1166 53.9884 29.1738 54.0638 29.261C54.1393 29.3482 54.1808 29.4597 54.1808 29.575C54.1808 29.6904 54.1393 29.8018 54.0638 29.8891C53.9884 29.9763 53.8841 30.0334 53.7699 30.05C53.7699 30.88 53.8299 31.64 53.8999 32.35C54.2294 35.1619 54.9566 37.9127 56.0599 40.52C57.012 42.6734 57.5221 44.9959 57.5599 47.35L57.4699 68.22C57.5581 69.2846 57.3431 70.3524 56.8499 71.3C55.9199 72.68 52.8499 73.2 49.8499 73.18C46.8499 73.16 44.0299 72.64 43.1299 71.3C42.6367 70.3524 42.4218 69.2846 42.5099 68.22L42.4199 47.35C42.4578 44.9959 42.9679 42.6734 43.9199 40.52C45.0232 37.9127 45.7505 35.1619 46.0799 32.35C46.1499 31.64 46.1899 30.88 46.2099 30.05C45.6999 30.05 45.6899 29.1 46.2099 29.1C46.2099 29.1 46.2099 28.16 46.2099 28.1L46.4099 27.9C49.2499 27.81 50.7499 27.81 53.5699 27.9Z" fill="#A9E0FE"/>
<path fill-rule="evenodd" clip-rule="evenodd" d="M54.1097 33.93C54.5455 36.2 55.2158 38.4185 56.1097 40.55C57.0618 42.7034 57.5719 45.0259 57.6097 47.38L57.5197 68.25C57.6079 69.3146 57.3929 70.3825 56.8997 71.33C55.9697 72.71 52.8997 73.23 49.8997 73.21C46.8997 73.19 44.0797 72.67 43.1797 71.33C42.6865 70.3825 42.4716 69.3146 42.5597 68.25L42.4697 47.38C42.5076 45.0259 43.0177 42.7034 43.9697 40.55C44.8637 38.4185 45.5339 36.2 45.9697 33.93C47.2995 33.6928 48.6492 33.5857 49.9997 33.61C51.3769 33.5804 52.7537 33.6876 54.1097 33.93V33.93Z" fill="#F0F9FF"/>
<path fill-rule="evenodd" clip-rule="evenodd" d="M50.0004 26.79C52.0004 26.79 53.6104 27.03 53.6804 27.33V28.66C53.4204 28.38 51.8904 28.18 50.0404 28.18C48.1904 28.18 46.6604 28.38 46.4004 28.66V27.35C46.3904 27 48.0004 26.79 50.0004 26.79Z" fill="#78230F"/>
<path fill-rule="evenodd" clip-rule="evenodd" d="M50.0001 27.27C52.1201 27.27 53.8501 27.5 53.9201 27.78V29C52.652 28.6121 51.3216 28.4695 50.0001 28.58C48.69 28.4843 47.3736 28.637 46.1201 29.03V29.03V27.8C46.1501 27.5 47.8801 27.27 50.0001 27.27Z" fill="#C8553A"/>
<path fill-rule="evenodd" clip-rule="evenodd" d="M45.25 47.4701L46 40.6301L46.76 33.7801C47.15 33.7301 47.49 33.7001 47.88 33.6801L46.56 40.6801L45.25 47.4701Z" fill="white"/>
<path fill-rule="evenodd" clip-rule="evenodd" d="M53.57 27.9L53.77 28.1C53.77 28.46 53.77 28.8 53.77 29.1C53.8841 29.1167 53.9885 29.1738 54.0639 29.261C54.1394 29.3482 54.1809 29.4597 54.1809 29.575C54.1809 29.6904 54.1394 29.8019 54.0639 29.8891C53.9885 29.9763 53.8841 30.0334 53.77 30.05C53.77 30.88 53.83 31.64 53.9 32.35C54.2294 35.1619 54.9567 37.9128 56.06 40.52C57.0121 42.6734 57.5221 44.9959 57.56 47.35L57.47 68.22C57.5581 69.2847 57.3432 70.3525 56.85 71.3C55.94 72.69 53 73.22 50 73.21L54.52 48.1L50 33.65V28.53L50.93 28.17C52 28.17 52.16 27.86 53.57 27.9Z" fill="#8EC8E8"/>
<path fill-rule="evenodd" clip-rule="evenodd" d="M54.11 33.93C54.5458 36.2 55.2161 38.4185 56.11 40.55C57.0621 42.7034 57.5721 45.0259 57.61 47.38L57.52 68.25C57.6081 69.3146 57.3932 70.3825 56.9 71.33C55.94 72.69 53 73.22 50 73.21V33.61C51.3772 33.5804 52.754 33.6876 54.11 33.93V33.93Z" fill="#E0F3FF"/>
<path fill-rule="evenodd" clip-rule="evenodd" d="M50 26.79C52 26.79 53.61 27.03 53.68 27.33V28.66C53.42 28.38 51.89 28.18 50.04 28.18L50 26.79Z" fill="#611808"/>
<path fill-rule="evenodd" clip-rule="evenodd" d="M50 27.27C52.12 27.27 53.85 27.5 53.92 27.78V29C52.6519 28.6121 51.3215 28.4695 50 28.58V27.27Z" fill="#C8553A"/>
</svg>
