<svg xmlns="http://www.w3.org/2000/svg" width="107.104" height="108" viewBox="0 0 107.104 108"><defs><style>.a{fill:#f5e7e4;}.b{fill:#e6cfca;}.b,.c,.d,.e,.f,.g,.h,.i,.j,.k{fill-rule:evenodd;}.c{fill:#a9e0fe;}.d{fill:#f0f9ff;}.e{fill:#78230f;}.f{fill:#ad5e4c;}.g{fill:#fff;}.h{fill:#8ec8e8;}.i{fill:#e0f3ff;}.j{fill:#611808;}.k{fill:#964836;}</style></defs><g transform="translate(0.097 0.463)"><rect class="a" width="107" height="108" transform="translate(-0.097 -0.463)"/><path class="b" d="M43.051,75.117a6.206,6.206,0,0,1-.674-3.381L42.27,48.793A19.2,19.2,0,0,1,43.918,41.3a32.434,32.434,0,0,0,2.343-9.01c.075-.781.128-1.605.15-2.525-.567,0-.578-1.07,0-1.07a.578.578,0,0,0,0-.193.535.535,0,0,0-.139.075h0V27.241c0-.064.107-.128.268-.182v-.31c.075-.332,1.862-.6,4.045-.6s3.97.268,4.045.6l49.416,49.758v28.667H73.067Z" transform="translate(2.962 1.832)"/><path class="c" d="M54.474,27.3l.214.214v1.145a.535.535,0,1,1,0,1.07c0,.92.075,1.744.15,2.525a32.434,32.434,0,0,0,2.376,8.989,19.2,19.2,0,0,1,1.648,7.491l-.107,22.942a6.207,6.207,0,0,1-.717,3.371c-1.017,1.52-4.366,2.14-7.683,2.076s-6.42-.6-7.384-2.076A6.206,6.206,0,0,1,42.3,71.66L42.19,48.718a19.2,19.2,0,0,1,1.648-7.491,32.434,32.434,0,0,0,2.429-9.01c.075-.781.128-1.605.15-2.525-.567,0-.578-1.07,0-1.07V27.477l.214-.214C49.723,27.2,51.371,27.2,54.474,27.3Z" transform="translate(2.956 1.907)"/><path class="d" d="M55.063,33.514A36.949,36.949,0,0,0,57.2,40.79a19.2,19.2,0,0,1,1.648,7.491l-.107,22.942a6.206,6.206,0,0,1-.706,3.4c-1.017,1.52-4.366,2.14-7.683,2.076s-6.42-.6-7.384-2.076a6.206,6.206,0,0,1-.674-3.381L42.19,48.3a19.2,19.2,0,0,1,1.648-7.491,36.95,36.95,0,0,0,2.14-7.276,22.407,22.407,0,0,1,4.569-.375A22.407,22.407,0,0,1,55.063,33.514Z" transform="translate(2.956 2.323)"/><path class="e" d="M50.259,26.15c2.14,0,3.97.268,4.045.6h0V28.2h0c-.289-.3-1.969-.535-4-.535s-3.713.235-4,.535h0V26.771h0C46.289,26.418,48.119,26.15,50.259,26.15Z" transform="translate(3.244 1.832)"/><path class="f" d="M50.28,26.65c2.333,0,4.28.246,4.28.556h0v1.348h0a11.418,11.418,0,0,0-4.28-.46,11.418,11.418,0,0,0-4.28.492h0V27.228h0C46,26.9,47.948,26.65,50.28,26.65Z" transform="translate(3.223 1.867)"/><path class="g" d="M45.12,48.389l.835-7.491.835-7.491a11.962,11.962,0,0,1,1.231-.118l-1.455,7.64Z" transform="translate(3.162 2.333)"/><path class="h" d="M53.927,27.29l.214.214v1.145a.535.535,0,1,1,0,1.07c0,.92.075,1.744.15,2.525a32.434,32.434,0,0,0,2.376,8.989,19.2,19.2,0,0,1,1.648,7.491l-.107,22.942a6.207,6.207,0,0,1-.717,3.371c-1.006,1.5-4.28,2.14-7.491,2.076L54.976,49.5,50,33.614V27.986l1.07-.4C52.2,27.59,52.376,27.247,53.927,27.29Z" transform="translate(3.504 1.912)"/><path class="i" d="M54.516,33.514a36.949,36.949,0,0,0,2.14,7.277A19.2,19.2,0,0,1,58.3,48.281L58.2,71.223a6.206,6.206,0,0,1-.706,3.4c-1.006,1.5-4.28,2.14-7.491,2.076V33.16A22.407,22.407,0,0,1,54.516,33.514Z" transform="translate(3.504 2.323)"/><path class="j" d="M50,26.15c2.14,0,3.97.268,4.045.6h0V28.2h0c-.289-.3-1.969-.535-4-.535Z" transform="translate(3.504 1.832)"/><path class="k" d="M50,26.65c2.333,0,4.28.246,4.28.556h0v1.348h0a11.418,11.418,0,0,0-4.28-.46Z" transform="translate(3.504 1.867)"/></g></svg>