<svg xmlns="http://www.w3.org/2000/svg" width="104" height="104" viewBox="0 0 104 104"><defs><style>.a{fill:#f5e7e4;}.b{fill:#e6cfca;}.b,.c,.d,.e,.f{fill-rule:evenodd;}.c{fill:#a9e0fe;}.d{fill:#fff;}.e{fill:#8ec8e8;}.f{fill:#e0f3ff;}</style></defs><g transform="translate(0.157 -0.071)"><rect class="a" width="104" height="104" transform="translate(-0.157 0.071)"/><path class="b" d="M36.391,35.812a17.417,17.417,0,0,1-.239,6.934c-.965,4.557-4.754,13.1-3.571,17.2L35.7,70.823,67.873,102.71h34.71V66.5L67.925,32.127c-2.657-3.207-7.141-3.83-11.418-.654a3.021,3.021,0,0,0-.7-.384c-.093-.654-.644-1.038-2.076-1.422-4.38-1.2-11.241-1.256-15.912-.623-3.332.446-5.958,1.339-5.823,2.813a.54.54,0,0,0,.228.446Z" transform="translate(1.215 0.953)"/><path class="c" d="M53.748,29.707c-4.38-1.2-11.241-1.256-15.912-.623-3.332.446-5.958,1.339-5.823,2.813a.6.6,0,0,0,.716.561c2.076-.125,3.228,1.609,3.664,3.114a17.563,17.563,0,0,1-.208,7.162c-.965,4.557-4.9,11.418-5.055,15.715-.187,5.19,1.671,10.816,6.145,13.431,2.377,1.391,14.386,1.391,16.763,0,4.38-2.564,6.228-7.972,6.155-13.11a14.054,14.054,0,0,0,4.526-4.349c3.757-5.034,6.923-12.778,5.034-18.881s-8.3-8.3-14.034-3.4c.311-1.37,0-1.879-1.972-2.439ZM58.44,51.941c-1.235-3.207-2.761-6.581-3.311-9.2-.228-1.038-.727-4.422-.363-5.47,1.7-4.91,9.508-7.889,12.394-1.889,1.983,4.152-.187,13-4.152,15.321C61.408,51.661,59.82,51.4,58.44,51.941Z" transform="translate(1.182 1.033)"/><path class="d" d="M36.875,37.542a18.03,18.03,0,0,1-.415,5.273c-.945,4.422-4.754,11.106-4.91,15.238-.176,5.076,1.63,10.494,5.958,13.027,2.3,1.349,13.961,1.349,16.265,0,4.328-2.533,6.134-7.951,5.958-13.027-.156-4.152-3.965-10.816-4.91-15.238a18.03,18.03,0,0,1-.415-5.273,22.836,22.836,0,0,0-8.761-1.391,22.836,22.836,0,0,0-8.771,1.391Z" transform="translate(1.198 1.309)"/><path class="e" d="M53.216,29.708A35.178,35.178,0,0,0,45.13,28.67V72.94c3.591,0,7.193-.353,8.377-1.038,4.38-2.564,6.228-7.972,6.155-13.11a14.054,14.054,0,0,0,4.526-4.349c3.758-5.034,6.923-12.778,5.034-18.881s-8.3-8.3-14.034-3.4c.311-1.37,0-1.879-1.972-2.439Zm4.692,22.234c-1.235-3.207-2.761-6.581-3.311-9.2-.228-1.038-.727-4.422-.363-5.47,1.7-4.91,9.508-7.889,12.394-1.889,1.983,4.152-.187,13-4.152,15.321C60.876,51.661,59.288,51.4,57.908,51.942Z" transform="translate(1.714 1.033)"/><path class="f" d="M45.13,72.1c3.488,0,6.975-.343,8.127-1.038,4.328-2.533,6.134-7.951,5.958-13.027-.156-4.152-3.965-10.816-4.91-15.238a18.03,18.03,0,0,1-.415-5.273,22.836,22.836,0,0,0-8.761-1.391Z" transform="translate(1.714 1.308)"/></g></svg>