<svg  viewBox="0 0 830 246" fill="none" xmlns="http://www.w3.org/2000/svg">
<path d="M824.1 216.9C824.1 229.9 813.6 240.5 800.5 240.5H29.0004C16.0004 240.5 5.40039 230 5.40039 216.9V29.1C5.40039 16.1 16.0004 5.5 29.0004 5.5H800.5C813.5 5.5 824.1 16.1 824.1 29.1V216.9Z" fill="white"/>
<path d="M800.6 245.9H29.1C13.1 245.9 0 232.9 0 216.9V29.1C0 13.1 13 0 29.1 0H800.6C816.6 0 829.7 13 829.7 29.1V216.9C829.6 232.9 816.6 245.9 800.6 245.9Z" fill="#A6A6A6"/>
<path d="M824.1 216.9C824.1 229.9 813.6 240.5 800.5 240.5H29.0004C16.0004 240.5 5.40039 230 5.40039 216.9V29.1C5.40039 16.1 16.0004 5.5 29.0004 5.5H800.5C813.5 5.5 824.1 16.1 824.1 29.1V216.9Z" fill="black"/>
<path d="M185.2 121.7C185 101.9 201.4 92.2 202.2 91.8C192.9 78.3 178.5 76.4 173.4 76.3C161.3 75 149.6 83.5 143.4 83.5C137.1 83.5 127.6 76.4 117.4 76.6C104.2 76.8 91.9003 84.4 85.2003 96.3C71.3003 120.4 81.7003 155.9 95.0003 175.4C101.7 185 109.5 195.6 119.7 195.2C129.7 194.8 133.4 188.8 145.5 188.8C157.4 188.8 161 195.2 171.4 194.9C182.1 194.7 188.9 185.3 195.3 175.7C203 164.8 206.1 154 206.2 153.4C206 153.3 185.4 145.4 185.2 121.7Z" fill="white"/>
<path d="M165.499 63.4001C170.899 56.7001 174.599 47.5 173.499 38.3C165.699 38.6 156 43.7 150.4 50.3C145.4 56.1 140.999 65.6 142.199 74.5C150.999 75.1 159.899 70.0001 165.499 63.4001Z" fill="white"/>
<path d="M800.6 0H387.4L549.3 245.9H800.7C816.7 245.9 829.8 232.9 829.8 216.9V29.1C829.6 13.1 816.6 0 800.6 0Z" fill="url(#paint0_linear)"/>
<path d="M330 193.7H316L308.4 169.7H281.7L274.4 193.7H260.8L287.1 111.9H303.4L330 193.7ZM306 159.6L299.1 138.2C298.4 136 297 130.9 295 122.8H294.8C294 126.3 292.7 131.4 290.9 138.2L284.1 159.6H306Z" fill="white"/>
<path d="M397.6 163.5C397.6 173.5 394.9 181.5 389.4 187.3C384.5 192.5 378.4 195.1 371.2 195.1C363.4 195.1 357.8 192.3 354.4 186.7V217.7H341.3V154.2C341.3 147.9 341.1 141.4 340.8 134.8H352.3L353 144.2H353.2C357.6 137.2 364.2 133.6 373.1 133.6C380.1 133.6 385.9 136.3 390.5 141.9C395.2 147.3 397.6 154.5 397.6 163.5ZM384.2 164C384.2 158.3 382.9 153.5 380.3 149.8C377.5 145.9 373.7 144 368.9 144C365.7 144 362.7 145.1 360.1 147.2C357.5 149.4 355.7 152.2 354.9 155.6C354.5 157.2 354.3 158.5 354.3 159.6V169.4C354.3 173.7 355.6 177.3 358.2 180.3C360.8 183.3 364.3 184.7 368.5 184.7C373.4 184.7 377.3 182.8 380 179C382.8 175.2 384.2 170.2 384.2 164Z" fill="white"/>
<path d="M465.4 163.5C465.4 173.5 462.7 181.5 457.2 187.3C452.3 192.5 446.2 195.1 439 195.1C431.2 195.1 425.6 192.3 422.2 186.7V217.7H409.1V154.2C409.1 147.9 408.9 141.4 408.6 134.8H420.1L420.8 144.2H421C425.4 137.2 432 133.6 440.9 133.6C447.9 133.6 453.7 136.3 458.3 141.9C463.1 147.3 465.4 154.5 465.4 163.5ZM452.1 164C452.1 158.3 450.8 153.5 448.2 149.8C445.4 145.9 441.6 144 436.8 144C433.6 144 430.6 145.1 428 147.2C425.4 149.4 423.7 152.2 422.8 155.6C422.4 157.2 422.2 158.5 422.2 159.6V169.4C422.2 173.7 423.5 177.3 426.1 180.3C428.7 183.2 432.2 184.7 436.4 184.7C441.3 184.7 445.2 182.8 447.9 179C450.7 175.2 452.1 170.2 452.1 164Z" fill="white"/>
<path d="M541.3 170.8C541.3 177.8 538.9 183.4 534 187.8C528.7 192.6 521.2 195 511.7 195C502.9 195 495.8 193.3 490.5 189.9L493.5 179C499.2 182.4 505.6 184.1 512.4 184.1C517.3 184.1 521.2 183 523.9 180.8C526.6 178.6 528 175.6 528 171.9C528 168.6 526.9 165.8 524.6 163.5C522.3 161.2 518.6 159.1 513.3 157.2C499 151.9 491.8 144 491.8 133.8C491.8 127.1 494.3 121.6 499.4 117.3C504.5 113 511.2 110.9 519.5 110.9C526.9 110.9 533.2 112.2 538.1 114.8L534.8 125.5C530.2 123 524.9 121.7 519.1 121.7C514.5 121.7 510.8 122.8 508.3 125.1C506.1 127.1 505 129.6 505 132.5C505 135.7 506.3 138.4 508.8 140.5C511 142.4 514.9 144.5 520.7 146.8C527.7 149.6 532.9 152.9 536.2 156.7C539.7 160.4 541.3 165.1 541.3 170.8Z" fill="white"/>
<path d="M584.8 144.6H570.3V173.2C570.3 180.5 572.8 184.1 577.9 184.1C580.2 184.1 582.2 183.9 583.7 183.5L584.1 193.5C581.5 194.5 578.1 195 573.9 195C568.7 195 564.7 193.4 561.8 190.3C558.9 187.1 557.4 181.8 557.4 174.4V144.6H548.8V134.8H557.4V124L570.3 120.1V134.8H584.8C584.8 134.7 584.8 144.6 584.8 144.6Z" fill="white"/>
<path d="M649.9 163.8C649.9 172.9 647.3 180.3 642.1 186.1C636.7 192.1 629.5 195.1 620.5 195.1C611.8 195.1 604.9 192.2 599.8 186.5C594.7 180.8 592.1 173.5 592.1 164.8C592.1 155.7 594.8 148.2 600.1 142.3C605.4 136.5 612.6 133.6 621.5 133.6C630.2 133.6 637.1 136.5 642.4 142.2C647.3 147.7 649.9 154.9 649.9 163.8ZM636.3 164.1C636.3 158.7 635.1 154.1 632.8 150.2C630.1 145.5 626.1 143.2 621 143.2C615.7 143.2 611.7 145.5 609 150.2C606.7 154.1 605.5 158.8 605.5 164.4C605.5 169.8 606.7 174.5 609 178.3C611.8 183 615.8 185.3 620.9 185.3C625.9 185.3 629.8 182.9 632.7 178.2C635 174.1 636.3 169.5 636.3 164.1Z" fill="white"/>
<path d="M692.499 146.3C691.199 146.1 689.799 145.9 688.399 145.9C683.799 145.9 680.199 147.6 677.699 151.1C675.499 154.2 674.399 158.1 674.399 162.8V193.8H661.299V153.4C661.299 146.6 661.199 140.4 660.899 134.8H672.299L672.799 146.1H673.199C674.599 142.2 676.799 139.1 679.799 136.7C682.699 134.6 685.899 133.5 689.299 133.5C690.499 133.5 691.599 133.6 692.599 133.7L692.499 146.3Z" fill="white"/>
<path d="M751.1 161.4C751.1 163.7 750.9 165.7 750.6 167.3H711.3C711.4 173.1 713.4 177.6 717 180.7C720.3 183.4 724.6 184.8 729.9 184.8C735.7 184.8 741 183.9 745.8 182L747.9 191.1C742.3 193.5 735.7 194.7 728.1 194.7C719 194.7 711.8 192 706.5 186.6C701.3 181.2 698.7 174 698.7 164.9C698.7 156 701.1 148.6 706 142.7C711.1 136.4 718 133.2 726.6 133.2C735.1 133.2 741.5 136.4 745.9 142.7C749.4 147.9 751.1 154.1 751.1 161.4ZM738.6 158C738.7 154.1 737.8 150.8 736.1 147.9C733.8 144.2 730.3 142.4 725.7 142.4C721.4 142.4 717.9 144.2 715.3 147.7C713.1 150.5 711.8 153.9 711.4 157.9L738.6 158Z" fill="white"/>
<path d="M299.7 82.6001H292.8L289 70.8001H275.9L272.3 82.6001H265.6L278.5 42.4001H286.5L299.7 82.6001ZM288 65.9001L284.6 55.4001C284.2 54.3001 283.6 51.8001 282.6 47.8001H282.5C282.1 49.5001 281.5 52.0001 280.6 55.4001L277.3 65.9001H288Z" fill="white"/>
<path d="M332.099 53.6001L321.099 82.6001H314.799L304.199 53.6001H311.099L316.099 68.9001C316.899 71.5001 317.599 73.9001 318.199 76.2001H318.399C318.899 74.1001 319.599 71.7001 320.499 68.9001L325.399 53.6001C325.299 53.6001 332.099 53.6001 332.099 53.6001Z" fill="white"/>
<path d="M355.499 82.6L354.999 79.2999H354.799C352.799 81.9999 349.999 83.2999 346.299 83.2999C341.099 83.2999 337.399 79.6999 337.399 74.7999C337.399 67.5999 343.599 63.9 354.299 63.9V63.4C354.299 59.6 352.299 57.7 348.299 57.7C345.399 57.7 342.899 58.4 340.699 59.9L339.399 55.7C342.099 54 345.399 53.2 349.399 53.2C356.999 53.2 360.799 57.2 360.799 65.2V75.9C360.799 78.8 360.899 81.0999 361.199 82.7999L355.499 82.6ZM354.599 68.2C347.399 68.2 343.899 69.8999 343.899 73.9999C343.899 76.9999 345.799 78.4999 348.299 78.4999C351.599 78.4999 354.599 76 354.599 72.6C354.599 72.7 354.599 68.2 354.599 68.2Z" fill="white"/>
<path d="M375.199 48.8001C373.099 48.8001 371.399 47.1001 371.399 44.9001C371.399 42.7001 373.099 41.1001 375.299 41.1001C377.499 41.1001 379.299 42.7001 379.199 44.9001C379.299 47.3001 377.599 48.8001 375.199 48.8001ZM378.499 82.6001H372.099V53.6001H378.499V82.6001Z" fill="white"/>
<path d="M396.4 82.6001H390V40.3H396.4V82.6001Z" fill="white"/>
<path d="M423.799 82.6L423.299 79.2999H423.099C421.099 81.9999 418.299 83.2999 414.599 83.2999C409.399 83.2999 405.699 79.6999 405.699 74.7999C405.699 67.5999 411.899 63.9 422.599 63.9V63.4C422.599 59.6 420.599 57.7 416.599 57.7C413.699 57.7 411.199 58.4 408.999 59.9L407.699 55.7C410.399 54 413.699 53.2 417.699 53.2C425.299 53.2 429.099 57.2 429.099 65.2V75.9C429.099 78.8 429.199 81.0999 429.499 82.7999H423.799V82.6ZM422.899 68.2C415.699 68.2 412.199 69.8999 412.199 73.9999C412.199 76.9999 414.099 78.4999 416.599 78.4999C419.899 78.4999 422.899 76 422.899 72.6V68.2Z" fill="white"/>
<path d="M455.299 83.3001C451.199 83.3001 448.099 81.6001 446.199 78.2001H446.099L445.699 82.7001H440.199C440.399 80.4001 440.399 77.7001 440.399 74.9001V40.4001H446.899V57.9001H446.999C448.899 54.7001 451.999 53.1001 456.199 53.1001C463.199 53.1001 468.099 59.1001 468.099 67.8001C468.099 76.7001 462.699 83.3001 455.299 83.3001ZM453.999 58.1001C450.299 58.1001 446.899 61.3001 446.899 65.8001V70.9001C446.899 74.9001 449.899 78.2001 453.899 78.2001C458.699 78.2001 461.599 74.3001 461.599 68.0001C461.599 62.1001 458.599 58.1001 453.999 58.1001Z" fill="white"/>
<path d="M484.099 82.6001H477.699V40.3H484.099V82.6001Z" fill="white"/>
<path d="M519.199 69.7H499.899C499.999 75.2 503.699 78.3 508.999 78.3C511.899 78.3 514.499 77.8 516.799 76.9L517.799 81.4C515.099 82.6 511.799 83.2 508.099 83.2C498.999 83.2 493.699 77.5 493.699 68.6C493.699 59.7 499.199 53 507.399 53C514.799 53 519.499 58.5 519.499 66.8C519.399 67.9 519.399 68.9 519.199 69.7ZM513.299 65.1C513.299 60.6 510.999 57.5 506.899 57.5C503.199 57.5 500.299 60.7 499.899 65.1H513.299Z" fill="white"/>
<path d="M558.3 83.3001C549.8 83.3001 544.3 77.0001 544.3 68.4001C544.3 59.4001 549.9 53.1001 558.8 53.1001C567.1 53.1001 572.8 59.1001 572.8 68.0001C572.7 77.0001 566.9 83.3001 558.3 83.3001ZM558.5 57.7001C553.8 57.7001 550.9 62.1001 550.9 68.1001C550.9 74.1001 553.9 78.4001 558.5 78.4001C563.1 78.4001 566.1 73.7001 566.1 68.0001C566 62.2001 563 57.7001 558.5 57.7001Z" fill="white"/>
<path d="M607.3 82.6H600.9V65.9C600.9 60.8 598.9 58.2 595.1 58.2C591.3 58.2 588.6 61.5 588.6 65.3V82.6H582.2V61.9C582.2 59.3 582.1 56.6 582 53.6H587.7L588 58.1H588.2C589.9 55 593.5 53 597.4 53C603.5 53 607.5 57.7 607.5 65.2L607.3 82.6Z" fill="white"/>
<path d="M649.5 58.5001H642.4V72.6001C642.4 76.2001 643.6 78.0001 646.2 78.0001C647.3 78.0001 648.3 77.9001 649.1 77.7001L649.3 82.6001C648 83.1001 646.4 83.3001 644.3 83.3001C639.2 83.3001 636.2 80.5001 636.2 73.2001V58.6001H632V53.6001H636.2V48.3001L642.5 46.4001V53.6001H649.6V58.5001H649.5Z" fill="white"/>
<path d="M683.599 82.6001H677.099V66.1001C677.099 60.9001 675.099 58.3 671.299 58.3C667.999 58.3 664.899 60.6001 664.899 65.2001V82.6001H658.399V40.3H664.899V57.7001H664.999C666.999 54.5001 669.999 53.0001 673.699 53.0001C679.799 53.0001 683.599 57.8001 683.599 65.4001V82.6001V82.6001Z" fill="white"/>
<path d="M716.6 69.7H697.2C697.3 75.2 701 78.3 706.3 78.3C709.2 78.3 711.8 77.8 714.1 76.9L715.1 81.4C712.4 82.6 709.1 83.2 705.4 83.2C696.3 83.2 691 77.5 691 68.6C691 59.7 696.5 53 704.7 53C712.1 53 716.8 58.5 716.8 66.8C716.8 67.9 716.7 68.9 716.6 69.7ZM710.7 65.1C710.7 60.6 708.4 57.5 704.3 57.5C700.6 57.5 697.7 60.7 697.3 65.1H710.7Z" fill="white"/>
<defs>
<linearGradient id="paint0_linear" x1="608.474" y1="246.584" x2="608.474" y2="24.9356" gradientUnits="userSpaceOnUse">
<stop stop-color="#1A1A1A" stop-opacity="0.1"/>
<stop offset="0.1235" stop-color="#212121" stop-opacity="0.1506"/>
<stop offset="0.3085" stop-color="#353535" stop-opacity="0.2265"/>
<stop offset="0.5321" stop-color="#575757" stop-opacity="0.3181"/>
<stop offset="0.7834" stop-color="#858585" stop-opacity="0.4212"/>
<stop offset="1" stop-color="#B3B3B3" stop-opacity="0.51"/>
</linearGradient>
</defs>
</svg>
