<svg width="340" height="226" viewBox="0 0 340 226" fill="none" xmlns="http://www.w3.org/2000/svg">
<path d="M339.645 334.772L0 323.172V69.0132L339.645 10.0342V334.772Z" fill="#67B2DC"/>
<path d="M339.645 51.0342L226.639 66.3272L339.645 60.8652V51.0342Z" fill="#85CBEF"/>
<path d="M126.712 20.1421H49.3164V215.62H126.712V20.1421Z" fill="#90B5C8"/>
<path d="M112.839 12.7139H63.1885V210.624H112.839V12.7139Z" fill="#90B5C8"/>
<path d="M158.258 0H134.547V210.625H158.258V0Z" fill="#90B5C8"/>
<path d="M174.017 18.8242H150.306V210.624H174.017V18.8242Z" fill="#90B5C8"/>
<path d="M80.0177 28.437H68.9707V33.2H80.0177V28.437Z" fill="#7A9FB9"/>
<path d="M98.8419 28.437H87.7949V33.2H98.8419V28.437Z" fill="#7A9FB9"/>
<path d="M117.667 28.437H106.62V33.2H117.667V28.437Z" fill="#7A9FB9"/>
<path d="M153.736 10.7192H142.689V15.4822H153.736V10.7192Z" fill="#7A9FB9"/>
<path d="M153.736 23.6738H142.689V28.4368H153.736V23.6738Z" fill="#7A9FB9"/>
<path d="M153.736 36.6372H142.689V41.4002H153.736V36.6372Z" fill="#7A9FB9"/>
<path d="M153.736 51.1938H142.689V55.9568H153.736V51.1938Z" fill="#7A9FB9"/>
<path d="M153.736 64.1489H142.689V68.9119H153.736V64.1489Z" fill="#7A9FB9"/>
<path d="M153.736 77.1108H142.689V81.8738H153.736V77.1108Z" fill="#7A9FB9"/>
<path d="M80.0177 42.2661H68.9707V47.0291H80.0177V42.2661Z" fill="#7A9FB9"/>
<path d="M98.8419 42.2661H87.7949V47.0291H98.8419V42.2661Z" fill="#7A9FB9"/>
<path d="M117.667 42.2661H106.62V47.0291H117.667V42.2661Z" fill="#7A9FB9"/>
<path d="M80.0177 56.1021H68.9707V60.8651H80.0177V56.1021Z" fill="#7A9FB9"/>
<path d="M98.8419 56.1021H87.7949V60.8651H98.8419V56.1021Z" fill="#7A9FB9"/>
<path d="M117.667 56.1021H106.62V60.8651H117.667V56.1021Z" fill="#7A9FB9"/>
<path d="M80.0177 68.9121H68.9707V73.6751H80.0177V68.9121Z" fill="#7A9FB9"/>
<path d="M98.8419 68.9121H87.7949V73.6751H98.8419V68.9121Z" fill="#7A9FB9"/>
<path d="M117.667 68.9121H106.62V73.6751H117.667V68.9121Z" fill="#7A9FB9"/>
<path d="M80.0177 82.7412H68.9707V87.5042H80.0177V82.7412Z" fill="#7A9FB9"/>
<path d="M98.8419 82.7412H87.7949V87.5042H98.8419V82.7412Z" fill="#7A9FB9"/>
<path d="M117.667 82.7412H106.62V87.5042H117.667V82.7412Z" fill="#7A9FB9"/>
<path d="M80.0177 96.5771H68.9707V101.34H80.0177V96.5771Z" fill="#7A9FB9"/>
<path d="M98.8419 96.5771H87.7949V101.34H98.8419V96.5771Z" fill="#7A9FB9"/>
<path d="M117.667 96.5771H106.62V101.34H117.667V96.5771Z" fill="#7A9FB9"/>
<path d="M243.024 44.4072H165.628V218.708H243.024V44.4072Z" fill="#90B5C8"/>
<path d="M229.159 36.979H179.508V213.705H229.159V36.979Z" fill="#90B5C8"/>
<path d="M274.578 24.2642H250.867V213.705H274.578V24.2642Z" fill="#90B5C8"/>
<path d="M290.337 43.0889H266.626V213.705H290.337V43.0889Z" fill="#90B5C8"/>
<path d="M196.337 52.7012H185.29V57.4642H196.337V52.7012Z" fill="#7A9FB9"/>
<path d="M215.162 52.7012H204.115V57.4642H215.162V52.7012Z" fill="#7A9FB9"/>
<path d="M233.987 52.7012H222.94V57.4642H233.987V52.7012Z" fill="#7A9FB9"/>
<path d="M270.056 34.9839H259.009V39.7469H270.056V34.9839Z" fill="#7A9FB9"/>
<path d="M270.056 47.939H259.009V52.702H270.056V47.939Z" fill="#7A9FB9"/>
<path d="M270.056 60.9009H259.009V65.6639H270.056V60.9009Z" fill="#7A9FB9"/>
<path d="M270.056 74.1548H259.009V78.9178H270.056V74.1548Z" fill="#7A9FB9"/>
<path d="M270.056 87.1172H259.009V91.8802H270.056V87.1172Z" fill="#7A9FB9"/>
<path d="M270.056 100.08H259.009V104.843H270.056V100.08Z" fill="#7A9FB9"/>
<path d="M196.337 66.5298H185.29V71.2928H196.337V66.5298Z" fill="#7A9FB9"/>
<path d="M215.162 66.5298H204.115V71.2928H215.162V66.5298Z" fill="#7A9FB9"/>
<path d="M233.987 66.5298H222.94V71.2928H233.987V66.5298Z" fill="#7A9FB9"/>
<path d="M196.337 80.3672H185.29V85.1302H196.337V80.3672Z" fill="#7A9FB9"/>
<path d="M215.162 80.3672H204.115V85.1302H215.162V80.3672Z" fill="#7A9FB9"/>
<path d="M233.987 80.3672H222.94V85.1302H233.987V80.3672Z" fill="#7A9FB9"/>
<path d="M39.4041 199.221L3.53906 223.376H317.849L339.649 200.794L39.4041 199.221Z" fill="#4B83A4"/>
<path d="M49.8482 200.524L21.9932 218.293H311.128L333.266 205.899L49.8482 200.524Z" fill="#3E6D89"/>
<path d="M220.07 199.97C220.07 199.97 267.67 196.329 279.34 199.875C279.333 199.876 256.481 199.024 220.07 199.97Z" fill="white"/>
<path d="M234.438 190.452C234.438 190.452 267.208 186.811 275.284 190.357C275.284 190.358 259.555 189.506 234.438 190.452Z" fill="white"/>
<path d="M249.695 207.151C249.695 207.151 276.814 203.51 283.47 207.056C272.217 206.524 260.945 206.555 249.695 207.151V207.151Z" fill="white"/>
<path d="M8.23633 136.323C8.23633 136.323 39.1713 133.541 46.7593 136.25C46.7523 136.251 31.9263 135.602 8.23633 136.323Z" fill="white"/>
<path d="M26.6172 128.378C26.6172 128.378 47.9322 125.596 53.1682 128.312C53.1672 128.313 42.9442 127.657 26.6172 128.378Z" fill="white"/>
<path d="M36.5566 141.181C36.5566 141.181 54.1796 138.392 58.5056 141.108C51.1943 140.698 43.8651 140.723 36.5566 141.181V141.181Z" fill="white"/>
<path d="M8.23633 155.134C8.23633 155.134 39.1713 152.345 46.7593 155.061C46.7523 155.069 31.9263 154.405 8.23633 155.134Z" fill="white"/>
<path d="M26.6172 147.196C26.6172 147.196 47.9322 144.407 53.1682 147.123C53.1672 147.123 42.9442 146.467 26.6172 147.196Z" fill="white"/>
<path d="M36.5566 159.998C36.5566 159.998 54.1796 157.209 58.5056 159.925C51.1943 159.515 43.8651 159.54 36.5566 159.998V159.998Z" fill="white"/>
<path d="M278.969 215.329C278.969 215.329 277.454 209.583 273.609 211.193C271.444 212.028 269.562 213.462 268.184 215.329H278.969Z" fill="white"/>
<path d="M238.789 215.329C238.789 215.329 237.66 211.04 234.789 212.241C233.171 212.864 231.765 213.935 230.733 215.329H238.789Z" fill="white"/>
<path d="M228.68 215.329C228.68 215.329 228.105 213.144 226.655 213.771C225.835 214.082 225.122 214.623 224.601 215.329H228.68Z" fill="white"/>
<path d="M268.184 215.329C268.184 215.329 265.963 206.929 260.341 209.277C257.171 210.496 254.414 212.596 252.396 215.329H268.184Z" fill="white"/>
<path d="M255.025 215.329C255.025 215.329 252.76 206.751 247.015 209.146C243.775 210.387 240.959 212.533 238.903 215.329H255.025Z" fill="white"/>
<path d="M82.8651 215.329C82.8651 215.329 81.3501 209.583 77.5051 211.193C75.3402 212.028 73.4583 213.462 72.0801 215.329H82.8651Z" fill="white"/>
<path d="M56.9905 215.329C56.9905 215.329 55.8545 211.04 52.9855 212.241C51.3702 212.865 49.9658 213.936 48.9365 215.329H56.9905Z" fill="white"/>
<path d="M46.869 215.329C46.869 215.329 46.301 213.144 44.845 213.771C44.0265 214.085 43.3141 214.625 42.791 215.329H46.869Z" fill="white"/>
<path d="M72.08 215.329C72.08 215.329 69.895 206.929 64.237 209.277C61.0585 210.482 58.2984 212.585 56.292 215.329H72.08Z" fill="white"/>
<path d="M8.23633 183.403C8.23633 183.403 55.8263 179.762 67.4993 183.308C67.4993 183.309 44.6763 182.457 8.23633 183.403Z" fill="white"/>
<path d="M13.2539 191.436C13.2539 191.436 60.8439 187.795 72.5169 191.349C72.4809 191.349 49.6649 190.5 13.2539 191.436Z" fill="white"/>
<path d="M8.23633 166.683C8.23633 166.683 55.8263 163.042 67.4993 166.588C67.4993 166.589 44.6763 165.738 8.23633 166.683Z" fill="white"/>
<path d="M13.2539 174.715C13.2539 174.715 60.8439 171.074 72.5169 174.628C72.4809 174.628 49.6649 173.769 13.2539 174.715Z" fill="white"/>
<path d="M47.6631 200.793C47.6631 200.793 74.7751 197.152 81.4311 200.698C70.1806 200.166 58.9104 200.197 47.6631 200.793V200.793Z" fill="white"/>
<path d="M43.9492 82.0192V184.699C43.9492 185.406 44.23 186.084 44.7298 186.584C45.2296 187.083 45.9074 187.364 46.6142 187.364H261.128C261.835 187.364 262.513 187.083 263.013 186.584C263.512 186.084 263.793 185.406 263.793 184.699V77.9782C263.794 77.6276 263.726 77.2801 263.593 76.9559C263.459 76.6316 263.263 76.3369 263.016 76.0886C262.768 75.8403 262.474 75.6432 262.15 75.5088C261.826 75.3744 261.479 75.3052 261.128 75.3052H50.6712C49.7886 75.3032 48.9143 75.4755 48.0983 75.8121C47.2824 76.1487 46.541 76.6431 45.9165 77.2668C45.292 77.8905 44.7968 78.6314 44.4592 79.4469C44.1216 80.2624 43.9483 81.1366 43.9492 82.0192V82.0192Z" fill="#F8F8F8"/>
<path d="M49.8467 187.35H84.1757L196.213 75.3052H161.892L49.8467 187.35Z" fill="white"/>
<path d="M43.9492 174.147V184.685C43.9494 184.847 43.9641 185.007 43.9932 185.166L153.846 75.3052H142.784L43.9492 174.147Z" fill="white"/>
<path d="M43.9492 154.412V160.812L129.449 75.3042H123.055L43.9492 154.412Z" fill="white"/>
<path d="M220.799 75.3052V187.35H323.734C324.742 187.35 325.741 187.151 326.673 186.765C327.605 186.379 328.451 185.813 329.164 185.099C329.877 184.386 330.442 183.539 330.828 182.607C331.213 181.675 331.411 180.676 331.41 179.667V156.735C331.404 153.953 330.703 151.217 329.37 148.775C328.037 146.333 326.115 144.263 323.778 142.753L323.683 142.687L299.076 127.045C296.741 125.563 294.811 123.523 293.461 121.11L270.726 80.4392C269.86 78.8924 268.597 77.6044 267.068 76.7079C265.539 75.8115 263.798 75.339 262.026 75.3392L220.799 75.3052Z" fill="white"/>
<path d="M226.923 127.702H279.239C280.095 127.702 280.936 127.481 281.682 127.061C282.427 126.641 283.051 126.035 283.495 125.303C283.938 124.571 284.184 123.737 284.21 122.881C284.237 122.026 284.042 121.178 283.645 120.42L264.493 83.8122C264.073 83.0062 263.441 82.3308 262.664 81.8595C261.887 81.3882 260.996 81.1391 260.087 81.1392H226.923C226.094 81.141 225.299 81.4717 224.714 82.0587C224.128 82.6457 223.799 83.441 223.799 84.2702V124.549C223.795 124.962 223.873 125.371 224.028 125.754C224.184 126.136 224.413 126.484 224.704 126.777C224.994 127.07 225.34 127.303 225.721 127.462C226.102 127.62 226.51 127.702 226.923 127.702Z" fill="#2C7A8C"/>
<path d="M220.704 187.351H220.944V82.9162C220.946 81.9954 221.313 81.1128 221.964 80.4617C222.615 79.8106 223.497 79.444 224.418 79.4422H262.49C263.512 79.4408 264.515 79.7197 265.389 80.2487C266.264 80.7777 266.976 81.5364 267.449 82.4422L287.111 119.953C288.661 122.923 289.472 126.223 289.478 129.573V187.35H289.718V129.572C289.714 126.183 288.89 122.845 287.318 119.843L267.656 82.3322C267.163 81.3874 266.42 80.5958 265.509 80.0438C264.597 79.4917 263.552 79.2003 262.486 79.2012H224.436C223.452 79.203 222.508 79.5949 221.812 80.291C221.116 80.9871 220.724 81.9307 220.722 82.9152L220.704 187.351Z" fill="#CFD1D1"/>
<path d="M228.605 88.53V119.844C228.605 120.488 228.861 121.105 229.315 121.561C229.77 122.017 230.387 122.274 231.03 122.276H271.658C272.323 122.275 272.976 122.103 273.555 121.777C274.134 121.45 274.619 120.979 274.963 120.411C275.307 119.842 275.499 119.194 275.519 118.53C275.54 117.866 275.389 117.207 275.081 116.618L266.985 101.15L264.8 96.95L263.285 94.037L262.178 91.937L260.212 88.179C259.887 87.5539 259.397 87.0299 258.795 86.664C258.193 86.2982 257.502 86.1045 256.797 86.104H231.03C230.712 86.104 230.397 86.1668 230.102 86.2887C229.808 86.4106 229.541 86.5893 229.315 86.8146C229.09 87.0399 228.912 87.3074 228.79 87.6017C228.668 87.896 228.605 88.2115 228.605 88.53V88.53Z" fill="#4192A7"/>
<path d="M239.463 122.262H245.863L266.989 101.136L264.789 96.936L239.463 122.262Z" fill="#4AA2E9"/>
<path d="M231.839 122.262H235.039L263.272 94.0292L262.172 91.9292L231.839 122.262Z" fill="#4AA2E9"/>
<path d="M228.605 110.683V112.283L254.792 86.0962H253.192L228.605 110.683Z" fill="#4AA2E9"/>
<path opacity="0.2" d="M43.9492 142.754V184.714C43.9492 185.421 44.23 186.099 44.7298 186.598C45.2296 187.098 45.9074 187.379 46.6142 187.379H220.799V142.754H43.9492Z" fill="#8FBD15"/>
<path opacity="0.2" d="M220.799 142.754V187.38H323.734C324.742 187.38 325.741 187.181 326.673 186.795C327.605 186.409 328.451 185.843 329.164 185.129C329.877 184.416 330.442 183.569 330.828 182.637C331.213 181.704 331.411 180.706 331.41 179.697V156.736C331.404 153.954 330.703 151.217 329.37 148.775C328.037 146.333 326.115 144.263 323.778 142.754H220.799Z" fill="#8FBD15"/>
<path d="M220.828 75.3052H218.993V187.35H220.828V75.3052Z" fill="#CFD1D1"/>
<path d="M278.059 170.856V187.35H323.729C324.737 187.35 325.736 187.151 326.668 186.765C327.6 186.379 328.446 185.813 329.159 185.1C329.872 184.386 330.437 183.539 330.823 182.607C331.208 181.675 331.406 180.676 331.405 179.667V170.856H278.059Z" fill="black"/>
<path d="M43.9492 170.856V184.692C43.9492 185.39 44.226 186.059 44.7188 186.553C45.2116 187.048 45.8803 187.326 46.5782 187.328H89.6232C90.6318 187.328 91.6305 187.129 92.5622 186.743C93.4939 186.357 94.3403 185.791 95.0531 185.077C95.7659 184.364 96.3311 183.517 96.7163 182.585C97.1015 181.652 97.2993 180.654 97.2982 179.645V170.834L43.9492 170.856Z" fill="black"/>
<path d="M322.197 187.351L48.0713 187.351C46.978 187.351 45.9296 186.917 45.1566 186.144C44.3836 185.371 43.9493 184.322 43.9493 183.229L322.197 183.229V187.351Z" fill="black"/>
<path d="M280.834 113.53V131.007C281.989 131.019 283.136 130.802 284.207 130.369C285.278 129.935 286.252 129.293 287.074 128.481C287.895 127.668 288.547 126.7 288.992 125.634C289.437 124.568 289.666 123.424 289.666 122.268C289.666 121.113 289.437 119.969 288.992 118.902C288.547 117.836 287.895 116.869 287.074 116.056C286.252 115.243 285.278 114.602 284.207 114.168C283.136 113.734 281.989 113.517 280.834 113.53V113.53Z" fill="#CFD1D1"/>
<path d="M227.76 132.202H237.737C238.239 132.225 238.713 132.44 239.06 132.804C239.407 133.167 239.601 133.65 239.601 134.152C239.601 134.655 239.407 135.138 239.06 135.501C238.713 135.864 238.239 136.079 237.737 136.102H227.76C227.497 136.114 227.233 136.073 226.986 135.98C226.739 135.887 226.514 135.746 226.323 135.563C226.132 135.381 225.981 135.162 225.877 134.92C225.773 134.677 225.72 134.416 225.72 134.152C225.72 133.888 225.773 133.627 225.877 133.385C225.981 133.142 226.132 132.923 226.323 132.741C226.514 132.559 226.739 132.417 226.986 132.324C227.233 132.232 227.497 132.19 227.76 132.202V132.202Z" fill="#AAAAAA"/>
<path d="M43.9492 174.825L331.409 174.825V170.863L43.9492 170.863V174.825Z" fill="white"/>
<path d="M257.552 187.482H321.582C321.252 179.212 317.734 171.39 311.766 165.656C305.798 159.921 297.842 156.718 289.565 156.718C281.289 156.718 273.333 159.921 267.365 165.656C261.397 171.39 257.879 179.212 257.549 187.482H257.552Z" fill="black"/>
<path d="M315.615 200.352C322.735 185.957 316.838 168.516 302.444 161.396C288.049 154.275 270.608 160.172 263.487 174.566C256.367 188.961 262.264 206.402 276.658 213.523C291.053 220.643 308.494 214.746 315.615 200.352Z" fill="#474747"/>
<path d="M289.565 215.765C305.186 215.765 317.849 203.102 317.849 187.481C317.849 171.86 305.186 159.197 289.565 159.197C273.944 159.197 261.281 171.86 261.281 187.481C261.281 203.102 273.944 215.765 289.565 215.765Z" fill="#363636"/>
<path d="M306.927 204.84C316.514 195.253 316.514 179.709 306.927 170.122C297.34 160.535 281.796 160.535 272.209 170.122C262.622 179.709 262.622 195.253 272.209 204.84C281.796 214.427 297.34 214.427 306.927 204.84Z" fill="black"/>
<path d="M304.675 192.835C307.627 184.499 303.263 175.348 294.927 172.396C286.591 169.443 277.44 173.807 274.488 182.143C271.535 190.479 275.899 199.63 284.235 202.583C292.571 205.535 301.722 201.171 304.675 192.835Z" fill="#BBBBBB"/>
<path d="M298.616 196.528C303.613 191.532 303.613 183.43 298.616 178.434C293.619 173.437 285.518 173.437 280.521 178.434C275.524 183.43 275.524 191.532 280.521 196.528C285.518 201.525 293.619 201.525 298.616 196.528Z" fill="black"/>
<path d="M286.434 187.481C286.432 188.103 286.615 188.711 286.959 189.228C287.304 189.745 287.794 190.149 288.368 190.388C288.942 190.626 289.573 190.689 290.183 190.568C290.793 190.447 291.353 190.148 291.792 189.709C292.232 189.269 292.531 188.709 292.652 188.1C292.773 187.49 292.71 186.858 292.471 186.284C292.233 185.71 291.829 185.22 291.312 184.876C290.794 184.531 290.186 184.349 289.565 184.35C288.735 184.352 287.94 184.683 287.353 185.269C286.766 185.856 286.436 186.651 286.434 187.481V187.481Z" fill="#BBBBBB"/>
<path d="M288.036 179.45C288.038 179.803 288.162 180.145 288.388 180.418C288.613 180.69 288.926 180.876 289.273 180.943C289.621 181.01 289.98 180.956 290.291 180.788C290.603 180.62 290.846 180.349 290.98 180.022C291.114 179.695 291.131 179.331 291.027 178.993C290.923 178.655 290.705 178.364 290.411 178.168C290.116 177.973 289.763 177.885 289.411 177.921C289.059 177.957 288.731 178.113 288.481 178.364C288.195 178.653 288.035 179.043 288.036 179.45Z" fill="#BBBBBB"/>
<path d="M289.566 197.059C290.415 197.059 291.103 196.371 291.103 195.522C291.103 194.673 290.415 193.985 289.566 193.985C288.717 193.985 288.029 194.673 288.029 195.522C288.029 196.371 288.717 197.059 289.566 197.059Z" fill="#BBBBBB"/>
<path d="M294.167 180.717C293.923 180.969 293.773 181.298 293.743 181.648C293.713 181.997 293.805 182.347 294.003 182.637C294.202 182.926 294.494 183.139 294.831 183.237C295.168 183.336 295.529 183.315 295.852 183.179C296.176 183.042 296.442 182.797 296.606 182.487C296.769 182.176 296.821 181.818 296.751 181.474C296.681 181.13 296.494 180.821 296.223 180.598C295.951 180.376 295.61 180.255 295.259 180.255C295.056 180.256 294.854 180.297 294.667 180.376C294.479 180.456 294.309 180.571 294.167 180.717V180.717Z" fill="#BBBBBB"/>
<path d="M282.8 192.084C282.55 192.336 282.395 192.668 282.362 193.021C282.329 193.375 282.419 193.729 282.618 194.024C282.817 194.319 283.111 194.535 283.451 194.637C283.792 194.739 284.157 194.72 284.485 194.583C284.813 194.446 285.083 194.2 285.25 193.886C285.416 193.573 285.469 193.211 285.399 192.863C285.33 192.514 285.141 192.201 284.866 191.976C284.591 191.751 284.247 191.628 283.892 191.628C283.689 191.628 283.488 191.668 283.3 191.747C283.113 191.825 282.943 191.94 282.8 192.084Z" fill="#BBBBBB"/>
<path d="M297.608 185.952C297.304 185.952 297.006 186.042 296.754 186.212C296.501 186.381 296.304 186.622 296.188 186.903C296.071 187.184 296.041 187.494 296.101 187.792C296.161 188.09 296.309 188.364 296.524 188.579C296.74 188.793 297.015 188.939 297.313 188.998C297.612 189.056 297.921 189.024 298.202 188.907C298.483 188.789 298.722 188.591 298.89 188.337C299.058 188.083 299.147 187.785 299.145 187.481C299.143 187.075 298.98 186.686 298.692 186.399C298.404 186.113 298.015 185.952 297.608 185.952Z" fill="#BBBBBB"/>
<path d="M281.533 185.952C281.229 185.951 280.931 186.04 280.677 186.208C280.424 186.376 280.226 186.616 280.109 186.897C279.991 187.178 279.96 187.487 280.019 187.786C280.078 188.085 280.225 188.359 280.44 188.574C280.655 188.789 280.93 188.936 281.228 188.995C281.527 189.054 281.836 189.023 282.117 188.906C282.398 188.789 282.638 188.591 282.806 188.337C282.975 188.083 283.064 187.786 283.062 187.481C283.06 187.076 282.898 186.689 282.612 186.402C282.326 186.116 281.938 185.954 281.533 185.952V185.952Z" fill="#BBBBBB"/>
<path d="M296.337 192.084C296.085 191.84 295.756 191.69 295.406 191.66C295.056 191.63 294.707 191.722 294.417 191.92C294.127 192.119 293.915 192.411 293.816 192.748C293.718 193.085 293.738 193.446 293.875 193.769C294.012 194.093 294.256 194.359 294.567 194.523C294.878 194.686 295.235 194.738 295.58 194.668C295.924 194.598 296.233 194.411 296.455 194.14C296.678 193.868 296.799 193.527 296.799 193.176C296.798 192.973 296.757 192.771 296.677 192.584C296.598 192.396 296.482 192.226 296.337 192.084Z" fill="#BBBBBB"/>
<path d="M283.885 183.339C284.734 183.339 285.422 182.651 285.422 181.802C285.422 180.953 284.734 180.265 283.885 180.265C283.036 180.265 282.348 180.953 282.348 181.802C282.348 182.651 283.036 183.339 283.885 183.339Z" fill="#BBBBBB"/>
<path d="M59.8975 187.482H123.947C123.617 179.212 120.1 171.39 114.132 165.656C108.163 159.921 100.208 156.718 91.931 156.718C83.6542 156.718 75.6985 159.921 69.7303 165.656C63.7622 171.39 60.2446 179.212 59.9145 187.482H59.8975Z" fill="black"/>
<path d="M98.5794 215.785C114.209 212.096 123.889 196.435 120.2 180.805C116.511 165.175 100.85 155.495 85.2203 159.184C69.5905 162.873 59.9104 178.534 63.5994 194.164C67.2884 209.794 82.9495 219.474 98.5794 215.785Z" fill="#474747"/>
<path d="M120.188 187.906C120.423 172.287 107.951 159.435 92.332 159.201C76.7129 158.966 63.8611 171.438 63.6267 187.057C63.3922 202.676 75.8639 215.528 91.483 215.762C107.102 215.997 119.954 203.525 120.188 187.906Z" fill="#363636"/>
<path d="M97.7765 211.31C110.943 208.076 118.995 194.78 115.761 181.614C112.527 168.447 99.2317 160.395 86.065 163.629C72.8983 166.863 64.8463 180.159 68.0804 193.325C71.3144 206.492 84.6098 214.544 97.7765 211.31Z" fill="black"/>
<path d="M103.228 198.802C109.479 192.551 109.479 182.417 103.228 176.166C96.9775 169.915 86.8431 169.915 80.5924 176.166C74.3416 182.417 74.3416 192.551 80.5924 198.802C86.8431 205.053 96.9775 205.053 103.228 198.802Z" fill="#BBBBBB"/>
<path d="M94.9348 199.923C101.8 198.247 106.006 191.324 104.33 184.459C102.654 177.594 95.7303 173.387 88.8655 175.063C82.0006 176.739 77.7942 183.663 79.4702 190.528C81.1462 197.393 88.07 201.599 94.9348 199.923Z" fill="black"/>
<path d="M91.9093 190.612C93.6385 190.612 95.0403 189.21 95.0403 187.481C95.0403 185.752 93.6385 184.35 91.9093 184.35C90.1801 184.35 88.7783 185.752 88.7783 187.481C88.7783 189.21 90.1801 190.612 91.9093 190.612Z" fill="#BBBBBB"/>
<path d="M90.373 179.45C90.373 179.754 90.4632 180.051 90.6321 180.304C90.801 180.557 91.041 180.754 91.3219 180.87C91.6027 180.986 91.9118 181.017 92.2099 180.958C92.508 180.898 92.7819 180.752 92.9969 180.537C93.2118 180.322 93.3582 180.048 93.4175 179.75C93.4768 179.452 93.4464 179.143 93.3301 178.862C93.2137 178.581 93.0167 178.341 92.764 178.172C92.5112 178.003 92.214 177.913 91.91 177.913C91.7082 177.913 91.5083 177.953 91.3219 178.03C91.1354 178.107 90.966 178.221 90.8232 178.363C90.6805 178.506 90.5673 178.675 90.4901 178.862C90.4128 179.048 90.373 179.248 90.373 179.45V179.45Z" fill="#BBBBBB"/>
<path d="M90.373 195.522C90.373 195.826 90.4632 196.123 90.6321 196.376C90.801 196.629 91.041 196.826 91.3219 196.942C91.6027 197.058 91.9118 197.089 92.2099 197.029C92.508 196.97 92.7819 196.824 92.9969 196.609C93.2118 196.394 93.3582 196.12 93.4175 195.822C93.4768 195.524 93.4464 195.215 93.3301 194.934C93.2137 194.653 93.0167 194.413 92.764 194.244C92.5112 194.075 92.214 193.985 91.91 193.985C91.5024 193.985 91.1115 194.147 90.8232 194.435C90.535 194.723 90.373 195.114 90.373 195.522V195.522Z" fill="#BBBBBB"/>
<path d="M97.5975 183.339C98.4464 183.339 99.1345 182.651 99.1345 181.802C99.1345 180.953 98.4464 180.265 97.5975 180.265C96.7487 180.265 96.0605 180.953 96.0605 181.802C96.0605 182.651 96.7487 183.339 97.5975 183.339Z" fill="#BBBBBB"/>
<path d="M85.1437 192.083C84.8991 192.335 84.7492 192.664 84.7194 193.014C84.6895 193.364 84.7816 193.713 84.98 194.003C85.1783 194.293 85.4708 194.505 85.8078 194.604C86.1447 194.702 86.5055 194.682 86.8289 194.545C87.1523 194.408 87.4184 194.164 87.5822 193.853C87.746 193.542 87.7973 193.185 87.7275 192.84C87.6576 192.496 87.471 192.187 87.1991 191.965C86.9272 191.742 86.5868 191.621 86.2357 191.621C86.0321 191.622 85.8308 191.663 85.6433 191.743C85.4559 191.822 85.286 191.938 85.1437 192.083V192.083Z" fill="#BBBBBB"/>
<path d="M99.9503 185.952C99.6455 185.95 99.347 186.038 99.0926 186.206C98.8382 186.374 98.6395 186.614 98.5217 186.895C98.404 187.176 98.3724 187.486 98.4311 187.785C98.4898 188.084 98.6361 188.359 98.8515 188.575C99.0668 188.791 99.3413 188.937 99.6403 188.997C99.9393 189.056 100.249 189.025 100.531 188.908C100.812 188.791 101.052 188.592 101.22 188.338C101.389 188.084 101.478 187.786 101.476 187.481C101.474 187.076 101.313 186.688 101.026 186.402C100.74 186.116 100.352 185.954 99.9473 185.952H99.9503Z" fill="#BBBBBB"/>
<path d="M83.8924 185.952C83.5389 185.954 83.1968 186.078 82.9246 186.304C82.6523 186.529 82.4666 186.842 82.3992 187.189C82.3317 187.537 82.3867 187.896 82.5546 188.207C82.7226 188.519 82.9932 188.762 83.3204 188.896C83.6475 189.03 84.0111 189.047 84.3491 188.943C84.6871 188.839 84.9786 188.621 85.1741 188.327C85.3696 188.032 85.457 187.679 85.4213 187.327C85.3856 186.975 85.2291 186.647 84.9784 186.397C84.6896 186.111 84.2991 185.951 83.8924 185.952V185.952Z" fill="#BBBBBB"/>
<path d="M98.6816 192.084C98.4296 191.84 98.1008 191.69 97.7509 191.66C97.4011 191.63 97.0516 191.722 96.7618 191.92C96.4721 192.119 96.2598 192.411 96.1611 192.748C96.0623 193.085 96.0831 193.446 96.2199 193.769C96.3567 194.093 96.6012 194.359 96.9118 194.523C97.2224 194.686 97.5801 194.738 97.9243 194.668C98.2684 194.598 98.5778 194.411 98.8 194.14C99.0223 193.868 99.1436 193.527 99.1436 193.176C99.1427 192.973 99.1015 192.771 99.0221 192.584C98.9428 192.396 98.8271 192.226 98.6816 192.084V192.084Z" fill="#BBBBBB"/>
<path d="M86.2304 183.339C87.0792 183.339 87.7674 182.651 87.7674 181.802C87.7674 180.953 87.0792 180.265 86.2304 180.265C85.3815 180.265 84.6934 180.953 84.6934 181.802C84.6934 182.651 85.3815 183.339 86.2304 183.339Z" fill="#BBBBBB"/>
<path d="M100.566 115.674V103.588H103.978C105.029 103.588 105.959 103.82 106.767 104.285C107.575 104.75 108.197 105.411 108.634 106.269C109.077 107.127 109.301 108.112 109.307 109.224V109.996C109.307 111.136 109.085 112.135 108.643 112.993C108.205 113.85 107.577 114.509 106.758 114.968C105.945 115.428 104.996 115.663 103.911 115.674H100.566ZM102.16 104.899V114.371H103.836C105.065 114.371 106.02 113.989 106.7 113.225C107.386 112.461 107.729 111.374 107.729 109.963V109.257C107.729 107.885 107.406 106.82 106.758 106.062C106.116 105.298 105.203 104.91 104.019 104.899H102.16ZM118.554 110.087H113.316V114.371H119.4V115.674H111.722V103.588H119.317V104.899H113.316V108.784H118.554V110.087ZM122.986 114.371H128.714V115.674H121.384V103.588H122.986V114.371ZM132.242 115.674H130.648V103.588H132.242V115.674ZM139.165 113.557L142.618 103.588H144.361L139.878 115.674H138.467L133.993 103.588H135.728L139.165 113.557ZM152.819 110.087H147.582V114.371H153.666V115.674H145.988V103.588H153.583V104.899H147.582V108.784H152.819V110.087ZM160.083 110.785H157.244V115.674H155.642V103.588H159.643C161.004 103.588 162.05 103.898 162.78 104.518C163.516 105.137 163.884 106.039 163.884 107.224C163.884 107.976 163.68 108.632 163.27 109.191C162.866 109.75 162.302 110.168 161.577 110.444L164.416 115.574V115.674H162.706L160.083 110.785ZM157.244 109.481H159.692C160.484 109.481 161.112 109.277 161.577 108.867C162.047 108.458 162.282 107.91 162.282 107.224C162.282 106.477 162.058 105.904 161.61 105.505C161.167 105.107 160.525 104.905 159.684 104.899H157.244V109.481ZM169.413 109.656L172.567 103.588H174.376L170.209 111.167V115.674H168.616V111.167L164.449 103.588H166.275L169.413 109.656Z" fill="#EB1F20"/>
<path d="M98.6509 110.603L68.4609 108.098H99.1409L98.6509 110.603Z" fill="#EB1F20"/>
<path d="M97.7722 115.125L75.7432 112.62H98.5002L97.7722 115.125Z" fill="#EB1F20"/>
<path d="M97.0443 119.647L81.5693 117.142H97.7693L97.0443 119.647Z" fill="#EB1F20"/>
<path d="M100.452 25.3118C99.898 25.3085 99.35 25.4268 98.8467 25.6583C98.3434 25.8899 97.897 26.229 97.539 26.6518C97.1498 25.6605 96.533 24.7745 95.7384 24.0654C94.9437 23.3563 93.9935 22.8439 92.9644 22.5696C91.9353 22.2954 90.8561 22.2669 89.814 22.4865C88.7718 22.7061 87.7959 23.1676 86.965 23.8338C85.9014 21.7057 84.2235 19.9458 82.1486 18.7818C80.0736 17.6178 77.6971 17.1033 75.3265 17.305C72.9559 17.5066 70.7004 18.4151 68.8519 19.9128C67.0034 21.4106 65.6469 23.4286 64.958 25.7058C64.2684 24.9751 63.3754 24.4681 62.3944 24.2508C61.4135 24.0334 60.3898 24.1156 59.4561 24.4866C58.5224 24.8577 57.7216 25.5006 57.1575 26.332C56.5933 27.1634 56.2918 28.1451 56.292 29.1498H104.282C104.284 28.6459 104.186 28.1466 103.995 27.6806C103.803 27.2146 103.521 26.7911 103.165 26.4344C102.809 26.0777 102.386 25.7949 101.921 25.6023C101.455 25.4096 100.956 25.3109 100.452 25.3118V25.3118Z" fill="#F4FAFF"/>
<path d="M46.5924 29.1511H60.7194V27.3511H46.5924C46.3537 27.3511 46.1248 27.4459 45.956 27.6147C45.7872 27.7835 45.6924 28.0124 45.6924 28.2511V28.2511C45.6924 28.4898 45.7872 28.7187 45.956 28.8875C46.1248 29.0563 46.3537 29.1511 46.5924 29.1511Z" fill="#F4FAFF"/>
<path d="M43.6354 28.2481C43.6354 28.0115 43.5422 27.7844 43.376 27.616C43.2098 27.4475 42.984 27.3513 42.7474 27.3481H40.9264C40.6877 27.3481 40.4588 27.443 40.29 27.6117C40.1212 27.7805 40.0264 28.0094 40.0264 28.2481C40.0264 28.4868 40.1212 28.7158 40.29 28.8845C40.4588 29.0533 40.6877 29.1481 40.9264 29.1481H42.7474C42.9829 29.1481 43.2087 29.0546 43.3753 28.8881C43.5418 28.7215 43.6354 28.4957 43.6354 28.2601V28.2481Z" fill="#F4FAFF"/>
<path d="M162.214 37.7798C162.969 37.7783 163.715 37.941 164.4 38.2567C165.086 38.5724 165.694 39.0334 166.183 39.6078C166.715 38.2496 167.559 37.0357 168.647 36.0642C169.735 35.0928 171.037 34.3912 172.447 34.0161C173.856 33.641 175.334 33.6031 176.761 33.9053C178.188 34.2076 179.524 34.8415 180.66 35.7558C182.114 32.8295 184.414 30.4078 187.261 28.8054C190.109 27.203 193.372 26.4939 196.628 26.7703C199.884 27.0467 202.981 28.2957 205.518 30.3552C208.054 32.4147 209.913 35.1894 210.852 38.3188C211.795 37.3122 213.018 36.6123 214.364 36.31C215.709 36.0078 217.115 36.1172 218.397 36.6241C219.679 37.1309 220.78 38.0118 221.555 39.1522C222.33 40.2926 222.745 41.6398 222.744 43.0188H156.984C156.984 41.6307 157.535 40.2993 158.515 39.3164C159.495 38.3336 160.825 37.7795 162.213 37.7758L162.214 37.7798Z" fill="#F4FAFF"/>
<path d="M236.026 43.0232H216.67V40.5762H236.026C236.35 40.5762 236.661 40.705 236.891 40.9344C237.12 41.1637 237.249 41.4748 237.249 41.7992C237.249 42.1235 237.12 42.4346 236.891 42.664C236.661 42.8933 236.35 43.0222 236.026 43.0222V43.0232Z" fill="#F4FAFF"/>
<path d="M240.075 41.7992C240.075 41.4748 240.204 41.1637 240.433 40.9344C240.663 40.705 240.974 40.5762 241.298 40.5762H243.81C244.135 40.5762 244.446 40.7051 244.675 40.9345C244.905 41.164 245.034 41.4752 245.034 41.7997C245.034 42.1242 244.905 42.4354 244.675 42.6648C244.446 42.8943 244.135 43.0232 243.81 43.0232H241.298C240.974 43.0232 240.663 42.8943 240.433 42.665C240.204 42.4356 240.075 42.1245 240.075 41.8002V41.7992Z" fill="#F4FAFF"/>
<path d="M321.928 49.4389C321.458 49.4405 320.993 49.5434 320.566 49.7406C320.139 49.9378 319.759 50.2248 319.452 50.5819C319.119 49.7301 318.589 48.9688 317.906 48.3598C317.223 47.7508 316.407 47.3111 315.522 47.0764C314.638 46.8417 313.711 46.8186 312.816 47.0089C311.921 47.1993 311.084 47.5977 310.371 48.1719C309.461 46.341 308.021 44.826 306.239 43.8235C304.457 42.8209 302.415 42.3771 300.378 42.5495C298.34 42.722 296.402 43.5029 294.814 44.7907C293.225 46.0786 292.061 47.8141 291.471 49.7719C290.882 49.1402 290.115 48.7009 289.272 48.5112C288.429 48.3216 287.548 48.3904 286.744 48.7088C285.941 49.0271 285.252 49.5802 284.768 50.2959C284.283 51.0116 284.025 51.8567 284.028 52.7209H325.187C325.189 51.854 324.846 51.022 324.236 50.4068C323.625 49.7917 322.795 49.4437 321.928 49.4389V49.4389Z" fill="#F4FAFF"/>
<path d="M268.213 52.7231H279.595C279.696 52.7231 279.796 52.7031 279.89 52.6642C279.983 52.6253 280.068 52.5684 280.139 52.4966C280.21 52.4248 280.266 52.3396 280.304 52.246C280.342 52.1524 280.361 52.0522 280.36 51.9511V51.9511C280.36 51.8523 280.341 51.7545 280.302 51.6637C280.263 51.5729 280.206 51.4909 280.134 51.4228C280.063 51.3547 279.978 51.3019 279.885 51.2675C279.793 51.2332 279.694 51.2181 279.595 51.2231H268.213C268.02 51.2231 267.835 51.2998 267.699 51.4363C267.562 51.5729 267.485 51.758 267.485 51.9511V52.0131C267.49 52.2031 267.569 52.3836 267.705 52.5163C267.841 52.6489 268.023 52.7232 268.213 52.7231Z" fill="#F4FAFF"/>
<path d="M263.523 51.9512C263.523 51.8524 263.503 51.7546 263.464 51.6638C263.425 51.573 263.369 51.491 263.297 51.4229C263.225 51.3548 263.141 51.302 263.048 51.2677C262.955 51.2333 262.857 51.2182 262.758 51.2232H261.192C261.085 51.213 260.977 51.2253 260.875 51.2592C260.773 51.2932 260.679 51.3481 260.599 51.4205C260.52 51.4928 260.456 51.581 260.413 51.6794C260.369 51.7778 260.347 51.8842 260.347 51.9917C260.347 52.0993 260.369 52.2057 260.413 52.3041C260.456 52.4024 260.52 52.4906 260.599 52.563C260.679 52.6353 260.773 52.6903 260.875 52.7242C260.977 52.7582 261.085 52.7705 261.192 52.7602H262.758C262.859 52.7602 262.959 52.7402 263.052 52.7013C263.146 52.6624 263.23 52.6055 263.302 52.5337C263.373 52.4619 263.429 52.3768 263.467 52.2831C263.505 52.1895 263.524 52.0893 263.523 51.9882V51.9512Z" fill="#F4FAFF"/>
<path d="M17.1434 49.118C17.5315 49.1193 17.9147 49.2046 18.2667 49.368C18.6187 49.5315 18.9311 49.7693 19.1824 50.065C19.457 49.364 19.8929 48.7376 20.4547 48.2365C21.0166 47.7353 21.6886 47.3736 22.4163 47.1807C23.144 46.9878 23.907 46.969 24.6433 47.126C25.3796 47.2829 26.0686 47.6111 26.6544 48.084C27.4029 46.5747 28.588 45.3253 30.0557 44.4982C31.5234 43.671 33.2059 43.3043 34.8847 43.4456C36.5635 43.587 38.161 44.2299 39.4697 45.2909C40.7784 46.3518 41.7378 47.7818 42.2234 49.395C42.7098 48.8766 43.3407 48.5164 44.0344 48.361C44.7281 48.2057 45.4524 48.2624 46.1135 48.5238C46.7745 48.7852 47.3417 49.2393 47.7415 49.827C48.1413 50.4148 48.3552 51.1092 48.3554 51.82H14.4414C14.4414 51.4655 14.5112 51.1144 14.6469 50.7868C14.7826 50.4592 14.9815 50.1616 15.2322 49.9108C15.4829 49.6601 15.7806 49.4613 16.1082 49.3256C16.4357 49.1899 16.7868 49.12 17.1414 49.12L17.1434 49.118Z" fill="#F4FAFF"/>
</svg>
