<svg  viewBox="0 0 830 243" fill="none" xmlns="http://www.w3.org/2000/svg">
<path d="M798.907 242.977H30.6983C13.7829 242.977 0 229.354 0 212.635V30.465C0 13.7465 13.7829 0.123934 30.6983 0.123934H798.907C815.822 0.123934 829.605 13.7465 829.605 30.465V212.635C829.605 229.354 815.697 242.977 798.907 242.977Z" fill="black"/>
<path d="M798.907 4.82997C813.191 4.82997 824.718 16.2234 824.718 30.3413V212.512C824.718 226.63 813.191 238.023 798.907 238.023H30.6983C16.4142 238.023 4.88669 226.63 4.88669 212.512V30.3413C4.88669 16.2234 16.4142 4.82997 30.6983 4.82997H798.907ZM798.907 0.000154637H30.6983C13.7829 0.000154637 0 13.6227 0 30.3413V212.512C0 229.23 13.7829 242.853 30.6983 242.853H798.907C815.822 242.853 829.605 229.23 829.605 212.512V30.3413C829.605 13.6227 815.697 0.000154637 798.907 0.000154637Z" fill="#A6A6A6"/>
<path d="M291.32 62.2922C291.32 67.3697 289.817 71.4564 286.81 74.4286C283.301 78.02 278.79 79.8776 273.277 79.8776C268.015 79.8776 263.379 78.02 259.745 74.4286C255.986 70.7134 254.106 66.2551 254.106 60.8061C254.106 55.3571 255.986 50.8988 259.745 47.3074C263.504 43.716 268.015 41.8584 273.277 41.8584C275.909 41.8584 278.414 42.3537 280.795 43.3445C283.176 44.3352 285.181 45.6975 286.559 47.4313L283.301 50.6511C280.795 47.8027 277.537 46.3167 273.152 46.3167C269.268 46.3167 265.885 47.6789 263.128 50.4034C260.246 53.1279 258.868 56.5955 258.868 60.9299C258.868 65.2644 260.246 68.7319 263.128 71.4564C266.01 74.1809 269.393 75.5432 273.152 75.5432C277.287 75.5432 280.67 74.1809 283.426 71.4564C285.181 69.7227 286.308 67.2458 286.559 64.026H273.152V59.6915H290.944C291.32 60.4346 291.32 61.3015 291.32 62.2922Z" fill="white" stroke="white" stroke-width="0.16" stroke-miterlimit="10"/>
<path d="M319.637 47.0596H302.847V58.5769H318.008V62.9113H302.847V74.4286H319.637V78.8868H298.086V42.4775H319.637C319.637 42.6014 319.637 47.0596 319.637 47.0596Z" fill="white" stroke="white" stroke-width="0.16" stroke-miterlimit="10"/>
<path d="M339.685 79.0109H334.924V47.0599H324.649V42.6016H349.96V47.0599H339.685V79.0109Z" fill="white" stroke="white" stroke-width="0.16" stroke-miterlimit="10"/>
<path d="M368.254 79.0109V42.6016H373.015V79.0109H368.254Z" fill="white" stroke="white" stroke-width="0.16" stroke-miterlimit="10"/>
<path d="M394.065 79.0109H389.304V47.0599H379.029V42.6016H404.34V47.0599H394.065V79.0109Z" fill="white" stroke="white" stroke-width="0.16" stroke-miterlimit="10"/>
<path d="M452.329 74.3048C448.696 78.0201 444.185 79.8777 438.797 79.8777C433.409 79.8777 428.898 78.0201 425.265 74.3048C421.631 70.5896 419.877 66.1313 419.877 60.8062C419.877 55.481 421.631 50.8989 425.265 47.3075C428.898 43.5922 433.409 41.7346 438.797 41.7346C444.185 41.7346 448.696 43.5922 452.329 47.3075C455.963 51.0227 457.843 55.481 457.843 60.8062C457.717 66.1313 455.963 70.5896 452.329 74.3048ZM428.773 71.2088C431.53 73.9333 434.788 75.2956 438.797 75.2956C442.681 75.2956 446.064 73.9333 448.821 71.2088C451.578 68.4843 452.956 65.0168 452.956 60.6823C452.956 56.3479 451.578 52.8803 448.821 50.1558C446.064 47.4313 442.807 46.0691 438.797 46.0691C434.788 46.0691 431.53 47.4313 428.773 50.1558C426.017 52.8803 424.638 56.3479 424.638 60.6823C424.638 65.0168 426.017 68.4843 428.773 71.2088Z" fill="white" stroke="white" stroke-width="0.16" stroke-miterlimit="10"/>
<path d="M464.358 79.0109V42.6016H470.122L488.04 70.9612H488.291L488.04 63.9023V42.6016H492.801V79.0109H487.915L469.12 49.289H468.869L469.12 56.3479V79.0109H464.358Z" fill="white" stroke="white" stroke-width="0.16" stroke-miterlimit="10"/>
<path d="M418.624 132.139C404.215 132.139 392.436 143.037 392.436 158.021C392.436 172.882 404.215 183.904 418.624 183.904C433.033 183.904 444.937 172.882 444.937 158.021C444.937 143.037 433.159 132.139 418.624 132.139ZM418.624 173.625C410.73 173.625 403.839 167.186 403.839 158.021C403.839 148.733 410.605 142.417 418.624 142.417C426.643 142.417 433.409 148.733 433.409 158.021C433.409 167.186 426.518 173.625 418.624 173.625ZM361.488 132.139C347.078 132.139 335.3 143.037 335.3 158.021C335.3 172.882 347.078 183.904 361.488 183.904C375.897 183.904 387.675 172.882 387.675 158.021C387.675 143.037 375.897 132.139 361.488 132.139ZM361.488 173.625C353.594 173.625 346.702 167.186 346.702 158.021C346.702 148.733 353.594 142.417 361.488 142.417C369.381 142.417 376.273 148.733 376.273 158.021C376.148 167.186 369.381 173.625 361.488 173.625ZM293.325 140.064V151.086H319.888C319.137 157.278 317.006 161.737 313.874 164.833C309.99 168.672 303.975 172.882 293.325 172.882C277.036 172.882 264.256 159.879 264.256 143.78C264.256 127.68 277.036 114.677 293.325 114.677C302.096 114.677 308.611 118.144 313.373 122.479L321.141 114.801C314.5 108.485 305.73 103.779 293.325 103.779C270.896 103.779 252.102 121.736 252.102 143.903C252.102 166.071 270.896 184.028 293.325 184.028C305.479 184.028 314.5 180.065 321.643 172.758C328.91 165.576 331.291 155.297 331.291 147.123C331.291 144.523 331.04 142.17 330.664 140.312C330.664 140.064 293.325 140.064 293.325 140.064ZM571.739 148.609C569.609 142.789 562.968 132.139 549.311 132.139C535.904 132.139 524.627 142.665 524.627 158.021C524.627 172.511 535.653 183.904 550.564 183.904C562.593 183.904 569.484 176.721 572.366 172.511L563.47 166.69C560.462 171.025 556.453 173.873 550.564 173.873C544.8 173.873 540.54 171.272 537.909 166.071L572.867 151.829C572.992 151.458 571.739 148.609 571.739 148.609ZM536.154 157.154C535.904 147.247 543.923 142.046 549.812 142.046C554.323 142.046 558.207 144.275 559.585 147.495C559.46 147.619 536.154 157.154 536.154 157.154ZM507.712 182.294H519.239V106.38H507.712V182.294ZM488.917 137.835H488.541C485.91 134.863 481.023 132.139 474.758 132.139C461.727 132.139 449.698 143.532 449.698 158.021C449.698 172.511 461.727 183.78 474.758 183.78C481.023 183.78 485.91 181.056 488.541 177.96H488.917V181.675C488.917 191.582 483.529 196.908 475.009 196.908C467.992 196.908 463.606 191.954 461.852 187.743L451.828 191.83C454.71 198.641 462.353 207.062 475.009 207.062C488.541 207.062 499.818 199.26 499.818 180.189V133.748H488.917V137.835V137.835ZM475.76 173.625C467.866 173.625 461.226 167.062 461.226 158.021C461.226 148.857 467.866 142.294 475.76 142.294C483.529 142.294 489.669 148.981 489.669 158.021C489.669 167.062 483.529 173.625 475.76 173.625ZM625.618 106.256H598.177V182.17H609.58V153.439H625.618C638.398 153.439 650.803 144.275 650.803 129.909C650.803 115.42 638.273 106.256 625.618 106.256ZM625.869 142.913H609.58V116.906H625.869C634.389 116.906 639.276 123.965 639.276 129.909C639.276 135.73 634.389 142.913 625.869 142.913ZM696.788 132.015C688.518 132.015 679.872 135.606 676.364 143.656L686.513 147.866C688.643 143.656 692.778 142.294 697.038 142.294C702.927 142.294 709.067 145.885 709.067 152.077V152.82C706.937 151.582 702.552 149.848 697.038 149.848C686.137 149.848 674.861 155.792 674.861 166.938C674.861 177.093 683.882 183.657 693.906 183.657C701.674 183.657 705.935 180.189 708.566 176.226H708.942V182.047H719.968V152.944C720.093 139.569 709.944 132.015 696.788 132.015ZM695.41 173.625C691.651 173.625 686.388 171.768 686.388 167.186C686.388 161.365 692.904 159.012 698.542 159.012C703.554 159.012 705.935 160.127 709.067 161.613C708.065 168.672 702.05 173.625 695.41 173.625ZM760.44 133.625L747.283 166.566H746.907L733.25 133.625H720.845L741.269 179.57L729.616 205.205H741.645L773.22 133.625C773.22 133.625 760.44 133.625 760.44 133.625ZM657.068 182.294H668.596V106.38H657.068V182.294Z" fill="white"/>
<path d="M64.0274 45.8213C62.2732 47.6789 61.1455 50.6511 61.1455 54.3663V188.734C61.1455 192.449 62.1479 195.422 64.0274 197.279L64.5286 197.651L140.71 122.355V120.621L64.5286 45.3259L64.0274 45.8213Z" fill="url(#paint0_linear)"/>
<path d="M166.021 147.495L140.711 122.355V120.621L166.147 95.4816L166.773 95.8531L196.845 112.819C205.365 117.649 205.365 125.575 196.845 130.405L166.773 147.247C166.648 147.123 166.021 147.495 166.021 147.495Z" fill="url(#paint1_linear)"/>
<path d="M166.648 147.123L140.711 121.488L64.1533 197.155C67.0352 200.127 71.6712 200.499 76.9338 197.527L166.648 147.123Z" fill="url(#paint2_linear)"/>
<path d="M166.647 95.8531L76.8078 45.4498C71.5453 42.4776 66.9092 42.8491 64.0273 45.8213L140.585 121.488L166.647 95.8531Z" fill="url(#paint3_linear)"/>
<defs>
<linearGradient id="paint0_linear" x1="133.879" y1="190.08" x2="7.67456" y2="60.8814" gradientUnits="userSpaceOnUse">
<stop stop-color="#00A0FF"/>
<stop offset="0.0066" stop-color="#00A1FF"/>
<stop offset="0.2601" stop-color="#00BEFF"/>
<stop offset="0.5122" stop-color="#00D2FF"/>
<stop offset="0.7604" stop-color="#00DFFF"/>
<stop offset="1" stop-color="#00E3FF"/>
</linearGradient>
<linearGradient id="paint1_linear" x1="207.848" y1="121.497" x2="21.5182" y2="121.497" gradientUnits="userSpaceOnUse">
<stop stop-color="#FFE000"/>
<stop offset="0.4087" stop-color="#FFBD00"/>
<stop offset="0.7754" stop-color="#FFA500"/>
<stop offset="1" stop-color="#FF9C00"/>
</linearGradient>
<linearGradient id="paint2_linear" x1="101.208" y1="158.235" x2="-69.9364" y2="-16.9689" gradientUnits="userSpaceOnUse">
<stop stop-color="#FF3A44"/>
<stop offset="1" stop-color="#C31162"/>
</linearGradient>
<linearGradient id="paint3_linear" x1="-6.51266" y1="191.235" x2="69.9109" y2="112.999" gradientUnits="userSpaceOnUse">
<stop stop-color="#32A071"/>
<stop offset="0.0685" stop-color="#2DA771"/>
<stop offset="0.4762" stop-color="#15CF74"/>
<stop offset="0.8009" stop-color="#06E775"/>
<stop offset="1" stop-color="#00F076"/>
</linearGradient>
</defs>
</svg>
