<svg xmlns="http://www.w3.org/2000/svg" width="306" height="250.777" viewBox="0 0 306 250.777"><defs><style>.a{opacity:0.9;}.b{fill:#a87365;}.c{fill:#6b473c;}.d{fill:#ffb7a4;}.e{fill:#65c5db;}.f{fill:#224066;}.g{fill:#141414;}.h{fill:#e37625;}.i{fill:#ffb178;}.j{fill:#5b5b5b;}.k{fill:#e0bb5c;}.l{fill:#756438;}.m{fill:#5e310f;}.n{fill:#fff;}.o{fill:#ffa44f;}.p{fill:#ff4f4f;}</style></defs><g class="a" transform="translate(0 0.001)"><g transform="translate(0 -0.001)"><path class="b" d="M83.431,38.78c-2.218,16.634-11.442,75.61-58.825,57.514-11.644-13.358-1.26-53.23,9.527-75.157A37.3,37.3,0,0,1,48.146,6.62L78.39,26.783A12.8,12.8,0,0,1,83.431,38.78Z" transform="translate(78.727 26.752)"/><path class="c" d="M21.05,21.694s21.826-3.125,29.236-9.174c-4.285,7.46.756,32.664.756,32.664s-20.163-6.6-29.589,1.462C21.4,40.7,21.05,21.694,21.05,21.694Z" transform="translate(85.056 50.592)"/><path class="d" d="M119.1,26.769c-7.561,5.494-21.524,43.148-21.977,57.01-.353,20.516,14.87,48.945,14.87,48.945,5.444,19.457-44.862,33.218-44.862,33.218l2.117,77.677L5.685,232.529A197.443,197.443,0,0,1,19.547,126.02c9.224-12.2,37.049-75.61,54.137-84.784C85.227,26.113,97.627,1.364,122.73.607,146.068-.4,176.413-2.215,175.606,14.721c0,4.738-3.579,7.057-8.015,8.62C147.479,30.247,135.029,23.19,119.1,26.769Z" transform="translate(14.478 0.001)"/><rect class="e" width="76.316" height="29.942" transform="translate(10.132 169.672)"/><rect class="f" width="94.916" height="64.168" transform="translate(0 186.609)"/><path class="g" d="M29.235,50.223a7.763,7.763,0,1,1-7.763-7.763h0A7.763,7.763,0,0,1,29.235,50.223Z" transform="translate(55.398 171.57)"/><path class="d" d="M36.866,27.156l38.612-3.73A25.2,25.2,0,0,1,102.4,45.807v.3a5.041,5.041,0,0,1-4.688,5.041L70.941,48.982,21.089,59.064C18.367,59.467,36.866,27.156,36.866,27.156Z" transform="translate(84.11 94.378)"/><rect class="h" width="96.579" height="159.437" rx="2.82" transform="translate(145.81 121.849) rotate(-89.55)"/><path class="i" d="M35.867,21.044c.4-.454.655-.5-.3-1.361s-1.512-.958-1.311-1.815-.4-.756.353-1.059a5.6,5.6,0,0,1,2.016-.655c1.361,0,2.873,0,1.613-.857s-1.26,0-1.764-1.008-1.563-1.411.4-1.411,1.865-.706,1.966,0,1.462,1.512.857,0-1.915-1.361-.907-2.016a3.629,3.629,0,0,1,1.865-.857c.756,0,0,0,1.512-.706s1.21-.756,2.117,0,.6,1.512,1.563,1.613.756-1.411,1.26,0,0,1.613,1.109,2.117,0,.958,1.512,0,.857-1.663,1.764-.807,0,.706,1.764,1.059,1.764.857,1.512,1.21-.807,1.008,0,1.361.706-.554,1.613.252.554,1.663,1.865.454.706-.857,1.563,0,0,.655,1.26,0,.958-.353,1.865,0,1.462-2.067,1.311,0,0,.655,1.26.5,1.462.3,1.21.706A2.319,2.319,0,0,1,65,19.331c-1.26,0-.655,0-2.268.958s-.5,1.361-1.915,2.369-.958,1.865-.5,2.42,1.411-.706,1.663.907.655,0,1.059,2.016.807,3.075,1.008,1.714a5.041,5.041,0,0,0,0-2.167c0-.756,1.714.6,1.512-.807s-.857,0,0-1.714.806-1.109.857-1.966,1.109-2.218,1.512-1.26-.806.6,0,1.26,1.21-.3,1.008,1.008.3,2.369.806,1.411,0-2.369.706-1.26.807,1.462.655,2.167-1.059,1.21-.4,1.663.353,0,.706.454,1.361-.353.6.907.554,2.47-.756,2.067-.554-1.411-1.915-.5-.454,0-.454,1.26,1.21,1.311-.5,1.663-1.311-.807-2.117.6.4,1.26-1.109,1.815-1.361,1.361-1.865,2.117-1.613-.4-1.865,1.865,0,3.226-.3,2.722a2.217,2.217,0,0,0-.4-.756h-.706c-.706,0,1.613-1.512-1.109-1.008s-1.563,1.059-2.873.907-3.125,0-2.571,1.663,1.613,1.361,1.865,2.52,1.915,1.966,1.512,0S58.1,43.677,58,44.786A8.922,8.922,0,0,0,58,47.1c0,1.411-.857.807.756,1.109s0,2.016,1.109,2.319.807-.554,1.613,0,.907.907,1.159,0,2.167-2.319,2.016-1.109.857.6,1.462.554.3-1.109,1.663,0,.806.6,1.915.907.4,0,1.26,1.059,2.268.6,2.168,1.764a3.729,3.729,0,0,0,0,1.109c0,.706-.756,1.21.756.6s1.512-1.613,2.268,0,.252.353,1.613.655,1.815,0,1.311,1.21.554.857-.6,2.42-1.411,2.117-1.21,3.327,1.613,1.311-1.008,1.462-2.924,0-2.772,1.714,0,1.663-.806,2.52-1.26,1.109-1.21,1.613-.454.554-1.311.907-1.311,0-1.411.958,0,.655-.706,1.109,0,0,0,.807,0,1.059-.4,1.21-1.21-.554-.353,0,1.411.756.857,1.159-1.21,0-.756.454,1.764.655,1.311,1.008-1.311-.756-1.109.3.554.5.706,1.512,1.512.958.454,1.26-.807,1.159-2.42-.5-2.218,0-1.714-2.47.554-2.823.3-3.377-1.26.756-.3-1.462,1.109-1.411,0-2.722-2.218-.5-.857-1.764.907-.756.6-2.42-.3-1.663,0-2.52,1.059-1.26,0-1.815-.554-.4-1.26-1.311,0,1.159-1.21-.958,0-1.008-1.411-2.42-2.47,0-1.361-1.714,1.613-1.462,1.563-2.672.353-1.059-.454-1.563-.907-.353-1.462-1.26,0-.3-1.008-1.109.454,0-1.311-.807-1.311-1.361-2.016-.958.3.756-1.311.252-.857.252-2.067-.958-1.26-1.411-1.26-1.865a3.176,3.176,0,0,0-.655-2.672c-1.008-1.26,0-1.714-1.109-2.117s-.857-.907-.807.4.756,1.915.6,2.772,0,1.26-1.008-.655-.907-.857-1.26-2.47,0,.756-.554-2.117-2.167-2.722-.706-4.637S46.3,31.529,45.8,29.815s.353-.655-.5-2.52.454-2.621-.353-3.226,0-.958-.958-2.117.807-1.311-1.462-2.016-1.26,0-2.621-.756-.807-.958-2.218,0-.5,1.512-1.764,1.966-2.067,1.411-2.672,1.411-2.47.5-.454-.907S34.657,22.657,35.867,21.044Z" transform="translate(128.812 35.364)"/><path class="i" d="M41.445,17.562c-.5,0-.857-.554-1.159,0s0,.554.353.554,1.059,0,1.109.6,0,.353.554.756,1.764,1.563,1.663.857-.907-1.008-.4-1.159,1.361,1.159.806,0-1.159-1.411-.554-1.613,0-.353,1.008.252,1.714.756,1.361,0-.857-.706-1.059-1.462,0,0,0-1.059.3-1.26-.353-1.764,0,.554-.655-.454-.706,0-.857-1.21,0-2.016-.5-1.563.4,1.109-.706.4-.4-1.159-1.462-.958,0,.3-1.008,1.059-1.411,1.21-.706,1.764.3,0,1.159.907.353,0,1.462.454,1.26,0,1.008,1.159,0,.756,0,1.462a2.671,2.671,0,0,1-.554,1.059C41.445,17.562,42.05,17.814,41.445,17.562Z" transform="translate(155.645 39.2)"/><path class="i" d="M37.651,13.452c1.109,0,0-1.008,0-1.26s.6-.454,0-.807-1.613-.706-1.159-.807-.353-.353.554-.807,0-.353,1.159-.554,1.512-.4,1.311.5-.353,1.059.353.958,2.067,1.361,2.016.655,0-1.361.806-.706,0-.3.807.353-.554,0-.907,1.311.6,1.109,0,1.663,0,1.663-.655,1.311-.655-1.159-1.361-.756,0,.756-1.21.454-.5,0-1.21-.353S37.147,13.553,37.651,13.452Z" transform="translate(146.989 36.555)"/><path class="i" d="M42.046,13.006c0,.4-.655,0-1.361.4s-.6.5,0,.807,1.966.4,1.159.655-2.016-.5-1.663,0,0,.3.907.857l1.159.655c1.159.655,1.159.353,1.159,1.059a6.152,6.152,0,0,0,0,1.361c0,1.311.3,1.059,0,1.764s0,0,.3.907.454.454-.4.907-.554.4,0,.958,0,.554-.353,1.21.454.756,0,1.563-.5.353,0,1.563.4,1.311,1.109,1.714,1.311,1.764,1.512,0,0-1.21.554-1.865-.4-.756,1.311-1.311.756-.3,2.067-1.26.807,0,2.067-1.008,1.311-1.059,1.109-1.411-.6-.756,0-.5,1.563.857,1.059,0-1.714-.706-.554-1.361,1.008-.756,1.008-1.059.5.3.554-.706-.353-1.008,0-1.512,1.059.5.6-.706-.907-1.159,0-2.067.554-.807,1.059-1.361.5,0,.807-1.059.706-1.462,0-1.008,0,0-1.361.5-1.512.958-1.815.958,2.016-1.411,1.613-1.663,0-.4-.907,0-1.109.706-.756,0,.454,0,.907-.756.4-.554.756-.4.857-.4,0-.655,0,0-1.008-.756,0-.907-1.764-.4-.4.554-1.512.3-1.764.1-1.764.807,0,1.361-.4.857-.454-1.764-.706-.454-1.008,2.571-1.008,1.411.554-2.117-.353-1.613-.857.6-1.21.4,0-.706-.706,0,0,1.159-.706,1.008-1.059-1.008-1.26,0,0,0,0,1.159,0,1.26-.454.857S42.146,12.754,42.046,13.006Z" transform="translate(162.102 31.204)"/><path class="i" d="M76.5,14.319c.252-.3,0-.454-.3-.706s-1.563-.4-.806-.958,0-.454.907-.807,0,0,.655-.6.5-.454.857-.3,0-.655.655,0,.857,0,.554,0,.252-.3,0-.5-.958,0-.454-.756.857-1.462,1.159-.655.5.4.756.655,0,.756.252.756,0-.655.756-.756.958-.5,1.311.353,1.059,0,.4,1.512-.907,2.117-.706,2.42a.554.554,0,0,0,.958-.4c0-.756,0-1.159.5-.857s.655,0,1.008,0,.353-.5.958,0,0,0,.756,0,1.411.4,1.311,0-1.059-.907,0-.857h1.411c.907,0,.5-.4.756.655s0,.958.655,1.21.958.807.958,0-.554-.907,0-.907-.5-.3.857-.3,1.512.454,1.008-.5-1.361-1.411,0-1.26,1.159.5,1.462,0-.3-.857.907-.454.706-.4,1.21.4.353,1.815,1.361,1.059,0-2.167,1.512-1.21.4.706,1.059,1.26.6.655,1.159,0,0-.5,1.059-.655.655-.806,1.159-.806,0,0,.807.6,1.159.907.706,0-.756-.706-.958-1.109,0-.4.756,0-.655-.554,1.311,0,1.966.5,2.47.353.6-.756,1.462,0,1.008.907.806.353,0-1.764.655-.907,1.21.4.907,1.361.4.857.353,1.462,0,1.109-.907.655-.807-.958-1.411-.4-.454,0,0,.756.454,1.109,0,1.21-.3-.353-.706,0-.252,0,0,.353a2.47,2.47,0,0,0,1.21,1.008c.655.252,1.21,0,.655.706s-.857,0-1.008.807-.554.5-.6,1.512.353.807-.454.807a1.714,1.714,0,0,0-1.613.706c-.4.554,0,.857,0,1.361s-.252.4.4,1.008.3.554,0,1.311.554,0,.3,1.159-.554.3,0,1.159.3.353,0,1.159,0,.454-.6-.3a4.486,4.486,0,0,0-1.059-1.663c-.806-.857-1.21-.353-.756-1.512s.655-.907.454-1.462-.5.252,0-.857l.6-1.966V18.654c0-.807-.6-.958-.554-.353s.756.353,0,1.109-.353,1.159-.756.454-.554-1.159-.807-.5.454-.353,0,.706,0,.907,0,1.613-1.109.6-1.21,1.109.3,0,0-.454-.756-.353-.907,0,0-.958-.655,0-.655.554-1.059.958-.353.756-.806,1.462-1.311.3-.756,1.311a11.736,11.736,0,0,0,.857,1.311c.353.6.4-.807.958-.3s-1.059,0,.706,1.109-.756,0,0,.706.706,0,.554,1.26c0,2.117-.454.655-.3,2.218s.353.958,0,1.815,0,.958-1.059.907-1.008-.5-.907.252-.454-.756-.252.6-.958.857-.454,1.512a3.881,3.881,0,0,0,.907.907c.554.454.857,0,.655.756s-.3,1.159-.857.907,0-.706-.6-1.059-.6,0-.655-.807,0-.958-.706-.907-.5.353-.958.353,0,0,0-.5-.6-.655-.655,0-.807,0-.6.756,0,.807.454,1.109,0,0,.756,0,1.361,0,.655.3-1.411.252-.857.958.353.3.706.958.3.4.454.958.6.4,0,1.109a9.727,9.727,0,0,0-.555,1.714,1.26,1.26,0,0,1-.655,1.311l-1.361.5c-.655.252-.706.655-1.159.706s-.6-.3-1.21,0-.756,0-.756.857.857,1.311,1.109,1.663,0,0,0,1.008.454.807-.4,1.361-.554.807-1.26,0-.907-1.059-1.512-1.008-.857,0-.706.806,0,1.059.353,1.512.5,0,1.109.807,1.159.655,1.059,1.411-.3,1.311-.907.353-1.008-1.008-1.059-1.512,0-.353-.655-1.109-1.059-.5-.706-1.462.353-1.109,0-1.714,0-1.26-.756-1.008-.706,0-.807-.252,0-.756-.353-.907-.3,0-.554-.706,0-.958-.857-.6-.655-.6-1.26.353-.907,1.21-1.361,1.311.252,0-.756.807-1.462.554-1.109,1.462,1.008,1.008.353,1.865.454.655-.958-.655-1.613-.4-1.815-1.815a13.613,13.613,0,0,0-.252-1.966c0-1.059-1.059,0-1.512-.958l-.807-1.008c-.806-.907,0-1.008-1.512-.706s-.706,0-2.016,0-.4,0-1.26-.3,0,.454-1.159-.454-.756-1.008-1.512-1.008-1.159,0-.6.807,0,.807,1.109,1.311.454.6,1.361,0,.706-1.008,1.008,0,.3,0,.857.5,1.311,0,.6.958a6.1,6.1,0,0,1-1.059,1.21,3.478,3.478,0,0,1-1.714,1.21c-.655,0-.706,0-1.008.706s0,.706-.756.554-1.21-.252-1.663,0,0,.958-.655-.5,0-.756-.807-1.714-.907-.907-.907-1.512.454,0-.3-.857,0-.3-.756-1.21-3.075-2.067-1.966-.655,1.008.857,1.462,1.865,0,.554.554,1.361.353.958.857,1.512.655.3.706.857,0,.958.6,1.26.5.4,1.159.554,0,0,1.059,0H70.3c.857,0,.756-.454.353.655s0,.353-.4,1.109-.4,0-.857,1.21-.5.756-1.059,1.311-.706.5-1.059,1.059-.454-.3-.857.5l-.4.807c-.4.807,0,.353,0,1.563v1.865c0,.807.454.958,0,1.361s-.857,0-1.462.756-.353.655-.353,1.462h0s0,.454-.807.706,0,0-.807,1.26-.5.5-1.311,1.26,0,.3-1.462.907-1.865,1.311-2.52.454,0,0-.706-1.311-.807-.554-.857-2.016,0-1.26-.353-1.815.454,0-.454-1.159-2.167,0-.958-1.563,1.815-1.411,1.361-2.167.6-.454-.252-1.714-.655-.706-1.008-1.563-1.008-.353-.756-1.109,1.26-1.563.5-1.915a3.73,3.73,0,0,0-1.764-.5s-.252-.655-.6-.756-.353,0-1.21.3a2.873,2.873,0,0,1-1.563.3c-.857,0-1.159.3-2.016,0s.554.353-1.109-.655-1.411,0-1.966-1.411-1.159-.5-.655-1.764.655-.6.4-1.815-.806-.4,0-1.714.4-.6,1.008-1.512,1.008,0,1.663-1.21,0,0,.5-1.411-.655-.454.5-1.21.5-1.008,1.714-.655-.706,1.411,1.21.353,1.159-1.26,2.47-.958,0,0,1.26,0,0,0,.5,1.109-.958.706.655.907.353,0,1.663.706,1.311,1.764,1.613.4-1.008-1.915.655-1.411,1.512.655,2.268.655h1.311c1.311,0,0,1.563,1.159,0s1.815-1.966.756-2.167-.706,0-1.865,0-.706.6-1.361-.5.655-1.159-.756-1.361-1.411-.5-1.411.454,0,1.21-.756,0,.554-.655-.5-1.613a9.779,9.779,0,0,0-2.016-1.109c-.5-.353-.907-1.563-1.008-.706s1.008,1.512,1.462,2.067.454.554,0,1.008-.756.907-.706.252,0-1.059-.5-1.311.4-1.159-.756-1.159-.5.756-1.613.4-1.311-1.159-1.563,0-.655.807-.907,1.361.454.655-.554,1.159-.807,1.109-1.613.655-1.159,0-1.311-.706.806,0,.353-1.26-1.462-.807-.454-1.21.6-1.008,1.865-.554,1.311.958,1.311,0,.554-1.613,0-1.663-1.563,0-1.059-.5,0-.4.907-.4.4.756,1.109-.353-.6-.6.706-1.059,1.311.4,1.26-.454,0-.353.4-.907,0-.958,0-1.563.655-1.462.706-.454-.454,1.563,0,1.563a3.327,3.327,0,0,1,1.411,0c.706,0,.706.3,1.462,0s.4-.6.756-.4,0,.454,0-.454,0-1.714.655-1.159.6,1.109.756.353-1.008,0-.5-1.008.454-.857.958-.5,2.016,0,1.059-.4-1.008-.907-1.462-.454-.454,1.21-.907.807,0-.6-.6-1.008-.706-.655-.3-1.059.756,0,.806-.756,1.059-.4.5-1.008-.5-.6-1.008,0,0,0-.554.857-.6,0-.958,1.109,0,.4,0,1.462v1.26c0,.353.454,0,0,1.008s-.806,1.361-1.159.706-1.109-.5-.958-1.311.907-1.411,0-1.008-.353.554-1.109.706-.6,1.21-.706,0-.4-.958,0-1.815,0-.706.857-1.311.958-.3,1.059-1.059,0,0,.706-1.109,1.059-.756.857-1.411,0-.353,1.311-1.361S57.6,17.646,58.305,18.3s.554.706,1.21.857-.655,0,.958.4,1.008,0,1.915.5,1.411.353,1.159,1.26,0,1.059-1.109.857-1.159-.6-1.462-.3-1.563-.6-.6,0,.907.554,1.159,1.159.655,1.059.807.655.6.252,0-.4-.454-.6.353-.454.5.353.5-.454,0-1.462.5-1.008.6,1.21.655.4-.3-.756-.3-1.21-.857-1.008,0-.807,1.21,0,1.008.5-.958,1.563,0,.807.6.807.807,0a2.117,2.117,0,0,1,.6-1.26h0l2.47-.353h-.3c1.059,0,1.109-.353.857-.6s-.353,0-.454,0a1.008,1.008,0,0,0-.6-.4c-.4,0-.4-.554-1.21-.6s-1.361,0-1.411-.857a11.844,11.844,0,0,1,.454-2.672c0-1.059,0-1.815.756-2.067a2.873,2.873,0,0,0,1.411-.706c.5-.454,1.059-.6.907,0a1.815,1.815,0,0,1-.756,1.411c-.756.706-.353,0-.857.907s-1.26.6-1.059,1.815,0,.907.907,1.613,1.512,1.563,2.369,1.26,0,0,.907,0h0l.5.3c.5.3,0,.706.554,0s.3-.4,0-.6-.3-.554-.5-.554-.5,0-.554-.4a1.966,1.966,0,0,1,0-.554s-.3,0,0-.6,0-.554,0-.756-.5-.353,0-.655.353-.5.807,0,.554-.454.454.3a4.285,4.285,0,0,0,0,1.159l.4.655c.3.5,0,.454.3.857s.3,0,.5.6,0,.353,0,.857a.655.655,0,0,1-.454.756c-.252,0-.353,0,0,.353s.4.353.655,0,.353,0,.454-.454a2.469,2.469,0,0,0,0-.857c0-.454-.3-.756,0-.907s0-.706.554,0,.4,1.059.5.756,0,0,0-.6-.353-.353-.554-.554-.4-.3-.554,0,0,.554-.4,0-.454,0-.4-.706a2.37,2.37,0,0,0,0-.706.494.494,0,0,1-.5-.5v-.554c0-.554,0-1.21.3-.454s0,1.008.554.907.353,0,.5,0,0,0,0-.4-.807,0-.353-.353-.554-.353,0-.6.756-.3.907,0,.655,0,.756.554,0,.756.353,1.059.857.807.554,0a8.672,8.672,0,0,1-.353-1.059c0-.4,0,0-.4-.454s0,0-.655-.4-.5.454-.5-.1-.4-.706.252-.756a2.511,2.511,0,0,1,.655,0c.353,0,.252-.353.5,0Z" transform="translate(172.709 35.032)"/><path class="i" d="M55.939,12.321l.454.6c.454.6.4.5.5.907a2.773,2.773,0,0,0,.655.857,1.714,1.714,0,0,1,0,1.008.5.5,0,0,1,.5.5c0,.5-.706-.353-.706,0a.756.756,0,0,0,0,.655h0s.655.5.706.706-.454-.4-.5,0-.3,0,0,.756.353.5.857.907,1.008,0,.806.6-.655,0-.6.454-.353.706-.5,0-.554-.807-.3,0,0,.706.4,1.008.4.454.353.756-.353,0,0,.807a1.916,1.916,0,0,1,0,1.059c0,.6,0,.706-.353.807s0,.454-.756.706,0,0-.554,0-.706-.3-.857.353,0,.454-.655.907-1.008,1.059-.857,0,0-1.411.353-1.462.6-.756.958-.756.454.5.655,0,0-.554.4-.706.655.353.706-.3a5.844,5.844,0,0,0,0-.958V21.7c0-.4-.4-.655-.454-1.21s.6-.756,0-1.26-.454-.5-.4-1.361a6.452,6.452,0,0,0,.3-1.865c0-.807,0-.706,0-1.109a2.636,2.636,0,0,0-.5-1.159c-.2-.353,0-.3-.454-.807S55.788,12.119,55.939,12.321Z" transform="translate(220.189 49.532)"/><path class="i" d="M48.156,22.628c.252.3-.454,0-.5,1.159s-.3,1.21.5,1.311,1.21,0,1.26-.454-.958-.252,0-1.159a2.218,2.218,0,0,0,.958-1.663c0-.655.655-.857.454-1.411s0-2.067-.554-1.059,0,1.663-.907,1.663-1.411.3-1.361.756S47.9,22.325,48.156,22.628Z" transform="translate(192.234 76.828)"/><path class="i" d="M60.163,21.256c.353,0,.5,0,.5-.252s-.4-.5.353-.907.554-.4,1.26-.5.907-.353,1.311,0,.3,0,0,.706-.756.706,0,1.059.554,0,.857.6,0,.907.6.4.706,0,.806-.655a5.042,5.042,0,0,0,0-1.26c0-.353,0-1.815.554-1.26s0,.907.4,1.411.655,0,.554.6-.4.655,0,1.26,0,.655.655.958.6,0,.6.706-.3.4.3,1.008.706,0,.756.907a5.494,5.494,0,0,1,0,1.815c0,.706,0,.252-.4,1.21s-.907.5-.907,1.462,0,.807-.5,1.26-.353.857-.706,1.21-.3,0-.958.454-.857.6-1.008,0,0-.655-.5-.353,0,.454-.756,0-.807,0-.807-.5.3-.857,0-1.109,0-1.059,0-1.361-.3-.706-.5,0-.958,1.764-.958.706,0-.958-.353-1.26-.554-.907-1.26-.6,0,.454-1.059.4H57.441s0,.756-.6.454-.907-.454-1.311,0,0,1.008-.958.554-1.512,0-1.059-.756.6-.6.554-1.008-.554-.5-.4-1.059V24.785c0-.554,0-.756.554-1.008s0-.454.958-.6.907,0,1.462-.454,0-.756.857-.807.554,0,.756-.353,0-1.059,0-.756,0,.6.5,0S59.81,21.055,60.163,21.256Z" transform="translate(215.563 77.04)"/><path class="i" d="M55.69,22.33s-.5.252,0,.958,0,1.008.454,1.059,0-.454.554-.756a1.714,1.714,0,0,0,.655-.907c0-.3-.3-.706-.454-.353s0,.655-.454.5S55.841,22.129,55.69,22.33Z" transform="translate(224.118 89.677)"/><path class="i" d="M57.391,26.218c0,.252-.958-.454,0-.857s.706-.454,1.159-.857,0-.353.806-.5,0,0,.655-.6.3-1.159.756-.857.958,0,.655.6-.252,0-.6.6,0,.807-.554,1.008-.807,0-.958.4,0,1.008-.5,1.059-.454.3-.807.353S57.593,26.016,57.391,26.218Z" transform="translate(230.179 90.729)"/><path class="i" d="M58.8,25.463s-1.462,0-.857-.554.6,0,.958-.5.5-.5.353-.756,0,0,0-.756-.554-1.159-.252-1.21.353,0,.454.4a4.436,4.436,0,0,1,0,1.159c0,.5,0,0,.4.5s0,.3.554,0,.554.252,0,.454-.756,0-.857.5,0,.4,0,.756,0,.3-.554.554-.756,0-.4,0S58.8,25.363,58.8,25.463Z" transform="translate(233.555 87.552)"/><path class="i" d="M52.312,17.732c-.655.353-.5,0,.6.857s.907.4,1.109,1.21a2.924,2.924,0,0,0,.655,1.311,4.033,4.033,0,0,0,1.159,1.109c.353.252.958.807.958,0s-.454-.807-.554-1.311-.454,0-.807-.857,0-.807-.907-1.159a7.359,7.359,0,0,1-1.411-1.059.907.907,0,0,0-.806-.1Z" transform="translate(209.803 71.441)"/><path class="i" d="M52.971,18.826s0-.252.554,0,0,0,.5,0h.857s-.4-.353.3,0,.706,0,.958.3.756.857,0,.655-.807-.4-1.361-.3a2.067,2.067,0,0,1-1.109,0,1.26,1.26,0,0,1-.807-.3S53.122,18.674,52.971,18.826Z" transform="translate(213.631 75.438)"/><path class="i" d="M56.08,22.077c.252,0,.5-.252.655-.756s-.3-.655.3-.857,0,0,0-.655-.4-.6,0-.958.454-.353,0-.655-.454-1.008-.806-.5-.454.907-.907,1.159-.3,0-.706.554,0,.706-.554.706-1.26-1.109-.706,0-.4,0-.3,0,.353.3.554.857,0,.655.655.756.353,0,.857.252S55.879,21.926,56.08,22.077Z" transform="translate(214.352 70.776)"/><path class="i" d="M55.162,18.591c-.4-1.008.5-.252,1.008.454s0,1.21.706.706.655-.907,1.311-.5.655.454,1.059.5.554-.252.907.252.4,0,.706.454.3.3.6.706,0,.6.454.907,1.059.353.756.6,0,.5-.756,0-1.109-.958-1.411-.958-.3.3-.756.454a3.428,3.428,0,0,1-1.26,0h-.958s.706-.5,0-.807-.4-.807-1.109-.706-.958,0-.958-.454a.756.756,0,0,0-.5-.756A5.45,5.45,0,0,0,55.162,18.591Z" transform="translate(222.076 73.152)"/><path class="i" d="M54.648,16.595c-.4,0-.807.353-.454,1.008s-.806,1.008,0,1.462,1.159,0,.958,0-.706,0,0-.706.5-.756.353-1.109,0-.907-.4-.706S54.8,16.645,54.648,16.595Z" transform="translate(217.801 66.68)"/><path class="i" d="M54.522,19.523c0,.252-.4,0-.3.655s0,.958.3,1.159.454,0,.353-.454-.353-1.008,0-.756,0,0,.353.554.6.907.6.554V19.472s.353-.4,0-.4,0,0-.6.252,0,0-.4,0-1.21-.6,0-.5,1.663,0,1.411-.252-.353-.756-.756-.4a.857.857,0,0,1-.958,0s-.857-.454-.6,0A2.571,2.571,0,0,0,54.522,19.523Z" transform="translate(217.675 72.574)"/><path class="i" d="M52.259,9.021a.806.806,0,0,0,0,1.059.706.706,0,0,0,.4.252c.554,0,1.008.907,1.311.3s.6-1.008.958-.907,1.059.454,1.059,0,0-1.21-.6-.958-.807.6-1.361,0-1.008-.857-1.159-.4a1.008,1.008,0,0,1-.6.655Z" transform="translate(210.361 32.87)"/><path class="i" d="M50.067,10.293c-.655,0,0-.554,0-1.008s-.907-1.21-.353-1.008.454.454.907.6,1.26,0,.655.554-.807.907-1.059,1.008S50.218,10.243,50.067,10.293Z" transform="translate(200.153 33.312)"/><path class="i" d="M52.427,10.827l-.5-.706c-.5-.706-.353-.353-.857-.706s-.3,0-.807-.706S49.252,7.4,49.1,8.307s-.706.857,0,1.361.857,0,1.21.706,0,.655.958.655S52.125,11.18,52.427,10.827Z" transform="translate(196.985 31.719)"/><path class="i" d="M45.875,10.105c0,.454-1.663-.454-1.059.454s.706.454.807,1.26.252.907.655,1.159.5.907.655.3a4.487,4.487,0,0,0,0-1.159c0-.4,0-1.26.454-.6s.756,1.411.857.857a1.361,1.361,0,0,0-.4-1.109s-1.26-.756,0-.807,1.008,0,1.159-.454.857-.5,0-.554S48.093,8.9,47.538,9s-.554-.655-.655,0-.252,1.109-.6,1.109Z" transform="translate(180.553 35.264)"/><path class="i" d="M44.8,13.444c0,.5-.4.4-.857.3s0,0-.655-.353-.6-.4-.6-.756-.3-1.663,0-1.109.4.706,1.059.5.806-.655,1.26-.4.756.655.4.958S44.8,13.141,44.8,13.444Z" transform="translate(171.944 46.04)"/><path class="i" d="M44.458,13.09c0-.4,0,.4-.5.454s-.454,0-.353.706-.554.706,0,.907.554,0,.907-.353,0-.5.454-.907.454-.756,0-.807A1.354,1.354,0,0,0,44.458,13.09Z" transform="translate(175.265 52.442)"/><path class="i" d="M44.129,12.7c-.554,0-.6,1.008,0,1.26s0,0,.554.5.958.807.4.958-.756,0-.5.454.706.4.454.655-.6,0-.706.554,0,0,.4,0H46.2s.554-.5.554-.706v-.353a1.109,1.109,0,0,0-.806-1.109c-.3,0-.5,0-.554-.6a4.283,4.283,0,0,1,0-.857s0-1.159-.554-.807S44.482,12.754,44.129,12.7Z" transform="translate(176.552 50.862)"/><path class="i" d="M44.579,11.1c.3.4,0,.857.3.4s-.655-.6,0-.706a2.016,2.016,0,0,1,.806,0c.353,0,.3-.454.807,0s.454,0,0-.4-.353,0-.807,0-.353.554-.655,0-.6,0-.807,0,0,0-.5-.554,0-.655,0-1.059-.5-1.462.706-.907.857.756,1.311.3,0-.454.655-.4h1.059c1.059,0,.958-.353,1.26,0s0,0,.907,0,.857.454,1.008.756.857.655.706.807l-.706.5c-.706.5-1.159.3-1.26.5s.554,0,0,0-.5,0-.806.454-.6,0-1.059.6,0,.655-.554.6-.454-.252-.756,0-.807,0-.807.4v1.059c0,.353-.756.252-.857.4s0,.252-.554.6-.3.353-.4.706,0,.6-.554.4,0,0-.958,0H41a3.629,3.629,0,0,1-.6-1.008s-.3.857,0,1.008h1.966a.358.358,0,0,1,0,.655c-.5.353-.353.554-.706.353s0-.4-.907,0-.5,0-.857,0,0-.3-.655-.454-.706-.4-.4-.706.454-.807.3-.907h0c-.252,0,0-.6,0-.807s0-.3.706,0,.706.554,1.059,0,0-.706.807-.655h1.008a.807.807,0,0,1-.706-.353A2.42,2.42,0,0,1,41,12.363a1.26,1.26,0,0,1,.353-.807c.353-.353.958-.454.454-.655s-.706,0-.5-.454-.3,0,.353-.5.454-.4.655-.706,0-.3.5-.554,1.008-.706.706,0-.554,1.008,0,1.26.5.756.806.807Z" transform="translate(156.191 30.789)"/><path class="i" d="M38.954,8.868c0,.4-.807,0-.353.554s0,1.008.454,1.109.252-.3.706-.655.4-.454,0-.907,0-1.059-.454-.857-.554,0-.706.4S38.954,8.666,38.954,8.868Z" transform="translate(155.415 32.62)"/><path class="i" d="M39.01,8.773v.655c0,.3-.5.5,0,.5s.6,0,.655-.353.454,0,0-.6-.3-.706-.454-.554S39.11,8.571,39.01,8.773Z" transform="translate(156.72 33.774)"/><path class="i" d="M39.688,8.9h.353c.353,0,.756,0,.454.454a6.053,6.053,0,0,1-.454.6c-.454.6,0,.655-.5.756s-.756.554-.6,0,.6-.554,0-.655-.756.3-.806,0a6,6,0,0,1,0-.958c0-.454,0-.4.454,0s.3.554.4.252S39.587,8.745,39.688,8.9Z" transform="translate(153.975 35.465)"/><path class="i" d="M38.58,9.614s-.252.4,0,.554.4.5.554,0V9.11A2.215,2.215,0,0,0,38.58,9.614Z" transform="translate(155.436 36.814)"/><path class="i" d="M40.168,9.482a.857.857,0,0,1-.353.706c-.353,0,0,0-.4.655s0,.756-.4.907a1.361,1.361,0,0,0-.6.454c0,.353-.554,0-.4.6a1.462,1.462,0,0,0,.353.806.4.4,0,0,0,.554,0s.554.454.554-.3a2.47,2.47,0,0,1,0-1.21c0-.353-.3-.756.3-1.059a1.411,1.411,0,0,1,.907,0c.353,0,.3,0,.6-.454s0-.655,0-.756a.454.454,0,0,0-.706,0C40.32,10.188,40.32,9.432,40.168,9.482Z" transform="translate(153.444 38.307)"/><path class="i" d="M38.62,12.018c-.4.252-.454,0-.5,0s0,0,0-.5-.6-.756,0-.857.252,0,.454,0,.5,0,.454-.252-.3-.353,0-.5.857-.756.958-.4.706,0,.454.454-.857.4-.655.756.454.5,0,.807-.3.6-.5.706S38.62,11.967,38.62,12.018Z" transform="translate(152.926 37.939)"/><path class="i" d="M38.812,8.917a.353.353,0,0,1,.655,0c0,.5,0,.706.3,1.008s.353.4.5,0,0,0,0-.655,1.008-.857.706-.454-.6.554-.3.907.3-.454.454,0,0,.5-.4.857-.4.353-1.008,0-.353,0-.756,0-1.411.353-1.21,0,.756-.5.454-.655-1.361,0-.907-.554.806,0,.857-.4S38.812,9.018,38.812,8.917Z" transform="translate(150.264 34.789)"/><path class="i" d="M38.958,9.537c.756,0,.806,0,.857-.4s.4,0,.353-.5,0-.353-.252,0,0-.353-.706,0a9.731,9.731,0,0,1-.958.5c-.4,0-.4-.252-.706,0s-1.059,0,0,.655.958.4,1.159,0S38.555,9.436,38.958,9.537Z" transform="translate(149.513 33.564)"/><path class="i" d="M38.613,9.377c.252,0,.3,0,.454-.353s.6-.655.353-.6,0-.3-.807,0-1.008,0-.706.3l.454.706Z" transform="translate(152.631 33.522)"/><path class="i" d="M38.769,8.674c0-.3-.4,0-.554-.3s-.4-.3,0,0,0,0,.6,0,.655.252.454.5-.6.454-.6.353S38.87,8.876,38.769,8.674Z" transform="translate(153.533 32.915)"/><path class="i" d="M55.078,17.522c-.4,0-1.311.5-.706.706s.706-.252.857,0-.756,0,0,.6,1.109.554.907,0,0-.857,0-.6.454.4.3,0,0-.4-.3-.706,0-.3-.3,0a1.008,1.008,0,0,1-.756,0Z" transform="translate(218.883 69.887)"/><rect class="j" width="15.828" height="159.437" transform="translate(145.923 104.692) rotate(-89.55)"/><path class="k" d="M56.642,28.9H36.126a4.688,4.688,0,0,1-4.285-5.041V12.771A5.041,5.041,0,0,1,36.227,7.73H56.743a5.041,5.041,0,0,1,4.285,5.041V23.558a4.688,4.688,0,0,1-4.083,5.293Z" transform="translate(128.603 31.238)"/><path class="l" d="M61.066,15.805V14.293H53.707a3.176,3.176,0,0,0-2.47-3.075V7.69H50.077v3.428H42.163V7.892H41.054v3.579a3.176,3.176,0,0,0-2.47,2.974h-6.7V15.6h6.654v5.041h-6.7v1.109h6.654a3.176,3.176,0,0,0,2.42,3.024v3.881h1.159v-3.73h7.914v3.68h1.159V24.778a3.075,3.075,0,0,0,2.47-3.024h7.41v-.706H53.656V16.007Zm-8.72,6.351a1.915,1.915,0,0,1-1.915,1.915H41.659a1.915,1.915,0,0,1-1.915-1.915h0V14.293a1.915,1.915,0,0,1,1.865-1.865H50.48A1.915,1.915,0,0,1,52.4,14.344h0Z" transform="translate(128.615 31.076)"/><rect class="m" width="4.486" height="29.186" transform="translate(160.235 76.542) rotate(-89.55)"/><rect class="m" width="4.486" height="41.535" transform="matrix(0.01, -1, 1, 0.01, 160.56, 84.656)"/><rect class="m" width="4.486" height="60.236" transform="translate(207.709 84.855) rotate(-89.55)"/><rect class="m" width="4.486" height="29.186" transform="translate(263.574 77.307) rotate(-89.55)"/><rect class="m" width="4.486" height="29.186" transform="translate(229.28 77.052) rotate(-89.55)"/><rect class="m" width="4.486" height="29.186" transform="translate(194.936 76.746) rotate(-89.55)"/><rect class="n" width="19.759" height="35.839" rx="1.13" transform="translate(256.377 60.048) rotate(-89.55)"/><path class="o" d="M66.751,16.061A7.511,7.511,0,1,1,59.291,8.5a7.511,7.511,0,0,1,7.46,7.561Z" transform="translate(209.024 34.349)"/><path class="p" d="M69.262,16.061A7.561,7.561,0,1,1,61.7,8.5,7.561,7.561,0,0,1,69.262,16.061Z" transform="translate(218.762 34.349)"/></g></g></svg>