<svg width="326" height="231" viewBox="0 0 326 231" fill="none" xmlns="http://www.w3.org/2000/svg">
<mask id="mask0" mask-type="alpha" maskUnits="userSpaceOnUse" x="0" y="0" width="326" height="231">
<rect width="326" height="231" fill="#C4C4C4"/>
</mask>
<g mask="url(#mask0)">
<path d="M565.4 0H0V230.75H565.4V0Z" fill="#48CBFF"/>
<path d="M165.08 15.32C165.119 28.991 162.445 42.534 157.213 55.1643C151.981 67.7946 144.295 79.2612 134.6 88.9C117.1 106.393 93.9425 117.082 69.2772 119.05C44.612 121.018 20.0521 114.137 0 99.64L0 129.5C18.7596 139.551 39.7174 144.798 61 144.77C78.0005 144.771 94.8347 141.424 110.541 134.919C126.248 128.414 140.52 118.879 152.541 106.859C164.563 94.8378 174.099 80.5669 180.605 64.8607C187.111 49.1544 190.46 32.3205 190.46 15.32C190.459 10.2002 190.158 5.08478 189.56 0L164 0C164.728 5.07408 165.089 10.194 165.08 15.32V15.32Z" fill="#83E2FF"/>
<path d="M121.47 158.46C121.47 158.46 108.79 179.93 94.53 189L78.43 230.74H44L81.56 152.07L121.47 158.46Z" fill="#FBC390"/>
<path d="M133.77 76.6802L134.6 78.3202C135.222 79.5254 136.293 80.4382 137.581 80.8627C138.87 81.2871 140.273 81.1893 141.49 80.5902C143.3 79.7102 145.19 78.8002 146.26 78.3002L146.92 77.9902C152.47 75.3202 155.75 70.7702 154.27 67.8302C152.79 64.8902 147.08 64.6802 141.53 67.3502L136.1 70.0002C135.508 70.2856 134.978 70.6848 134.541 71.175C134.103 71.6653 133.767 72.2369 133.55 72.8573C133.334 73.4777 133.242 74.1346 133.28 74.7906C133.317 75.4466 133.484 76.0887 133.77 76.6802V76.6802Z" fill="#F8AC3B"/>
<path d="M144.32 83.6096L132.63 89.4396C130.785 90.6258 128.553 91.051 126.401 90.6258C124.249 90.2007 122.346 88.9583 121.09 87.1596C120.486 86.2714 120.066 85.2704 119.857 84.2166C119.648 83.1627 119.653 82.0775 119.873 81.0257C120.092 79.9739 120.521 78.977 121.134 78.0946C121.747 77.2122 122.531 76.4623 123.44 75.8896C128.505 71.698 134.544 68.8503 141 67.6096C144.79 66.9096 148.78 66.1796 150.48 68.1696C153 71.1996 150.3 80.6296 144.32 83.6096Z" fill="#FCD2A7"/>
<path d="M128.27 175.3H60.7C60.2194 175.306 59.7424 175.216 59.2963 175.037C58.8502 174.858 58.4438 174.593 58.1002 174.257C57.7566 173.92 57.4826 173.52 57.2938 173.078C57.1051 172.636 57.0052 172.161 57 171.68L57.06 44.9503C57.0784 43.9786 57.4794 43.0534 58.1759 42.3756C58.8724 41.6979 59.8082 41.3222 60.78 41.3303H128.35C128.831 41.325 129.308 41.4145 129.754 41.5935C130.2 41.7726 130.606 42.0378 130.95 42.3739C131.293 42.7101 131.567 43.1106 131.756 43.5527C131.945 43.9947 132.045 44.4697 132.05 44.9503L132 171.68C131.982 172.654 131.579 173.58 130.881 174.258C130.182 174.937 129.244 175.311 128.27 175.3V175.3Z" fill="url(#paint0_radial)"/>
<path d="M104.45 47.0001H82.8201C82.4956 47.0028 82.1832 46.8771 81.9509 46.6505C81.7186 46.4238 81.5853 46.1146 81.5801 45.7901V45.7901C81.5853 45.4656 81.7186 45.1564 81.9509 44.9298C82.1832 44.7031 82.4956 44.5774 82.8201 44.5801H104.45C104.775 44.5774 105.087 44.7031 105.319 44.9298C105.552 45.1564 105.685 45.4656 105.69 45.7901V45.7901C105.685 46.1146 105.552 46.4238 105.319 46.6505C105.087 46.8771 104.775 47.0028 104.45 47.0001V47.0001Z" fill="#111111"/>
<path d="M126.44 158.47H62.5504C62.4354 158.47 62.3249 158.425 62.2427 158.345C62.1605 158.265 62.113 158.155 62.1104 158.04V50.8902C62.113 50.7726 62.1615 50.6607 62.2456 50.5784C62.3297 50.4962 62.4427 50.4502 62.5604 50.4502H126.45C126.568 50.4502 126.681 50.4962 126.765 50.5784C126.849 50.6607 126.898 50.7726 126.9 50.8902L126.89 158C126.893 158.061 126.883 158.122 126.862 158.179C126.841 158.235 126.808 158.287 126.766 158.331C126.724 158.375 126.673 158.41 126.617 158.434C126.561 158.458 126.501 158.47 126.44 158.47Z" fill="#F1F1F1"/>
<g style="mix-blend-mode:screen">
<path style="mix-blend-mode:screen" d="M57 171.64L57.06 44.9103C57.0784 43.9386 57.4794 43.0134 58.1759 42.3357C58.8724 41.6579 59.8082 41.2822 60.78 41.2903L107.08 41.0703C100.907 55.0236 94.83 69.4203 88.85 84.2603C76.74 114.34 66.19 143.54 57 171.64Z" fill="url(#paint1_radial)"/>
</g>
<path d="M108 47.0004C107.675 47.0031 107.363 46.8774 107.131 46.6508C106.898 46.4241 106.765 46.1149 106.76 45.7904V45.7904C106.773 45.4712 106.909 45.1696 107.141 44.9493C107.372 44.7291 107.68 44.6075 108 44.6104C108.324 44.6077 108.637 44.7334 108.869 44.96C109.101 45.1867 109.234 45.4959 109.24 45.8204V45.8204C109.227 46.1396 109.09 46.4412 108.859 46.6615C108.627 46.8817 108.319 47.0033 108 47.0004V47.0004Z" fill="#111111"/>
<path d="M138 127.06L133.15 130.2C131.304 131.387 129.07 131.812 126.917 131.385C124.765 130.958 122.862 129.712 121.61 127.91V127.91C121.009 127.019 120.593 126.017 120.388 124.963C120.182 123.908 120.192 122.823 120.415 121.772C120.638 120.722 121.07 119.726 121.686 118.846C122.302 117.966 123.089 117.219 124 116.65L128.85 113.51C130.695 112.322 132.93 111.897 135.082 112.324C137.235 112.751 139.138 113.997 140.39 115.8V115.8C140.991 116.69 141.406 117.692 141.612 118.747C141.817 119.801 141.808 120.886 141.585 121.937C141.362 122.988 140.93 123.983 140.314 124.863C139.698 125.743 138.911 126.49 138 127.06Z" fill="#FCD2A7"/>
<path d="M140.37 115.8C140.31 115.71 140.24 115.63 140.17 115.54C141.072 117.029 141.355 118.812 140.959 120.507C140.563 122.203 139.518 123.675 138.05 124.61L130.85 129.27C129.368 130.23 127.577 130.595 125.838 130.291C124.098 129.987 122.538 129.036 121.47 127.63C121.52 127.727 121.577 127.82 121.64 127.91C122.892 129.712 124.795 130.958 126.947 131.386C129.1 131.813 131.334 131.388 133.18 130.2L138.03 127.06C138.937 126.487 139.719 125.737 140.33 124.855C140.941 123.973 141.369 122.977 141.587 121.926C141.805 120.876 141.81 119.792 141.601 118.739C141.392 117.687 140.973 116.687 140.37 115.8Z" fill="#FBC390"/>
<path d="M139.72 142.51L135 144.76C133.221 145.6 131.186 145.718 129.321 145.089C127.457 144.461 125.908 143.135 125 141.39V141.39C124.572 140.521 124.323 139.575 124.265 138.609C124.207 137.642 124.343 136.673 124.664 135.76C124.986 134.846 125.486 134.006 126.136 133.288C126.786 132.57 127.573 131.99 128.45 131.58L133.17 129.34C134.949 128.5 136.985 128.382 138.849 129.01C140.714 129.638 142.262 130.964 143.17 132.71V132.71C143.599 133.578 143.85 134.522 143.908 135.489C143.966 136.455 143.831 137.423 143.509 138.336C143.188 139.249 142.687 140.089 142.036 140.806C141.386 141.522 140.598 142.102 139.72 142.51V142.51Z" fill="#FCD2A7"/>
<path d="M143.17 132.71C143.17 132.62 143.08 132.54 143.03 132.45C143.664 133.893 143.704 135.527 143.143 137C142.582 138.473 141.463 139.665 140.03 140.32L133.03 143.66C131.594 144.345 129.953 144.463 128.434 143.993C126.914 143.522 125.628 142.496 124.83 141.12C124.83 141.21 124.9 141.3 124.95 141.39C125.858 143.136 127.407 144.462 129.271 145.09C131.136 145.718 133.171 145.6 134.95 144.76L139.67 142.51C140.552 142.107 141.345 141.531 142.001 140.816C142.657 140.102 143.163 139.263 143.489 138.349C143.815 137.436 143.955 136.466 143.9 135.497C143.846 134.529 143.597 133.581 143.17 132.71V132.71Z" fill="#FBC390"/>
<path d="M136 110.39L130.54 113.49C126.25 115.93 120.41 114.91 117.54 111.23C114.69 107.54 115.88 102.52 120.18 100.08L125.63 96.9799C129.93 94.5399 135.77 95.5499 138.63 99.2399C141.47 102.93 140.28 107.94 136 110.39Z" fill="#FCD2A7"/>
<path d="M138.62 99.24L138.4 99C140.5 102 139.48 106 136.02 108L127.92 112.61C126.233 113.559 124.277 113.916 122.363 113.624C120.449 113.333 118.688 112.409 117.36 111C117.42 111.09 117.48 111.19 117.55 111.28C120.4 114.96 126.24 115.98 130.55 113.54L136.01 110.44C140.28 107.94 141.47 102.93 138.62 99.24Z" fill="#FBC390"/>
<path d="M119.74 107.46H71.8098C70.8599 107.46 70.0898 108.23 70.0898 109.18V121.07C70.0898 122.02 70.8599 122.79 71.8098 122.79H119.74C120.69 122.79 121.46 122.02 121.46 121.07V109.18C121.46 108.23 120.69 107.46 119.74 107.46Z" fill="#0FB2D8"/>
<path d="M133.133 37.4877L58.2498 54.13C53.775 55.1245 50.9537 59.5582 51.9482 64.033L60.5676 102.817C61.5621 107.291 65.9958 110.113 70.4706 109.118L145.354 92.476C149.828 91.4815 152.65 87.0478 151.655 82.573L143.036 43.7893C142.041 39.3145 137.608 36.4932 133.133 37.4877Z" fill="#F7BF23"/>
<path d="M128.64 96.1801L83.9996 106.1L54.0996 55.0401L98.7396 45.1201L128.64 96.1801Z" fill="#F7CA5C"/>
<path d="M142.762 42.5825L51.6748 62.8262L54.365 74.9308L145.453 54.6872L142.762 42.5825Z" fill="#262626"/>
<path d="M62.2297 73.1798L70.3597 71.3698L59.8097 61.0098L51.6797 62.8198L62.2297 73.1798Z" fill="#333333"/>
<path d="M77.9397 69.6903L81.3596 68.9203L70.8096 58.5703L67.3896 59.3303L77.9397 69.6903Z" fill="#333333"/>
<path d="M109.36 62.7001L120.64 60.1901L110.09 49.8301L98.8096 52.3401L109.36 62.7001Z" fill="#333333"/>
<path d="M114.022 70.5786L62.4111 82.0488L64.188 90.0438L115.799 78.5736L114.022 70.5786Z" fill="#F1F1F1"/>
<path d="M79.2885 92.0827L65.3096 95.1895L66.2186 99.2797L80.1975 96.1729L79.2885 92.0827Z" fill="#E2A203"/>
<path d="M99.2895 87.6394L85.3105 90.7461L86.2196 94.8363L100.199 91.7296L99.2895 87.6394Z" fill="#E2A203"/>
<path d="M119.994 83.1562L105.96 86.3066L106.882 90.4128L120.915 87.2624L119.994 83.1562Z" fill="#E2A203"/>
<path d="M139.278 78.7546L125.299 81.8613L126.208 85.9515L140.187 82.8448L139.278 78.7546Z" fill="#E2A203"/>
<path d="M132.738 66.4235L120.077 69.2373L121.854 77.2322L134.515 74.4184L132.738 66.4235Z" fill="#F1F1F1"/>
<path d="M94.53 173.29C97.9763 173.29 100.77 170.564 100.77 167.2C100.77 163.837 97.9763 161.11 94.53 161.11C91.0838 161.11 88.29 163.837 88.29 167.2C88.29 170.564 91.0838 173.29 94.53 173.29Z" fill="#111111"/>
<path d="M94.5297 172.87C97.7385 172.87 100.34 170.332 100.34 167.2C100.34 164.069 97.7385 161.53 94.5297 161.53C91.3209 161.53 88.7197 164.069 88.7197 167.2C88.7197 170.332 91.3209 172.87 94.5297 172.87Z" fill="#232323"/>
<path d="M59.7899 123.59C62.5699 127.47 77.3599 148.87 70.9599 175.3C67.9599 187.79 51.4899 225.93 47.1699 230.75H21.6299L50.0999 171.22C50.0999 171.22 35.2099 137.34 37.8199 128.6C41.8199 115.05 56.9099 74.41 58.3799 73.6C60.7299 72.26 65.4899 76.34 65.9899 76.77C74.5199 84.06 63.6299 113.74 59.7899 123.59Z" fill="#FCD2A7"/>
<path d="M51.1396 90.7897L58.9996 69.4297C58.9996 69.4297 64.4796 73.8797 55.3696 88.4297C54.9163 89.1513 54.286 89.745 53.5387 90.1546C52.7914 90.5641 51.9518 90.7759 51.0996 90.7697L51.1396 90.7897Z" fill="#F7BF23"/>
<path d="M132.53 103.92L131.69 102.28C131.068 101.078 129.999 100.167 128.713 99.7423C127.427 99.318 126.026 99.4141 124.81 100.01C123 100.89 121.1 101.8 120.04 102.3L119.37 102.61C113.83 105.28 110.54 109.83 112.03 112.77C113.52 115.71 119.22 115.93 124.76 113.25L130.2 110.63C130.796 110.345 131.329 109.944 131.769 109.452C132.209 108.959 132.547 108.385 132.764 107.761C132.981 107.137 133.072 106.476 133.031 105.817C132.991 105.158 132.821 104.513 132.53 103.92V103.92Z" fill="#F8AC3B"/>
<path d="M111.67 111.27C113.498 111.916 115.421 112.254 117.36 112.27C120.413 112.297 123.417 111.502 126.056 109.968C128.696 108.433 130.873 106.216 132.36 103.55L131.74 102.33C131.118 101.127 130.049 100.216 128.763 99.7921C127.477 99.3678 126.076 99.4639 124.86 100.06C123.05 100.94 121.15 101.85 120.09 102.35L119.42 102.66C114.71 104.86 111.64 108.44 111.67 111.27Z" fill="#F7BF23"/>
<path d="M135.51 120.52L134.67 118.88C134.047 117.677 132.979 116.766 131.693 116.342C130.407 115.918 129.006 116.014 127.79 116.61C125.98 117.49 124.08 118.4 123.02 118.9L122.35 119.21C116.81 121.88 113.52 126.43 115.01 129.37C116.5 132.31 122.2 132.53 127.74 129.85L133.18 127.23C133.776 126.944 134.309 126.544 134.749 126.052C135.189 125.559 135.527 124.984 135.744 124.36C135.96 123.737 136.051 123.076 136.011 122.417C135.971 121.757 135.801 121.113 135.51 120.52Z" fill="#F8AC3B"/>
<path d="M114.65 127.87C116.481 128.499 118.403 128.82 120.34 128.82C123.384 128.838 126.378 128.039 129.007 126.505C131.637 124.971 133.807 122.759 135.29 120.1L134.67 118.88C134.047 117.677 132.978 116.766 131.692 116.342C130.407 115.918 129.006 116.014 127.79 116.61C125.98 117.49 124.08 118.4 123.02 118.9L122.35 119.21C117.69 121.46 114.62 125 114.65 127.87Z" fill="#F7BF23"/>
<path d="M137.14 136.89L136.35 135.33C135.756 134.192 134.741 133.33 133.522 132.929C132.302 132.527 130.974 132.617 129.82 133.18C128.1 134.02 126.3 134.89 125.29 135.36C125.08 135.45 124.87 135.54 124.66 135.65C119.4 138.18 116.29 142.5 117.66 145.28C119.03 148.06 124.47 148.28 129.73 145.74L134.89 143.26C135.462 142.996 135.976 142.621 136.4 142.156C136.825 141.69 137.151 141.144 137.361 140.55C137.571 139.956 137.659 139.326 137.621 138.698C137.583 138.069 137.42 137.454 137.14 136.89Z" fill="#F8AC3B"/>
<path d="M117.36 143.86C119.093 144.46 120.915 144.768 122.75 144.77C125.638 144.784 128.476 144.023 130.97 142.567C133.464 141.11 135.522 139.012 136.93 136.49L136.35 135.33C135.755 134.192 134.741 133.33 133.521 132.929C132.302 132.527 130.974 132.617 129.82 133.18C128.1 134.02 126.3 134.89 125.29 135.36C125.08 135.45 124.87 135.54 124.66 135.65C120.24 137.78 117.33 141.18 117.36 143.86Z" fill="#F7BF23"/>
<path d="M87.3604 112.32H88.6404C89.1475 112.297 89.6548 112.361 90.1404 112.51C90.4376 112.639 90.6887 112.855 90.8604 113.13C91.0407 113.432 91.1342 113.778 91.1303 114.13C91.1437 114.529 91.0202 114.921 90.7803 115.24C90.5372 115.535 90.2089 115.748 89.8403 115.85C89.4193 115.935 88.9895 115.969 88.5603 115.95V118.64H87.3604V112.32ZM88.5603 114.8H89.0004C89.2121 114.81 89.4242 114.789 89.6303 114.74C89.7418 114.693 89.8386 114.617 89.9104 114.52C89.9762 114.411 90.0108 114.287 90.0104 114.16C90.015 114.052 89.9905 113.945 89.9395 113.85C89.8885 113.755 89.8128 113.676 89.7204 113.62C89.4765 113.52 89.2129 113.479 88.9503 113.5H88.6104L88.5603 114.8Z" fill="#F1F1F1"/>
<path d="M94.2398 112.32H95.4698L97.9098 118.67H96.6498L96.1598 117.36H93.5698L93.0498 118.67H91.7998L94.2398 112.32ZM94.8598 114L93.9998 116.18H95.6998L94.8598 114Z" fill="#F1F1F1"/>
<path d="M98.3896 112.32H99.6897L100.87 114.6L102.05 112.32H103.33L101.47 115.92V118.67H100.26V115.92L98.3896 112.32Z" fill="#F1F1F1"/>
<path d="M165.21 230.75C157.15 220 133.21 179.52 121.02 184.28C120.4 184.52 112.6 186.08 113.9 188.39C117.9 195.54 140.17 230.75 140.17 230.75H165.21Z" fill="#FBC390"/>
<path d="M123.83 204.26L110.83 185.41C110.83 185.41 117.75 183.73 124.39 199.52C124.715 200.293 124.832 201.137 124.728 201.969C124.625 202.801 124.305 203.591 123.8 204.26H123.83Z" fill="#F8AC3B"/>
<path d="M108 118C109.977 117.045 112.248 116.894 114.334 117.581C116.419 118.267 118.157 119.737 119.18 121.68L147.47 177.32C147.95 178.282 148.233 179.33 148.303 180.403C148.373 181.475 148.228 182.551 147.877 183.567C147.526 184.583 146.976 185.519 146.258 186.32C145.541 187.12 144.671 187.77 143.7 188.23V188.23C141.724 189.189 139.454 189.342 137.367 188.657C135.281 187.972 133.543 186.503 132.52 184.56L104.27 129C103.774 128.036 103.477 126.983 103.397 125.902C103.317 124.821 103.455 123.736 103.803 122.709C104.151 121.683 104.702 120.737 105.423 119.928C106.144 119.119 107.02 118.463 108 118V118Z" fill="#FCD2A7"/>
<path d="M146.56 230.75C146.56 230.75 132.08 188.15 122.75 165.31L134.41 151.6L149.69 180.27L178.11 230.75H146.56Z" fill="#FCD2A7"/>
<path d="M153.5 195.17C153.5 195.17 141.7 168.22 142.66 163C143.62 157.78 155.92 157.36 159.53 161C163.14 164.64 168.17 183.18 168.17 183.18L189.39 230.76H168.79L153.5 195.17Z" fill="#FCD2A7"/>
<path d="M171 195.17C171 195.17 159.61 167.83 160.57 162.6C161.53 157.37 174.2 158.07 177.82 161.71C181.44 165.35 185.67 183.17 185.67 183.17L202.34 230.75H166.52L171 195.17Z" fill="#FCD2A7"/>
<path d="M191.15 206.9C191.15 206.9 178.15 169.38 179.15 164.38C180.08 159.55 190.54 160.96 195.61 163.64C201.35 166.64 200.68 172.64 209.61 197.98C211.61 203.8 217 230.75 217 230.75H198.73L191.15 206.9Z" fill="#FCD2A7"/>
<path d="M113.67 132.24L115.36 131.42C115.956 131.134 116.49 130.732 116.929 130.239C117.369 129.745 117.707 129.169 117.923 128.544C118.138 127.919 118.228 127.258 118.186 126.598C118.145 125.938 117.973 125.293 117.68 124.7C116.78 122.94 115.84 121.09 115.33 120.05C115.23 119.83 115.13 119.62 115.02 119.4C112.28 113.99 107.62 110.78 104.61 112.23C101.6 113.68 101.38 119.23 104.11 124.66L106.8 129.96C107.425 131.158 108.491 132.066 109.773 132.492C111.056 132.917 112.453 132.827 113.67 132.24Z" fill="#F8AC3B"/>
<path d="M106.15 111.88C105.496 113.658 105.158 115.536 105.15 117.43C105.166 120.448 106.007 123.404 107.583 125.978C109.159 128.551 111.409 130.644 114.09 132.03L115.34 131.42C115.936 131.134 116.47 130.732 116.91 130.239C117.349 129.745 117.687 129.169 117.903 128.544C118.119 127.919 118.208 127.258 118.167 126.598C118.125 125.938 117.953 125.293 117.66 124.7C116.76 122.94 115.82 121.09 115.31 120.05C115.21 119.83 115.11 119.62 115 119.4C112.72 114.84 109.05 111.85 106.15 111.88Z" fill="#F7BF23"/>
<path d="M215.44 105.13C226.22 113.72 232.09 127.49 238.78 139.21C241.99 144.83 250.78 143.59 252.48 137.41C255.578 126.322 261.402 116.185 269.421 107.923C277.44 99.6618 287.399 93.5381 298.39 90.1101C307.6 87.3001 303.67 72.8101 294.39 75.6501C280.914 79.8084 268.694 87.2743 258.844 97.3669C248.995 107.459 241.829 119.857 238 133.43L251.71 131.63C244.4 118.83 237.81 103.92 226.03 94.5201C222.84 91.9801 218.55 91.5201 215.42 94.5201C212.78 97.1101 212.26 102.61 215.42 105.13H215.44Z" fill="#6BFF0B"/>
</g>
<defs>
<radialGradient id="paint0_radial" cx="0" cy="0" r="1" gradientUnits="userSpaceOnUse" gradientTransform="translate(108.56 45.5603) scale(134.33)">
<stop stop-color="#282828"/>
<stop offset="1" stop-color="#1E1E1E"/>
</radialGradient>
<radialGradient id="paint1_radial" cx="0" cy="0" r="1" gradientUnits="userSpaceOnUse" gradientTransform="translate(-27.3288 -8.26528) scale(156.912 153.643)">
<stop stop-color="white"/>
<stop offset="1"/>
</radialGradient>
</defs>
</svg>
