<svg xmlns="http://www.w3.org/2000/svg" width="263" height="259.025" viewBox="0 0 263 259.025"><defs><style>.a{opacity:0.9;}.b{fill:#1a1a1a;}.c{fill:#404040;}.d{fill:#303030;}.e{fill:#00ab9d;}.f{fill:#ededed;}.g{fill:#56626e;}.h{fill:#eddcdc;}.i{fill:#bd3737;}.j{fill:#bd8e37;}.k{fill:#a3a3a3;}.l{fill:#8a8a8a;}.m{fill:#5b6266;}.n{fill:#a1aab5;}.o{fill:#747d82;}.p{fill:#626a6e;}.q{fill:#7e868f;}.r{fill:#7ced49;}.s{fill:#d9b248;}.t{fill:#3fd9ff;}.u,.x{fill:#fff;}.v{fill:#545454;}.w{fill:#707070;}.x{opacity:0.2;}.y{fill:#ffb7a4;}.z{fill:#65c5db;}.aa{fill:#224066;}.ab{fill:#141414;}.ac{fill:#d99b8c;}.ad{fill:#d19686;}</style></defs><g class="a"><path class="b" d="M263,10.249H0C0,1.741,4.2,0,9.362,0H253.671C258.828,0,263,1.741,263,10.118Z"/><path class="c" d="M236.818,50.457H26.215L0,3.12H263Z" transform="translate(0 7.129)"/><path class="d" d="M236.818,50.457H26.215L0,3.12Z" transform="translate(0 7.129)"/><path d="M228.465,43.058H23.676L2.29,4.13H249.456Z" transform="translate(5.233 9.437)"/><path class="e" d="M224.134,41.691H24.076L3.15,4.34H244.666Z" transform="translate(7.198 9.917)"/><path class="f" d="M119.309,26.172H19.246L8.8,7.48H115.268Z" transform="translate(20.108 17.092)"/><path class="g" d="M117.075,15.857l-103.709-.23L8.8,7.48H115.268Z" transform="translate(20.108 17.092)"/><path class="h" d="M139.547,24.409H44.379L39.55,5.75H149.8Z" transform="translate(90.373 13.139)"/><path class="i" d="M82.031,25.864H57.59L64,10.03H90.933Z" transform="translate(131.595 22.919)"/><path class="f" d="M70.813,19.617H58.56L61.779,11.7H75.248Z" transform="translate(133.812 26.735)"/><path class="j" d="M145.887,12.846l-104.4.329L39.55,5.75H149.8Z" transform="translate(90.373 13.139)"/><path class="k" d="M209.5,133.557H16.968a9.034,9.034,0,0,1-8.968-9V17.53H218.538V124.524A9.034,9.034,0,0,1,209.5,133.557Z" transform="translate(18.28 40.057)"/><path class="l" d="M209.5,133.557H16.968a9.034,9.034,0,0,1-8.968-9V17.53L218.538,124.524A9.034,9.034,0,0,1,209.5,133.557Z" transform="translate(18.28 40.057)"/><rect class="m" width="7.72" height="6.209" transform="translate(33.475 67.475)"/><rect class="m" width="37.975" height="6.209" transform="translate(46.188 67.475)"/><rect class="m" width="37.975" height="6.209" transform="translate(90.634 67.475)"/><rect class="m" width="37.975" height="6.209" transform="translate(134.785 67.475)"/><rect class="m" width="26.477" height="6.209" transform="translate(175.947 67.475)"/><rect class="m" width="7.72" height="7.326" transform="translate(33.475 77.527)"/><rect class="m" width="7.72" height="7.326" transform="translate(42.935 77.527)"/><rect class="m" width="7.72" height="7.326" transform="translate(52.396 77.527)"/><rect class="m" width="7.72" height="7.326" transform="translate(62.219 77.527)"/><rect class="m" width="7.72" height="7.326" transform="translate(71.909 77.527)"/><rect class="m" width="7.72" height="7.326" transform="translate(81.502 77.527)"/><rect class="m" width="7.72" height="7.326" transform="translate(127.657 77.527)"/><rect class="m" width="17.805" height="7.326" transform="translate(154.922 77.527)"/><rect class="m" width="17.181" height="7.326" transform="translate(33.475 86.002)"/><rect class="m" width="7.72" height="7.326" transform="translate(52.396 86.002)"/><rect class="m" width="7.72" height="7.326" transform="translate(62.219 86.002)"/><rect class="m" width="7.72" height="7.326" transform="translate(71.909 86.002)"/><rect class="m" width="7.72" height="7.326" transform="translate(81.502 86.002)"/><rect class="m" width="7.72" height="7.326" transform="translate(127.657 86.002)"/><rect class="m" width="17.181" height="7.326" transform="translate(33.475 94.478)"/><rect class="m" width="7.72" height="7.326" transform="translate(52.396 94.478)"/><rect class="m" width="7.72" height="7.326" transform="translate(62.219 94.478)"/><rect class="m" width="7.72" height="7.326" transform="translate(71.909 94.478)"/><rect class="m" width="7.72" height="7.326" transform="translate(81.502 94.478)"/><rect class="m" width="7.72" height="7.326" transform="translate(127.657 94.478)"/><path class="m" d="M64.965,33.506V26.18H47.16v7.326h9.592v8.475h8.213V33.506Z" transform="translate(107.762 59.822)"/><rect class="m" width="14.816" height="7.326" transform="translate(33.475 102.953)"/><rect class="m" width="7.72" height="7.326" transform="translate(52.396 102.953)"/><rect class="m" width="7.72" height="7.326" transform="translate(62.219 102.953)"/><rect class="m" width="7.72" height="7.326" transform="translate(71.909 102.953)"/><rect class="m" width="7.72" height="7.326" transform="translate(81.502 102.953)"/><rect class="m" width="7.72" height="7.326" transform="translate(90.897 77.527)"/><rect class="m" width="7.72" height="7.326" transform="translate(90.897 86.002)"/><rect class="m" width="7.72" height="7.326" transform="translate(90.897 94.478)"/><rect class="m" width="7.72" height="7.326" transform="translate(90.897 102.953)"/><rect class="m" width="7.72" height="7.326" transform="translate(100.095 77.527)"/><rect class="m" width="7.72" height="7.326" transform="translate(100.095 86.002)"/><rect class="m" width="7.72" height="7.326" transform="translate(100.095 94.478)"/><rect class="m" width="7.72" height="7.326" transform="translate(100.095 102.953)"/><rect class="m" width="7.72" height="7.326" transform="translate(109.556 77.527)"/><rect class="m" width="7.72" height="7.326" transform="translate(109.556 86.002)"/><rect class="m" width="7.72" height="7.326" transform="translate(109.556 94.478)"/><rect class="m" width="7.72" height="7.326" transform="translate(109.556 102.953)"/><rect class="m" width="7.72" height="7.326" transform="translate(118.656 77.527)"/><rect class="m" width="7.72" height="7.326" transform="translate(118.656 86.002)"/><rect class="m" width="7.72" height="7.326" transform="translate(118.656 94.478)"/><rect class="m" width="7.72" height="7.326" transform="translate(118.656 102.953)"/><rect class="m" width="7.72" height="7.326" transform="translate(127.657 102.953)"/><rect class="m" width="17.805" height="7.326" transform="translate(154.922 102.953)"/><rect class="m" width="7.72" height="7.326" transform="translate(33.475 111.428)"/><rect class="m" width="7.72" height="7.326" transform="translate(42.935 111.428)"/><rect class="m" width="46.188" height="7.326" transform="translate(52.396 111.428)"/><rect class="m" width="7.72" height="7.326" transform="translate(109.556 111.428)"/><rect class="m" width="7.72" height="7.326" transform="translate(100.095 111.428)"/><rect class="m" width="44.282" height="29.303" transform="translate(107.782 122.795)"/><path class="n" d="M70.194,53.219H39.741a6.9,6.9,0,0,1-6.931-6.9H77.092A6.9,6.9,0,0,1,70.194,53.219Z" transform="translate(74.972 105.843)"/><rect class="m" width="7.72" height="7.326" transform="translate(118.656 111.428)"/><rect class="m" width="7.72" height="7.326" transform="translate(127.657 111.428)"/><rect class="m" width="7.72" height="7.326" transform="translate(136.658 77.527)"/><rect class="m" width="7.72" height="7.326" transform="translate(136.658 86.002)"/><rect class="m" width="7.72" height="7.326" transform="translate(136.658 94.478)"/><rect class="m" width="7.72" height="7.326" transform="translate(136.658 102.953)"/><rect class="m" width="7.72" height="7.326" transform="translate(136.658 111.428)"/><rect class="m" width="7.72" height="7.326" transform="translate(145.659 77.527)"/><rect class="m" width="7.72" height="7.326" transform="translate(175.947 77.527)"/><rect class="m" width="7.72" height="7.326" transform="translate(185.309 77.527)"/><rect class="m" width="7.72" height="7.326" transform="translate(194.704 77.527)"/><rect class="m" width="7.72" height="7.326" transform="translate(175.947 86.002)"/><rect class="m" width="7.72" height="7.326" transform="translate(185.309 86.002)"/><rect class="m" width="7.72" height="7.326" transform="translate(194.704 86.002)"/><rect class="m" width="7.72" height="7.326" transform="translate(205.216 77.527)"/><rect class="m" width="7.72" height="7.326" transform="translate(214.579 77.527)"/><rect class="m" width="7.72" height="7.326" transform="translate(223.974 77.527)"/><path class="o" d="M75.9,30.926,68.18,23.6H75.9Z" transform="translate(155.794 53.927)"/><rect class="m" width="7.72" height="7.326" transform="translate(205.216 86.002)"/><rect class="m" width="7.72" height="7.326" transform="translate(214.579 86.002)"/><rect class="m" width="7.72" height="7.326" transform="translate(205.216 94.609)"/><rect class="m" width="7.72" height="7.326" transform="translate(214.579 94.609)"/><rect class="m" width="7.72" height="15.932" transform="translate(223.974 86.002)"/><path class="o" d="M75.9,26.18H68.18L75.9,42.112Z" transform="translate(155.794 59.822)"/><rect class="m" width="7.72" height="7.326" transform="translate(205.216 103.084)"/><rect class="m" width="7.72" height="7.326" transform="translate(214.579 103.084)"/><rect class="m" width="7.72" height="7.326" transform="translate(185.309 102.953)"/><rect class="m" width="7.72" height="7.326" transform="translate(175.947 111.428)"/><rect class="m" width="7.72" height="7.326" transform="translate(185.309 111.428)"/><rect class="m" width="7.72" height="7.326" transform="translate(194.704 111.428)"/><rect class="m" width="17.082" height="7.326" transform="translate(205.216 111.428)"/><path class="o" d="M80.037,26.749,53.56,20.54H80.037Z" transform="translate(122.387 46.935)"/><path class="o" d="M61.247,30.926,53.56,23.6h7.687Z" transform="translate(122.387 53.927)"/><path class="o" d="M64.13,30.926,56.41,23.6h7.72Z" transform="translate(128.899 53.927)"/><path class="o" d="M66.99,30.926,59.27,23.6h7.72Z" transform="translate(135.434 53.927)"/><path class="o" d="M61.247,33.506,53.56,26.18h7.687Z" transform="translate(122.387 59.822)"/><path class="o" d="M64.13,33.506,56.41,26.18h7.72Z" transform="translate(128.899 59.822)"/><path class="o" d="M66.99,33.506,59.27,26.18h7.72Z" transform="translate(135.434 59.822)"/><path class="o" d="M70.157,30.926,62.47,23.6h7.687Z" transform="translate(142.746 53.927)"/><path class="o" d="M73.04,30.926,65.32,23.6h7.72Z" transform="translate(149.259 53.927)"/><path class="o" d="M70.157,33.506,62.47,26.18h7.687Z" transform="translate(142.746 59.822)"/><path class="o" d="M73.04,33.506,65.32,26.18h7.72Z" transform="translate(149.259 59.822)"/><path class="o" d="M70.157,36.126,62.47,28.8h7.687Z" transform="translate(142.746 65.809)"/><path class="o" d="M73.04,36.126,65.32,28.8h7.72Z" transform="translate(149.259 65.809)"/><path class="o" d="M70.157,38.738,62.47,31.38h7.687Z" transform="translate(142.746 71.704)"/><path class="o" d="M73.04,38.738,65.32,31.38h7.72Z" transform="translate(149.259 71.704)"/><path class="o" d="M64.13,38.666,56.41,31.34h7.72Z" transform="translate(128.899 71.613)"/><path class="o" d="M61.247,41.278,53.56,33.92h7.687Z" transform="translate(122.387 77.508)"/><path class="o" d="M64.13,41.278,56.41,33.92h7.72Z" transform="translate(128.899 77.508)"/><path class="o" d="M66.99,41.278,59.27,33.92h7.72Z" transform="translate(135.434 77.508)"/><path class="o" d="M79.552,41.246V33.92H62.47Z" transform="translate(142.746 77.508)"/><rect class="m" width="7.72" height="15.67" transform="translate(223.974 103.084)"/><path class="o" d="M75.9,31.38H68.18L75.9,47.05Z" transform="translate(155.794 71.704)"/><rect class="m" width="7.72" height="7.326" transform="translate(145.659 86.002)"/><rect class="m" width="7.72" height="7.326" transform="translate(145.659 94.478)"/><rect class="m" width="7.72" height="7.326" transform="translate(154.922 94.478)"/><rect class="m" width="7.72" height="7.326" transform="translate(145.659 102.953)"/><rect class="m" width="7.72" height="7.326" transform="translate(145.659 111.428)"/><rect class="m" width="7.72" height="7.326" transform="translate(154.922 111.428)"/><rect class="p" width="8.902" height="7.326" transform="translate(163.825 111.428)"/><path class="o" d="M17.91,26.782,10.19,20.54h7.72Z" transform="translate(23.285 46.935)"/><path class="o" d="M52.035,26.749,14.06,20.54H52.035Z" transform="translate(32.128 46.935)"/><path class="o" d="M65.565,26.782,27.59,20.54H65.565Z" transform="translate(63.044 46.935)"/><path class="o" d="M79,26.749,41.02,20.54H79Z" transform="translate(93.732 46.935)"/><path class="o" d="M17.91,30.926,10.19,23.6h7.72Z" transform="translate(23.285 53.927)"/><path class="o" d="M20.79,30.926,13.07,23.6h7.72Z" transform="translate(29.865 53.927)"/><path class="o" d="M23.67,30.926,15.95,23.6h7.72Z" transform="translate(36.446 53.927)"/><path class="o" d="M26.66,30.926,18.94,23.6h7.687Z" transform="translate(43.279 53.927)"/><path class="o" d="M29.61,30.926,21.89,23.6h7.72Z" transform="translate(50.019 53.927)"/><path class="o" d="M32.53,30.926,24.81,23.6h7.72Z" transform="translate(56.692 53.927)"/><path class="o" d="M46.58,30.926,38.86,23.6h7.72Z" transform="translate(88.797 53.927)"/><path class="o" d="M64.965,30.926,47.16,23.6h17.8Z" transform="translate(107.762 53.927)"/><path class="o" d="M27.371,33.506V26.18H10.19Z" transform="translate(23.285 59.822)"/><path class="o" d="M23.67,33.506,15.95,26.18h7.72Z" transform="translate(36.446 59.822)"/><path class="o" d="M26.66,33.506,18.94,26.18h7.687Z" transform="translate(43.279 59.822)"/><path class="o" d="M29.61,33.506,21.89,26.18h7.72Z" transform="translate(50.019 59.822)"/><path class="o" d="M32.53,33.506,24.81,26.18h7.72Z" transform="translate(56.692 59.822)"/><path class="o" d="M46.58,33.506,38.86,26.18h7.72Z" transform="translate(88.797 59.822)"/><path class="o" d="M27.371,36.086V28.76H10.19Z" transform="translate(23.285 65.718)"/><path class="o" d="M23.67,36.086,15.95,28.76h7.72Z" transform="translate(36.446 65.718)"/><path class="o" d="M26.66,36.086,18.94,28.76h7.687Z" transform="translate(43.279 65.718)"/><path class="o" d="M29.61,36.086,21.89,28.76h7.72Z" transform="translate(50.019 65.718)"/><path class="o" d="M32.53,36.086,24.81,28.76h7.72Z" transform="translate(56.692 65.718)"/><path class="o" d="M46.58,36.086,38.86,28.76h7.72Z" transform="translate(88.797 65.718)"/><path class="o" d="M64.965,33.506V26.18H47.16l9.592,7.326,8.213,8.475V33.506Z" transform="translate(107.762 59.822)"/><path class="o" d="M25.006,38.666V31.34H10.19Z" transform="translate(23.285 71.613)"/><path class="o" d="M23.67,38.666,15.95,31.34h7.72Z" transform="translate(36.446 71.613)"/><path class="o" d="M26.66,38.666,18.94,31.34h7.687Z" transform="translate(43.279 71.613)"/><path class="o" d="M29.61,38.666,21.89,31.34h7.72Z" transform="translate(50.019 71.613)"/><path class="o" d="M32.53,38.666,24.81,31.34h7.72Z" transform="translate(56.692 71.613)"/><path class="o" d="M35.39,30.926,27.67,23.6h7.72Z" transform="translate(63.227 53.927)"/><path class="o" d="M35.39,33.506,27.67,26.18h7.72Z" transform="translate(63.227 59.822)"/><path class="o" d="M35.39,36.086,27.67,28.76h7.72Z" transform="translate(63.227 65.718)"/><path class="o" d="M35.39,38.666,27.67,31.34h7.72Z" transform="translate(63.227 71.613)"/><path class="o" d="M38.18,30.926,30.46,23.6h7.72Z" transform="translate(69.602 53.927)"/><path class="o" d="M38.18,33.506,30.46,26.18h7.72Z" transform="translate(69.602 59.822)"/><path class="o" d="M38.18,36.086,30.46,28.76h7.72Z" transform="translate(69.602 65.718)"/><path class="o" d="M38.18,38.666,30.46,31.34h7.72Z" transform="translate(69.602 71.613)"/><path class="o" d="M41.037,30.926,33.35,23.6h7.687Z" transform="translate(76.206 53.927)"/><path class="o" d="M41.037,33.506,33.35,26.18h7.687Z" transform="translate(76.206 59.822)"/><path class="o" d="M41.037,36.086,33.35,28.76h7.687Z" transform="translate(76.206 65.718)"/><path class="o" d="M41.037,38.666,33.35,31.34h7.687Z" transform="translate(76.206 71.613)"/><path class="o" d="M43.84,30.926,36.12,23.6h7.72Z" transform="translate(82.536 53.927)"/><path class="o" d="M43.84,33.506,36.12,26.18h7.72Z" transform="translate(82.536 59.822)"/><path class="o" d="M43.84,36.086,36.12,28.76h7.72Z" transform="translate(82.536 65.718)"/><path class="o" d="M43.84,38.666,36.12,31.34h7.72Z" transform="translate(82.536 71.613)"/><path class="o" d="M46.58,38.666,38.86,31.34h7.72Z" transform="translate(88.797 71.613)"/><path class="o" d="M64.965,38.666,47.16,31.34h17.8Z" transform="translate(107.762 71.613)"/><path class="o" d="M17.91,41.278,10.19,33.92h7.72Z" transform="translate(23.285 77.508)"/><path class="o" d="M20.79,41.278,13.07,33.92h7.72Z" transform="translate(29.865 77.508)"/><path class="o" d="M62.17,41.278,15.95,33.92H62.17Z" transform="translate(36.446 77.508)"/><path class="o" d="M41.037,41.278,33.35,33.92h7.687Z" transform="translate(76.206 77.508)"/><path class="o" d="M38.18,41.278,30.46,33.92h7.72Z" transform="translate(69.602 77.508)"/><path class="o" d="M77.092,66.683,32.81,37.38H77.092Z" transform="translate(74.972 85.415)"/><path class="n" d="M70.194,53.219H39.741a6.9,6.9,0,0,1-6.931-6.9H77.092A6.9,6.9,0,0,1,70.194,53.219Z" transform="translate(74.972 105.843)"/><path class="q" d="M70.194,53.219H39.741a6.9,6.9,0,0,1-6.931-6.9h0S74,53.219,70.194,53.219Z" transform="translate(74.972 105.843)"/><path class="o" d="M43.84,41.278,36.12,33.92h7.72Z" transform="translate(82.536 77.508)"/><path class="o" d="M46.58,41.278,38.86,33.92h7.72Z" transform="translate(88.797 77.508)"/><path class="o" d="M49.287,30.926,41.6,23.6h7.687Z" transform="translate(95.058 53.927)"/><path class="o" d="M49.287,33.506,41.6,26.18h7.687Z" transform="translate(95.058 59.822)"/><path class="o" d="M49.287,36.086,41.6,28.76h7.687Z" transform="translate(95.058 65.718)"/><path class="o" d="M49.287,38.666,41.6,31.34h7.687Z" transform="translate(95.058 71.613)"/><path class="o" d="M49.287,41.278,41.6,33.92h7.687Z" transform="translate(95.058 77.508)"/><path class="o" d="M52.06,30.926,44.34,23.6h7.72Z" transform="translate(101.319 53.927)"/><path class="o" d="M52.06,33.506,44.34,26.18h7.72Z" transform="translate(101.319 59.822)"/><path class="o" d="M52.06,36.086,44.34,28.76h7.72Z" transform="translate(101.319 65.718)"/><path class="o" d="M54.88,36.086,47.16,28.76h7.72Z" transform="translate(107.762 65.718)"/><path class="o" d="M52.06,38.666,44.34,31.34h7.72Z" transform="translate(101.319 71.613)"/><path class="o" d="M52.06,41.278,44.34,33.92h7.72Z" transform="translate(101.319 77.508)"/><path class="o" d="M54.88,41.278,47.16,33.92h7.72Z" transform="translate(107.762 77.508)"/><path class="o" d="M58.772,41.278l-8.9-7.358h8.9Z" transform="translate(113.955 77.508)"/><rect width="14.224" height="1.084" transform="translate(211.031 67.475)"/><rect width="14.224" height="1.084" transform="translate(211.031 70.037)"/><rect width="14.224" height="1.084" transform="translate(211.031 72.599)"/><rect class="r" width="2.562" height="1.084" transform="translate(216.878 67.442)"/><rect class="s" width="13.173" height="9.198" transform="translate(201.406 152.097)"/><rect class="t" width="13.173" height="9.198" transform="translate(217.371 152.097)"/><path class="u" d="M9.03,18.72l205.808-.69v88.236l-1.413-86.889Z" transform="translate(20.634 41.199)"/><path class="v" d="M209.41,120.1H18.155S8.3,119.576,8.3,111.166V22.93s1.38,84.425,1.38,86.5c0,7.786,8.64,9.4,8.64,9.4Z" transform="translate(18.966 52.396)"/><path class="u" d="M0,3.12s151.9.2,263,0C115.6,4.828,0,3.12,0,3.12Z" transform="translate(0 7.129)"/><path class="w" d="M35.69,6.652s144.016.493,144.542,0A6.866,6.866,0,0,0,175.994.64s4.2,3.285,1.971,4.763C177.144,6.093,35.69,6.652,35.69,6.652Z" transform="translate(81.553 1.462)"/><path class="u" d="M96.482,3.552c-.2,1.15-24.8,45.3-24.8,45.3S94.741,3.158,96.482,3.552Z" transform="translate(163.791 8.11)"/><path class="u" d="M81.238,2.822c.23,1.183,0,2.234-.854,2.4S78.906,4.5,78.676,3.315s.164-2.234.887-2.365S81.041,1.639,81.238,2.822Z" transform="translate(179.627 2.138)"/><path class="u" d="M79.61,2.646c.164.756,0,1.445-.558,1.544S78,3.73,78,2.942,78,1.5,78.591,1.4,79.478,1.858,79.61,2.646Z" transform="translate(178.233 3.168)"/><path class="x" d="M224.134,41.691,3.15,4.34H244.666Z" transform="translate(7.198 9.917)"/><path class="y" d="M12.87,89.117l.23-10.841a7.49,7.49,0,0,1,6.012-8.114,6.57,6.57,0,0,1,6.57,5.453,7.621,7.621,0,0,1,6.57-7.1,5.65,5.65,0,0,1,5.617,4.3,7.523,7.523,0,0,1,7-5.749c4.928,0,6.964,5.519,6.964,5.519l.887-37.482A6.143,6.143,0,0,1,58.959,29s6.57.756,6.242,6.143l1.84,58.7a230.512,230.512,0,0,0,5.387,25.1c2.6,8.081-15.275,15.932-15.275,15.932v15.374h-34V133.53a66.785,66.785,0,0,1-9.2-14.421C13.067,116.645,12.87,89.117,12.87,89.117Z" transform="translate(29.408 66.266)"/><path class="y" d="M29.14,65.931,39.915,51.345a13.14,13.14,0,0,1,18.495-2.3h0a2.628,2.628,0,0,1,.328,3.745L48.39,62.481l-14.257,23C33.115,86.758,29.14,65.931,29.14,65.931Z" transform="translate(66.586 105.68)"/><rect class="z" width="43.034" height="19.349" transform="translate(48.027 204.723)"/><rect class="aa" width="53.316" height="44.644" transform="translate(43.494 214.381)"/><path class="ab" d="M14.64,72.652a4.2,4.2,0,1,0,4.172-4.172,4.2,4.2,0,0,0-4.172,4.172Z" transform="translate(33.453 156.479)"/><path class="ab" d="M14.64,77.665a4.2,4.2,0,1,0,4.172-4.2A4.2,4.2,0,0,0,14.64,77.665Z" transform="translate(33.453 167.859)"/><path class="ac" d="M70.444,35.281h0a4.468,4.468,0,0,0-5.519,2.464L61.64,47.6,71.5,53.349l2.5-13.14a4.533,4.533,0,0,0-3.548-4.928Z" transform="translate(140.85 80.089)"/><path class="ac" d="M64.515,29.7h0a4.993,4.993,0,0,0-5.847,3.614l-2.4,11.2,11.563,5.617L69.016,34.7a5.026,5.026,0,0,0-4.5-4.993Z" transform="translate(128.579 67.632)"/><path class="ac" d="M54.849,31.482h0a5.026,5.026,0,0,0-4.96,4.6L49.56,48.368,61.879,51,60.3,35.589A4.96,4.96,0,0,0,54.849,31.482Z" transform="translate(113.246 71.865)"/><path class="y" d="M106.927,80.808l11.2-23.291a3.975,3.975,0,0,0-.624-5.42,4.3,4.3,0,0,0-6.866,1.38L100.16,71.15s-.657.591-1.807-1.15l2.562-9.855c2.628-8.015,1.051-8.968-2.431-10.479,0,0-6.044-1.61-6.57,1.051L87.808,64.974c-.329.624-3.876-.657-3.876-.657l2.332-27.726c.3-2.5-5.946-2.989-5.946-2.989s-6.044-.657-6.209,2.989l-3.285,26.28c0,.46-3.975.756-3.975.756l-2.6-19.94c0-1.183-1.117-2.464-5.552-2.464,0,0-6.57.263-6.57,2.464l1.741,40.932a235.607,235.607,0,0,1-5.19,24.638c-2.562,7.95,14.388,14.815,14.388,14.815l.329,15.9H96.908V123.546a65.043,65.043,0,0,0,9.034-14.126C106.73,106.891,106.927,80.808,106.927,80.808Z" transform="translate(110.641 76.677)"/><rect class="z" width="43.034" height="19.349" transform="translate(168.917 204.723)"/><path class="y" d="M69.7,69.389,61.975,52.7A13.14,13.14,0,0,0,45.09,45.835h0a2.5,2.5,0,0,0-1.183,3.285s5.913,8.443,7.654,11.76,7.556,23.948,7.556,23.948a12.352,12.352,0,0,0,4.928,5.256C69.334,92.154,69.7,69.389,69.7,69.389Z" transform="translate(99.813 102.583)"/><rect class="aa" width="53.316" height="44.644" transform="translate(163.168 214.381)"/><circle class="ab" cx="4.205" cy="4.205" r="4.205" transform="translate(203.508 224.926)"/><circle class="ab" cx="4.205" cy="4.205" r="4.205" transform="translate(203.508 241.319)"/><path class="ad" d="M50.18,49.1s-.723,14.75.788,15.013S50.18,49.1,50.18,49.1Z" transform="translate(114.269 112.195)"/></g></svg>