<svg xmlns="http://www.w3.org/2000/svg" width="351" height="161.493" viewBox="0 0 351 161.493"><defs><style>.a{opacity:0.9;}.b{fill:#ffb7a4;}.c{fill:#bd8746;}.d{fill:#bd7f2f;}.e{fill:#362118;}.f{fill:#1f120e;}.g{fill:#fca93f;}.h{fill:#fff;}.i{fill:#4a4a4a;}.j{fill:#404040;}.k{fill:#636363;}.l{fill:#2e2e2e;}.m{fill:#9e733a;}.n{fill:#65c5db;}.o{fill:#224066;}.p{fill:#c78f80;}.q{fill:#141414;}</style></defs><g class="a"><path class="b" d="M70.042,25.367S96.345,2.747,147.43,0c13.385,0,42.844,5.845,48.981,12.859,3.682,4.267,1.929,13.619,1.929,13.619a34.6,34.6,0,0,1,16.717,9.761c6.488,7.54.585,21.627.585,21.627s14.086,5.845,16.541,17.067S221.194,96.56,221.194,96.56a16.483,16.483,0,0,1,10.112,18c-1.227,14.32-24.841,19.873-24.841,19.873l-16.191,2.689a20.75,20.75,0,0,1,4.5,23.38c-2.1,4.384-22.094-7.131-26.244-8.709s-36.181,8.3-66.341-1.52A75.517,75.517,0,0,1,71.62,124.5H.019V25.134Z" transform="translate(118.518)"/><rect class="c" width="4.851" height="4.734" transform="translate(196.509 72.127)"/><rect class="d" width="28.933" height="9.878" transform="translate(156.471 44.305)"/><rect class="d" width="28.933" height="9.878" transform="translate(156.471 95.04)"/><rect class="e" width="26.77" height="21.627" transform="translate(157.581 22.679)"/><rect class="f" width="26.77" height="1.929" transform="translate(157.581 42.376)"/><rect class="e" width="26.77" height="21.627" transform="translate(157.581 104.918)"/><rect class="f" width="26.77" height="2.046" transform="translate(157.581 104.918)"/><rect class="g" width="53.657" height="52.956" rx="1.57" transform="translate(143.437 48.163)"/><rect class="h" width="43.37" height="42.785" rx="1.47" transform="translate(148.58 53.19)"/><rect class="i" width="1.169" height="3.565" transform="translate(169.739 54.709)"/><rect class="i" width="3.565" height="1.169" transform="translate(150.451 73.998)"/><rect class="i" width="1.169" height="3.565" transform="translate(169.798 90.831)"/><rect class="i" width="3.565" height="1.169" transform="translate(186.631 73.939)"/><path d="M42.054,26.4l.292-.234L28.9,12.72l-.292.292Z" transform="translate(141.538 61.629)"/><path class="j" d="M31.533,19.118l9.177-8.008-8.183,8.943a1.7,1.7,0,1,1-2.806-.526,1.637,1.637,0,0,1,1.812-.409Z" transform="translate(139.375 53.828)"/><path class="k" d="M30.905,12.941a.877.877,0,1,0,.888-.331A.877.877,0,0,0,30.905,12.941Z" transform="translate(139.009 60.999)"/><path class="l" d="M46.422,21.76,30.64,10.83l16.483,9.82a1.812,1.812,0,0,1,1.87,0,1.7,1.7,0,0,1,.526,2.4,1.754,1.754,0,0,1-2.338.526,1.812,1.812,0,0,1-.76-1.812Z" transform="translate(122.207 52.471)"/><path class="k" d="M31.016,14.047a.818.818,0,0,0,1.169,0,.849.849,0,1,0-1.169,0Z" transform="translate(138.899 61.179)"/><rect class="m" width="8.241" height="0.935" transform="translate(166.115 60.788)"/><rect class="n" width="26.069" height="114.153" transform="translate(112.4 17.535)"/><rect class="o" width="112.4" height="124.44" transform="translate(0 12.859)"/><path class="p" d="M9.052,29.559,55.987,23.48H7.24Z" transform="translate(252.804 113.761)"/><path class="p" d="M6.372,17.741,46.7,20.664l-38.986,2.1L15.607,52.11l48.514-.058L17.01,57.312l9,33.55,43.662-.117L27.414,96.065l5.494,20.516H22.738L1.93,1.2Z" transform="translate(270.155 5.814)"/><path class="q" d="M44.71,13.327A9.995,9.995,0,1,0,54.647,3.39a10,10,0,0,0-9.937,9.937Z" transform="translate(25.079 16.424)"/><path class="q" d="M52.6,13.327A9.937,9.937,0,1,0,62.537,3.39,9.937,9.937,0,0,0,52.6,13.327Z" transform="translate(-28.811 16.425)"/></g></svg>