<svg fill="none" xmlns="http://www.w3.org/2000/svg">
<g clip-path="url(#clip0)">
<path d="M13.641 2.32504C12.9067 1.58533 12.0327 0.998886 11.0698 0.59976C10.1069 0.200635 9.07433 -0.00321857 8.03202 3.842e-05C3.66302 3.842e-05 0.107016 3.55604 0.107016 7.92804C0.107016 9.32504 0.473016 10.691 1.16602 11.891L0.0410156 16L4.24402 14.897C5.40597 15.53 6.70785 15.8621 8.03102 15.863H8.03402C12.403 15.863 15.962 12.307 15.962 7.93504C15.9647 6.89308 15.7608 5.86092 15.3623 4.89818C14.9637 3.93545 14.3784 3.06124 13.64 2.32604L13.641 2.32504ZM8.03402 14.525C6.85317 14.5252 5.69401 14.2078 4.67802 13.606L4.43702 13.462L1.94302 14.115L2.60902 11.684L2.45302 11.434C1.79077 10.3848 1.44081 9.16878 1.44402 7.92804C1.44613 6.18013 2.14163 4.50446 3.37788 3.26878C4.61412 2.0331 6.2901 1.33836 8.03802 1.33704C9.79702 1.33704 11.454 2.02504 12.697 3.26804C13.3104 3.87922 13.7966 4.60591 14.1276 5.4061C14.4585 6.20629 14.6276 7.06412 14.625 7.93004C14.622 11.567 11.666 14.524 8.03402 14.524V14.525ZM11.647 9.58804C11.45 9.48804 10.475 9.01004 10.294 8.94404C10.113 8.87804 9.98102 8.84404 9.84702 9.04404C9.71602 9.24104 9.33502 9.68804 9.21902 9.82204C9.10302 9.95304 8.98802 9.97204 8.79102 9.87204C8.59402 9.77204 7.95302 9.56304 7.19702 8.88804C6.60902 8.36304 6.21002 7.71304 6.09402 7.51604C5.97802 7.31904 6.08102 7.21004 6.18202 7.11304C6.27302 7.02504 6.37902 6.88204 6.47902 6.76604C6.57902 6.65004 6.61002 6.56904 6.67602 6.43504C6.74202 6.30404 6.71002 6.18804 6.66002 6.08804C6.61002 5.98804 6.21302 5.01304 6.05102 4.61604C5.89202 4.22804 5.72602 4.28204 5.60402 4.27504C5.48802 4.26904 5.35702 4.26904 5.22602 4.26904C5.09502 4.26904 4.87902 4.31904 4.69802 4.51604C4.51702 4.71304 4.00402 5.19404 4.00402 6.16904C4.00402 7.14404 4.71302 8.08504 4.81302 8.21904C4.91302 8.35004 6.21001 10.353 8.19701 11.21C8.66901 11.413 9.03802 11.535 9.32502 11.629C9.80002 11.779 10.231 11.757 10.572 11.707C10.953 11.651 11.744 11.229 11.91 10.766C12.076 10.303 12.076 9.90704 12.026 9.82504C11.979 9.73704 11.848 9.68804 11.648 9.58704L11.647 9.58804Z" fill="#3c1919"/>
</g>
<defs>
<clipPath id="clip0">
<rect width="16" height="16" fill="white"/>
</clipPath>
</defs>
</svg>
